<?xml version="1.0" encoding="utf-8"?>
<!-- Generator: Adobe Illustrator 17.0.0, SVG Export Plug-In . SVG Version: 6.00 Build 0)  -->
<!DOCTYPE svg PUBLIC "-//W3C//DTD SVG 1.1//EN" "http://www.w3.org/Graphics/SVG/1.1/DTD/svg11.dtd">
<svg version="1.1" id="圖層_1" xmlns="http://www.w3.org/2000/svg" xmlns:xlink="http://www.w3.org/1999/xlink" x="0px" y="0px"
	 width="407px" height="10px" viewBox="0 0 407 10" enable-background="new 0 0 407 10" xml:space="preserve">
<title>Stroke 1</title>
<desc>Created with Sketch.</desc>
<g id="Page-1">
	<g id="CCT_index_updated-Copy-2" transform="translate(-75.000000, -957.000000)">
		<path id="Stroke-1" fill="#72ACDD" stroke="#70A5D2" stroke-miterlimit="10" d="M75,957.56c4.011,0,6.014,1.172,9.632,4.701
			c3.641,3.551,5.671,4.739,9.726,4.739c4.052,0,6.081-1.188,9.72-4.738c3.618-3.53,5.62-4.702,9.63-4.702
			c4.01,0,6.012,1.172,9.629,4.7c3.641,3.552,5.671,4.74,9.726,4.74c4.054,0,6.083-1.188,9.723-4.739
			c3.617-3.529,5.62-4.701,9.63-4.701c4.012,0,6.016,1.172,9.634,4.701c3.641,3.551,5.672,4.739,9.726,4.739
			c4.053,0,6.083-1.188,9.723-4.738c3.618-3.53,5.622-4.702,9.633-4.702c4.011,0,6.014,1.172,9.632,4.7
			c3.642,3.552,5.673,4.74,9.729,4.74c4.056,0,6.086-1.188,9.728-4.739c3.619-3.529,5.622-4.701,9.635-4.701
			c4.012,0,6.016,1.172,9.634,4.701c3.641,3.551,5.672,4.739,9.726,4.739c4.056,0,6.086-1.188,9.728-4.739
			c3.619-3.529,5.622-4.701,9.632-4.701c4.012,0,6.015,1.172,9.635,4.701c3.642,3.551,5.672,4.739,9.728,4.739
			c4.057,0,6.088-1.188,9.73-4.739c3.62-3.529,5.624-4.701,9.637-4.701c4.012,0,6.015,1.172,9.635,4.701
			c3.642,3.551,5.672,4.739,9.728,4.739c4.054,0,6.084-1.188,9.725-4.738c3.619-3.53,5.623-4.702,9.635-4.702
			c4.011,0,6.014,1.172,9.632,4.7c3.642,3.552,5.673,4.74,9.729,4.74s6.086-1.188,9.728-4.739c3.619-3.529,5.622-4.701,9.632-4.701
			c4.013,0,6.017,1.172,9.637,4.701c3.642,3.551,5.673,4.739,9.728,4.739c4.058,0,6.089-1.188,9.733-4.739
			c3.621-3.529,5.625-4.701,9.639-4.701c4.013,0,6.017,1.172,9.637,4.701c3.643,3.551,5.674,4.739,9.73,4.739
			c4.06,0,6.092-1.188,9.737-4.739c3.622-3.529,5.627-4.701,9.642-4.701c4.016,0,6.022,1.172,9.644,4.701
			c3.645,3.551,5.677,4.739,9.735,4.739v-0.134c-4.015,0-6.02-1.172-9.641-4.7c-3.646-3.552-5.678-4.74-9.738-4.74
			c-4.058,0-6.09,1.188-9.734,4.738c-3.623,3.53-5.629,4.702-9.645,4.702c-4.013,0-6.017-1.172-9.637-4.701
			c-3.643-3.551-5.674-4.739-9.73-4.739c-4.058,0-6.089,1.188-9.733,4.739c-3.621,3.529-5.625,4.701-9.639,4.701
			c-4.012,0-6.015-1.172-9.634-4.7c-3.643-3.552-5.674-4.74-9.731-4.74c-4.054,0-6.084,1.188-9.725,4.738
			c-3.619,3.53-5.623,4.702-9.635,4.702s-6.016-1.172-9.634-4.701c-3.641-3.551-5.672-4.739-9.726-4.739
			c-4.056,0-6.086,1.188-9.728,4.739c-3.619,3.529-5.622,4.701-9.632,4.701c-4.012,0-6.015-1.172-9.635-4.701
			c-3.642-3.551-5.672-4.739-9.728-4.739c-4.057,0-6.088,1.188-9.73,4.739c-3.62,3.529-5.624,4.701-9.637,4.701
			c-4.012,0-6.015-1.172-9.635-4.701c-3.642-3.551-5.672-4.739-9.728-4.739c-4.054,0-6.084,1.188-9.725,4.738
			c-3.619,3.53-5.623,4.702-9.635,4.702c-4.011,0-6.014-1.172-9.632-4.7c-3.642-3.552-5.673-4.74-9.729-4.74
			c-4.056,0-6.086,1.188-9.728,4.739c-3.619,3.529-5.622,4.701-9.635,4.701c-4.012,0-6.016-1.172-9.634-4.701
			c-3.641-3.551-5.672-4.739-9.726-4.739c-4.055,0-6.085,1.188-9.725,4.739c-3.618,3.529-5.62,4.701-9.63,4.701
			c-4.011,0-6.014-1.172-9.632-4.7c-3.642-3.552-5.673-4.74-9.729-4.74c-4.054,0-6.083,1.188-9.723,4.739
			c-3.617,3.529-5.62,4.701-9.63,4.701c-4.011,0-6.014-1.172-9.632-4.701c-3.641-3.551-5.67-4.739-9.724-4.739
			c-4.054,0-6.084,1.188-9.723,4.739c-3.617,3.529-5.619,4.701-9.628,4.701c-4.011,0-6.014-1.172-9.632-4.701
			c-3.641-3.551-5.671-4.739-9.726-4.739V957.56z"/>
	</g>
</g>
</svg>
