<?xml version="1.0" encoding="utf-8"?>
<!-- Generator: Adobe Illustrator 17.0.0, SVG Export Plug-In . SVG Version: 6.00 Build 0)  -->
<!DOCTYPE svg PUBLIC "-//W3C//DTD SVG 1.1//EN" "http://www.w3.org/Graphics/SVG/1.1/DTD/svg11.dtd">
<svg version="1.1" id="圖層_1" xmlns="http://www.w3.org/2000/svg" xmlns:xlink="http://www.w3.org/1999/xlink" x="0px" y="0px"
	 width="755px" height="298px" viewBox="0 0 755 298" enable-background="new 0 0 755 298" xml:space="preserve">
<title>acc</title>
<desc>Created with Sketch.</desc>
<g id="Page-1">
	<g id="CCT_index_updated-Copy-2" transform="translate(0.000000, -1047.000000)">
		<g id="acc" transform="translate(-5.000000, 1047.000000)">
			<g>
				<path id="Stroke-1_1_" fill="#1379D9" d="M0,0.676c7.496,0,11.238,2.19,18,8.785c6.804,6.636,10.597,8.856,18.174,8.856
					c7.573,0,11.365-2.22,18.165-8.854c6.76-6.596,10.503-8.786,17.997-8.786c7.493,0,11.235,2.19,17.994,8.783
					c6.804,6.637,10.598,8.857,18.176,8.857c7.575,0,11.368-2.22,18.17-8.856c6.76-6.595,10.502-8.785,17.996-8.785
					c7.498,0,11.242,2.191,18.004,8.785c6.805,6.636,10.599,8.856,18.175,8.856c7.574,0,11.367-2.22,18.169-8.854
					c6.762-6.596,10.505-8.786,18.001-8.786c7.495,0,11.238,2.19,17.999,8.783c6.806,6.637,10.601,8.857,18.18,8.857
					c7.579,0,11.373-2.22,18.179-8.856c6.763-6.595,10.507-8.785,18.004-8.785c7.497,0,11.242,2.191,18.004,8.785
					c6.805,6.636,10.599,8.856,18.175,8.856c7.579,0,11.374-2.22,18.178-8.856c6.762-6.595,10.506-8.785,18-8.785
					c7.497,0,11.241,2.19,18.004,8.785c6.806,6.636,10.6,8.856,18.179,8.856c7.581,0,11.376-2.22,18.183-8.856
					c6.765-6.595,10.509-8.785,18.009-8.785c7.497,0,11.241,2.19,18.004,8.785c6.806,6.636,10.6,8.856,18.179,8.856
					c7.576,0,11.37-2.22,18.173-8.854c6.764-6.596,10.508-8.786,18.005-8.786c7.495,0,11.238,2.19,17.999,8.783
					c6.806,6.637,10.601,8.857,18.18,8.857c7.579,0,11.374-2.22,18.178-8.856c6.762-6.595,10.506-8.785,18-8.785
					c7.499,0,11.245,2.191,18.008,8.785c6.807,6.636,10.601,8.856,18.179,8.856c7.583,0,11.379-2.22,18.188-8.856
					c6.766-6.595,10.512-8.785,18.013-8.785c7.499,0,11.244,2.19,18.009,8.785c6.807,6.636,10.603,8.856,18.183,8.856
					c7.586,0,11.385-2.22,18.196-8.856c6.769-6.595,10.516-8.785,18.018-8.785c7.505,0,11.253,2.191,18.021,8.785
					c6.812,6.636,10.609,8.856,18.193,8.856v-0.25c-7.502,0-11.249-2.19-18.016-8.783c-6.813-6.637-10.611-8.857-18.198-8.857
					c-7.584,0-11.381,2.22-18.191,8.854c-6.77,6.596-10.518,8.786-18.023,8.786c-7.499,0-11.244-2.19-18.009-8.785
					c-6.807-6.636-10.602-8.856-18.183-8.856c-7.583,0-11.379,2.22-18.188,8.856c-6.766,6.595-10.512,8.785-18.013,8.785
					c-7.497,0-11.241-2.19-18.003-8.783c-6.808-6.637-10.604-8.857-18.184-8.857c-7.576,0-11.37,2.22-18.173,8.854
					c-6.764,6.596-10.508,8.786-18.005,8.786c-7.498,0-11.242-2.191-18.004-8.785c-6.805-6.636-10.599-8.856-18.175-8.856
					c-7.579,0-11.374,2.22-18.178,8.856c-6.762,6.595-10.506,8.785-18,8.785c-7.497,0-11.241-2.19-18.004-8.785
					c-6.806-6.636-10.6-8.856-18.179-8.856c-7.581,0-11.376,2.22-18.183,8.856c-6.765,6.595-10.509,8.785-18.009,8.785
					c-7.497,0-11.241-2.19-18.004-8.785c-6.806-6.636-10.6-8.856-18.179-8.856c-7.576,0-11.37,2.22-18.173,8.854
					c-6.764,6.596-10.508,8.786-18.005,8.786c-7.495,0-11.238-2.19-17.999-8.783c-6.806-6.637-10.601-8.857-18.18-8.857
					c-7.579,0-11.373,2.22-18.179,8.856c-6.763,6.595-10.507,8.785-18.004,8.785c-7.498,0-11.242-2.191-18.004-8.785
					c-6.805-6.636-10.599-8.856-18.175-8.856c-7.577,0-11.371,2.22-18.174,8.856c-6.761,6.595-10.503,8.785-17.996,8.785
					c-7.495,0-11.238-2.19-17.999-8.783c-6.806-6.637-10.601-8.857-18.18-8.857c-7.575,0-11.368,2.22-18.17,8.856
					c-6.76,6.595-10.502,8.785-17.995,8.785c-7.496,0-11.239-2.191-17.999-8.785C83.703,2.646,79.91,0.426,72.336,0.426
					c-7.575,0-11.368,2.22-18.17,8.856c-6.759,6.595-10.501,8.785-17.992,8.785c-7.496,0-11.238-2.19-18-8.785
					C11.371,2.646,7.577,0.426,0,0.426V0.676z"/>
				<path fill="#1379D9" d="M761.343,19.817h-1.5c-8.363,0-12.521-2.736-19.239-9.282c-6.438-6.271-9.794-8.359-16.975-8.359
					c-7.179,0-10.534,2.087-16.972,8.359c-6.718,6.545-10.876,9.282-19.242,9.282c-8.36,0-12.516-2.736-19.23-9.282
					c-6.434-6.272-9.787-8.359-16.962-8.359c-7.177,0-10.531,2.087-16.967,8.359c-6.716,6.545-10.872,9.282-19.234,9.282
					c-8.357,0-12.512-2.736-19.226-9.282c-6.434-6.272-9.786-8.359-16.962-8.359c-7.171,0-10.522,2.087-16.953,8.358
					c-6.712,6.546-10.867,9.282-19.226,9.282s-12.514-2.737-19.227-9.284c-6.43-6.271-9.781-8.357-16.952-8.357
					c-7.174,0-10.525,2.087-16.958,8.36c-6.711,6.544-10.865,9.28-19.221,9.28c-8.358,0-12.513-2.736-19.226-9.282
					c-6.433-6.271-9.785-8.358-16.958-8.358c-7.174,0-10.527,2.087-16.962,8.359c-6.714,6.545-10.869,9.282-19.229,9.282
					c-8.358,0-12.513-2.736-19.227-9.282c-6.432-6.272-9.784-8.359-16.957-8.359c-7.17,0-10.522,2.087-16.953,8.358
					c-6.712,6.546-10.867,9.282-19.226,9.282c-8.356,0-12.51-2.736-19.222-9.282c-6.431-6.271-9.783-8.358-16.957-8.358
					c-7.173,0-10.525,2.087-16.957,8.359c-6.713,6.545-10.868,9.282-19.226,9.282c-8.359,0-12.514-2.737-19.228-9.284
					c-6.43-6.271-9.781-8.357-16.951-8.357c-7.171,0-10.523,2.087-16.954,8.36c-6.709,6.544-10.863,9.28-19.216,9.28
					c-8.355,0-12.51-2.736-19.223-9.282c-6.431-6.271-9.783-8.358-16.957-8.358c-7.168,0-10.519,2.087-16.948,8.358
					c-6.709,6.546-10.863,9.282-19.218,9.282c-8.357,0-12.511-2.737-19.223-9.284c-6.428-6.271-9.779-8.357-16.947-8.357
					c-7.169,0-10.52,2.087-16.949,8.36c-6.708,6.544-10.859,9.28-19.212,9.28c-8.357,0-12.511-2.736-19.222-9.282
					C10.522,4.263,7.17,2.176,0,2.176h-1.5v-3.25H0c8.356,0,12.511,2.736,19.222,9.282c6.431,6.271,9.782,8.358,16.953,8.358
					c7.167,0,10.517-2.087,16.944-8.358c6.709-6.546,10.862-9.282,19.217-9.282c8.354,0,12.508,2.736,19.218,9.282
					c6.429,6.271,9.78,8.358,16.952,8.358c7.169,0,10.52-2.087,16.948-8.358c6.709-6.546,10.863-9.282,19.217-9.282
					c8.359,0,12.514,2.737,19.228,9.284c6.43,6.271,9.781,8.357,16.952,8.357c7.168,0,10.519-2.087,16.949-8.358
					c6.71-6.546,10.864-9.282,19.221-9.282c8.356,0,12.51,2.736,19.222,9.282c6.431,6.271,9.783,8.358,16.957,8.358
					c7.173,0,10.525-2.087,16.957-8.359c6.713-6.545,10.868-9.282,19.226-9.282c8.359,0,12.514,2.737,19.228,9.284
					c6.43,6.271,9.781,8.357,16.951,8.357c7.174,0,10.526-2.087,16.958-8.36c6.711-6.545,10.865-9.281,19.221-9.281
					c8.358,0,12.514,2.736,19.227,9.282c6.432,6.271,9.784,8.358,16.957,8.358c7.175,0,10.528-2.087,16.962-8.359
					c6.714-6.545,10.869-9.282,19.229-9.282c8.359,0,12.514,2.736,19.227,9.282c6.433,6.271,9.784,8.358,16.957,8.358
					c7.171,0,10.522-2.087,16.954-8.358c6.711-6.546,10.865-9.282,19.225-9.282c8.355,0,12.51,2.736,19.222,9.282
					c6.431,6.271,9.783,8.358,16.957,8.358s10.526-2.087,16.959-8.36c6.71-6.545,10.863-9.281,19.22-9.281
					c8.36,0,12.517,2.737,19.231,9.283c6.432,6.271,9.784,8.357,16.956,8.357c7.177,0,10.531-2.087,16.967-8.359
					c6.716-6.545,10.872-9.282,19.234-9.282c8.36,0,12.516,2.736,19.23,9.282c6.434,6.272,9.787,8.359,16.962,8.359
					c7.182,0,10.537-2.087,16.976-8.361c6.718-6.544,10.876-9.28,19.238-9.28c8.366,0,12.524,2.737,19.244,9.283
					c6.437,6.271,9.791,8.357,16.97,8.357h1.5V19.817z"/>
			</g>
			<g>
				<path id="Stroke-3_1_" fill="#1379D9" d="M0,28.628c7.496,0,11.238,2.19,18,8.785c6.804,6.636,10.597,8.856,18.174,8.856
					c7.573,0,11.365-2.22,18.165-8.854c6.76-6.596,10.503-8.786,17.997-8.786c7.493,0,11.235,2.19,17.994,8.783
					c6.804,6.637,10.598,8.857,18.176,8.857c7.575,0,11.368-2.22,18.17-8.856c6.76-6.595,10.502-8.785,17.996-8.785
					c7.498,0,11.242,2.191,18.004,8.785c6.805,6.636,10.599,8.856,18.175,8.856c7.574,0,11.367-2.22,18.169-8.854
					c6.762-6.596,10.505-8.786,18.001-8.786c7.495,0,11.238,2.19,17.999,8.783c6.806,6.637,10.601,8.857,18.18,8.857
					c7.579,0,11.373-2.22,18.179-8.856c6.763-6.595,10.507-8.785,18.004-8.785c7.497,0,11.242,2.191,18.004,8.785
					c6.805,6.636,10.599,8.856,18.175,8.856c7.579,0,11.374-2.22,18.178-8.856c6.762-6.595,10.506-8.785,18-8.785
					c7.497,0,11.241,2.19,18.004,8.785c6.806,6.636,10.6,8.856,18.179,8.856c7.581,0,11.376-2.22,18.183-8.856
					c6.765-6.595,10.509-8.785,18.009-8.785c7.497,0,11.241,2.19,18.004,8.785c6.806,6.636,10.6,8.856,18.179,8.856
					c7.576,0,11.37-2.22,18.173-8.854c6.764-6.596,10.508-8.786,18.005-8.786c7.495,0,11.238,2.19,17.999,8.783
					c6.806,6.637,10.601,8.857,18.18,8.857c7.579,0,11.374-2.22,18.178-8.856c6.762-6.595,10.506-8.785,18-8.785
					c7.499,0,11.245,2.191,18.008,8.785c6.807,6.636,10.601,8.856,18.179,8.856c7.583,0,11.379-2.22,18.188-8.856
					c6.766-6.595,10.512-8.785,18.013-8.785c7.499,0,11.244,2.19,18.009,8.785c6.807,6.636,10.603,8.856,18.183,8.856
					c7.586,0,11.385-2.22,18.196-8.856c6.769-6.595,10.516-8.785,18.018-8.785c7.505,0,11.253,2.191,18.021,8.785
					c6.812,6.636,10.609,8.856,18.193,8.856v-0.25c-7.502,0-11.249-2.19-18.016-8.783c-6.813-6.637-10.611-8.857-18.198-8.857
					c-7.584,0-11.381,2.22-18.191,8.854c-6.77,6.596-10.518,8.786-18.023,8.786c-7.499,0-11.244-2.19-18.009-8.785
					c-6.807-6.636-10.602-8.856-18.183-8.856c-7.583,0-11.379,2.22-18.188,8.856c-6.766,6.595-10.512,8.785-18.013,8.785
					c-7.497,0-11.241-2.19-18.003-8.783c-6.808-6.637-10.604-8.857-18.184-8.857c-7.576,0-11.37,2.22-18.173,8.854
					c-6.764,6.596-10.508,8.786-18.005,8.786c-7.498,0-11.242-2.191-18.004-8.785c-6.805-6.636-10.599-8.856-18.175-8.856
					c-7.579,0-11.374,2.22-18.178,8.856c-6.762,6.595-10.506,8.785-18,8.785c-7.497,0-11.241-2.19-18.004-8.785
					c-6.806-6.636-10.6-8.856-18.179-8.856c-7.581,0-11.376,2.22-18.183,8.856c-6.765,6.595-10.509,8.785-18.009,8.785
					c-7.497,0-11.241-2.19-18.004-8.785c-6.806-6.636-10.6-8.856-18.179-8.856c-7.576,0-11.37,2.22-18.173,8.854
					c-6.764,6.596-10.508,8.786-18.005,8.786c-7.495,0-11.238-2.19-17.999-8.783c-6.806-6.637-10.601-8.857-18.18-8.857
					c-7.579,0-11.373,2.22-18.179,8.856c-6.763,6.595-10.507,8.785-18.004,8.785c-7.498,0-11.242-2.191-18.004-8.785
					c-6.805-6.636-10.599-8.856-18.175-8.856c-7.577,0-11.371,2.22-18.174,8.856c-6.761,6.595-10.503,8.785-17.996,8.785
					c-7.495,0-11.238-2.19-17.999-8.783c-6.806-6.637-10.601-8.857-18.18-8.857c-7.575,0-11.368,2.22-18.17,8.856
					c-6.76,6.595-10.502,8.785-17.995,8.785c-7.496,0-11.239-2.191-17.999-8.785c-6.803-6.636-10.596-8.856-18.171-8.856
					c-7.575,0-11.368,2.22-18.17,8.856c-6.759,6.595-10.501,8.785-17.992,8.785c-7.496,0-11.238-2.19-18-8.785
					C11.371,30.598,7.577,28.378,0,28.378V28.628z"/>
				<path fill="#1379D9" d="M761.343,47.769h-1.5c-8.362,0-12.521-2.736-19.239-9.281c-6.438-6.272-9.794-8.359-16.975-8.359
					c-7.178,0-10.533,2.087-16.972,8.359c-6.718,6.545-10.876,9.281-19.242,9.281c-8.36,0-12.516-2.736-19.23-9.282
					c-6.434-6.272-9.787-8.359-16.962-8.359c-7.177,0-10.531,2.087-16.967,8.359c-6.716,6.545-10.872,9.281-19.234,9.281
					c-8.357,0-12.512-2.736-19.226-9.282c-6.434-6.272-9.786-8.359-16.962-8.359c-7.171,0-10.522,2.087-16.953,8.358
					c-6.712,6.546-10.867,9.282-19.226,9.282s-12.514-2.737-19.227-9.284c-6.431-6.27-9.782-8.357-16.952-8.357
					c-7.174,0-10.525,2.087-16.958,8.36c-6.711,6.544-10.865,9.28-19.221,9.28c-8.358,0-12.513-2.736-19.226-9.282
					c-6.433-6.271-9.785-8.358-16.958-8.358c-7.174,0-10.527,2.087-16.962,8.359c-6.714,6.545-10.869,9.282-19.229,9.282
					c-8.358,0-12.513-2.736-19.227-9.282c-6.432-6.272-9.784-8.359-16.957-8.359c-7.17,0-10.521,2.087-16.953,8.358
					c-6.712,6.546-10.867,9.282-19.226,9.282c-8.356,0-12.51-2.736-19.222-9.282c-6.431-6.271-9.783-8.358-16.957-8.358
					c-7.173,0-10.525,2.087-16.957,8.359c-6.713,6.545-10.868,9.282-19.226,9.282c-8.359,0-12.514-2.737-19.228-9.284
					c-6.43-6.27-9.781-8.357-16.951-8.357c-7.171,0-10.523,2.087-16.954,8.36c-6.709,6.544-10.863,9.28-19.216,9.28
					c-8.355,0-12.51-2.736-19.223-9.282c-6.431-6.271-9.783-8.358-16.957-8.358c-7.168,0-10.519,2.087-16.948,8.358
					c-6.709,6.546-10.863,9.282-19.218,9.282c-8.357,0-12.511-2.737-19.223-9.284c-6.429-6.271-9.779-8.357-16.947-8.357
					c-7.169,0-10.52,2.087-16.949,8.36c-6.708,6.544-10.859,9.28-19.212,9.28c-8.357,0-12.511-2.736-19.222-9.282
					C10.522,32.215,7.17,30.128,0,30.128h-1.5v-3.25H0c8.356,0,12.511,2.736,19.222,9.282c6.43,6.271,9.782,8.358,16.953,8.358
					c7.167,0,10.517-2.087,16.944-8.358c6.709-6.546,10.862-9.282,19.217-9.282c8.354,0,12.508,2.736,19.218,9.282
					c6.429,6.271,9.78,8.358,16.952,8.358c7.169,0,10.52-2.087,16.948-8.358c6.709-6.546,10.863-9.282,19.217-9.282
					c8.359,0,12.514,2.737,19.228,9.284c6.43,6.271,9.781,8.357,16.952,8.357c7.168,0,10.519-2.087,16.949-8.358
					c6.71-6.546,10.864-9.282,19.221-9.282c8.356,0,12.51,2.736,19.222,9.282c6.431,6.271,9.783,8.358,16.957,8.358
					s10.525-2.087,16.957-8.358c6.713-6.546,10.868-9.282,19.226-9.282c8.359,0,12.514,2.737,19.228,9.284
					c6.43,6.271,9.781,8.357,16.951,8.357c7.174,0,10.526-2.087,16.958-8.36c6.711-6.545,10.865-9.281,19.221-9.281
					c8.358,0,12.514,2.736,19.227,9.282c6.432,6.271,9.784,8.358,16.957,8.358c7.176,0,10.528-2.087,16.962-8.359
					c6.714-6.545,10.869-9.282,19.229-9.282c8.359,0,12.514,2.736,19.227,9.282c6.432,6.271,9.784,8.358,16.957,8.358
					c7.171,0,10.522-2.087,16.954-8.358c6.711-6.546,10.865-9.282,19.225-9.282c8.355,0,12.51,2.736,19.222,9.282
					c6.431,6.271,9.783,8.358,16.957,8.358s10.526-2.087,16.959-8.36c6.71-6.545,10.863-9.281,19.22-9.281
					c8.36,0,12.517,2.737,19.231,9.283c6.432,6.271,9.784,8.357,16.956,8.357c7.178,0,10.531-2.087,16.967-8.359
					c6.716-6.545,10.872-9.282,19.234-9.282c8.36,0,12.516,2.736,19.23,9.282c6.434,6.272,9.786,8.359,16.962,8.359
					c7.182,0,10.537-2.087,16.976-8.36c6.718-6.544,10.876-9.28,19.238-9.28c8.366,0,12.524,2.737,19.244,9.283
					c6.437,6.271,9.791,8.357,16.97,8.357h1.5V47.769z"/>
			</g>
			<g>
				<path id="Stroke-5_1_" fill="#1379D9" d="M0,56.58c7.496,0,11.238,2.19,18,8.785c6.804,6.636,10.597,8.856,18.174,8.856
					c7.573,0,11.365-2.22,18.165-8.854c6.76-6.596,10.503-8.786,17.997-8.786c7.493,0,11.235,2.19,17.994,8.783
					c6.804,6.637,10.598,8.857,18.176,8.857c7.575,0,11.368-2.22,18.17-8.856c6.76-6.595,10.502-8.785,17.996-8.785
					c7.498,0,11.242,2.191,18.004,8.785c6.805,6.636,10.599,8.856,18.175,8.856c7.574,0,11.367-2.22,18.169-8.854
					c6.762-6.596,10.505-8.786,18.001-8.786c7.495,0,11.238,2.19,17.999,8.783c6.806,6.637,10.601,8.857,18.18,8.857
					c7.579,0,11.373-2.22,18.179-8.856c6.763-6.595,10.507-8.785,18.004-8.785c7.497,0,11.242,2.191,18.004,8.785
					c6.805,6.636,10.599,8.856,18.175,8.856c7.579,0,11.374-2.22,18.178-8.856c6.762-6.595,10.506-8.785,18-8.785
					c7.497,0,11.241,2.19,18.004,8.785c6.806,6.636,10.6,8.856,18.179,8.856c7.581,0,11.376-2.22,18.183-8.856
					c6.765-6.595,10.509-8.785,18.009-8.785c7.497,0,11.241,2.19,18.004,8.785c6.806,6.636,10.6,8.856,18.179,8.856
					c7.576,0,11.37-2.22,18.173-8.854c6.764-6.596,10.508-8.786,18.005-8.786c7.495,0,11.238,2.19,17.999,8.783
					c6.806,6.637,10.601,8.857,18.18,8.857c7.579,0,11.374-2.22,18.178-8.856c6.762-6.595,10.506-8.785,18-8.785
					c7.499,0,11.245,2.191,18.008,8.785c6.807,6.636,10.601,8.856,18.179,8.856c7.583,0,11.379-2.22,18.188-8.856
					c6.766-6.595,10.512-8.785,18.013-8.785c7.499,0,11.244,2.19,18.009,8.785c6.807,6.636,10.603,8.856,18.183,8.856
					c7.586,0,11.385-2.22,18.196-8.856c6.769-6.595,10.516-8.785,18.018-8.785c7.505,0,11.253,2.191,18.021,8.785
					c6.812,6.636,10.609,8.856,18.193,8.856v-0.25c-7.502,0-11.249-2.19-18.016-8.783c-6.813-6.637-10.611-8.857-18.198-8.857
					c-7.584,0-11.381,2.22-18.191,8.854c-6.77,6.596-10.518,8.786-18.023,8.786c-7.499,0-11.244-2.19-18.009-8.785
					c-6.807-6.636-10.602-8.856-18.183-8.856c-7.583,0-11.379,2.22-18.188,8.856c-6.766,6.595-10.512,8.785-18.013,8.785
					c-7.497,0-11.241-2.19-18.003-8.783c-6.808-6.637-10.604-8.857-18.184-8.857c-7.576,0-11.37,2.22-18.173,8.854
					c-6.764,6.596-10.508,8.786-18.005,8.786c-7.498,0-11.242-2.191-18.004-8.785c-6.805-6.636-10.599-8.856-18.175-8.856
					c-7.579,0-11.374,2.22-18.178,8.856c-6.762,6.595-10.506,8.785-18,8.785c-7.497,0-11.241-2.19-18.004-8.785
					c-6.806-6.636-10.6-8.856-18.179-8.856c-7.581,0-11.376,2.22-18.183,8.856c-6.765,6.595-10.509,8.785-18.009,8.785
					c-7.497,0-11.241-2.19-18.004-8.785c-6.806-6.636-10.6-8.856-18.179-8.856c-7.576,0-11.37,2.22-18.173,8.854
					c-6.764,6.596-10.508,8.786-18.005,8.786c-7.495,0-11.238-2.19-17.999-8.783c-6.806-6.637-10.601-8.857-18.18-8.857
					c-7.579,0-11.373,2.22-18.179,8.856c-6.763,6.595-10.507,8.785-18.004,8.785c-7.498,0-11.242-2.191-18.004-8.785
					c-6.805-6.636-10.599-8.856-18.175-8.856c-7.577,0-11.371,2.22-18.174,8.856c-6.761,6.595-10.503,8.785-17.996,8.785
					c-7.495,0-11.238-2.19-17.999-8.783c-6.806-6.637-10.601-8.857-18.18-8.857c-7.575,0-11.368,2.22-18.17,8.856
					c-6.76,6.595-10.502,8.785-17.995,8.785c-7.496,0-11.239-2.191-17.999-8.785C83.703,58.55,79.91,56.33,72.336,56.33
					c-7.575,0-11.368,2.22-18.17,8.856c-6.759,6.595-10.501,8.785-17.992,8.785c-7.496,0-11.238-2.19-18-8.785
					C11.371,58.55,7.577,56.33,0,56.33V56.58z"/>
				<path fill="#1379D9" d="M761.343,75.721h-1.5c-8.362,0-12.521-2.736-19.239-9.281c-6.438-6.272-9.794-8.359-16.975-8.359
					c-7.178,0-10.533,2.087-16.972,8.359c-6.718,6.545-10.876,9.281-19.242,9.281c-8.36,0-12.516-2.736-19.23-9.282
					c-6.434-6.272-9.787-8.359-16.962-8.359c-7.177,0-10.531,2.087-16.967,8.359c-6.716,6.545-10.872,9.281-19.234,9.281
					c-8.357,0-12.512-2.736-19.226-9.282c-6.434-6.272-9.786-8.359-16.962-8.359c-7.171,0-10.522,2.087-16.953,8.358
					c-6.712,6.546-10.867,9.282-19.226,9.282s-12.514-2.737-19.227-9.284c-6.431-6.27-9.782-8.357-16.952-8.357
					c-7.174,0-10.525,2.087-16.958,8.36c-6.711,6.544-10.865,9.28-19.221,9.28c-8.358,0-12.513-2.736-19.226-9.282
					c-6.433-6.271-9.785-8.358-16.958-8.358c-7.174,0-10.527,2.087-16.962,8.359c-6.714,6.545-10.869,9.282-19.229,9.282
					c-8.358,0-12.513-2.736-19.227-9.282c-6.432-6.272-9.784-8.359-16.957-8.359c-7.17,0-10.521,2.087-16.953,8.358
					c-6.712,6.546-10.867,9.282-19.226,9.282c-8.356,0-12.51-2.736-19.222-9.282c-6.431-6.271-9.783-8.358-16.957-8.358
					c-7.173,0-10.525,2.087-16.957,8.359c-6.713,6.545-10.868,9.282-19.226,9.282c-8.359,0-12.514-2.737-19.228-9.284
					c-6.43-6.27-9.781-8.357-16.951-8.357c-7.171,0-10.523,2.087-16.954,8.36c-6.709,6.544-10.863,9.28-19.216,9.28
					c-8.355,0-12.51-2.736-19.223-9.282c-6.431-6.271-9.783-8.358-16.957-8.358c-7.168,0-10.519,2.087-16.948,8.358
					c-6.709,6.546-10.863,9.282-19.218,9.282c-8.357,0-12.511-2.737-19.223-9.284c-6.429-6.271-9.779-8.357-16.947-8.357
					c-7.169,0-10.52,2.087-16.949,8.36c-6.708,6.544-10.859,9.28-19.212,9.28c-8.357,0-12.511-2.736-19.222-9.282
					C10.522,60.167,7.17,58.08,0,58.08h-1.5v-3.25H0c8.356,0,12.511,2.736,19.222,9.282c6.43,6.271,9.782,8.358,16.953,8.358
					c7.167,0,10.517-2.087,16.944-8.358c6.709-6.546,10.862-9.282,19.217-9.282c8.354,0,12.508,2.736,19.218,9.282
					c6.429,6.271,9.78,8.358,16.952,8.358c7.169,0,10.52-2.087,16.948-8.358c6.709-6.546,10.863-9.282,19.217-9.282
					c8.359,0,12.514,2.737,19.228,9.284c6.43,6.271,9.781,8.357,16.952,8.357c7.168,0,10.519-2.087,16.949-8.358
					c6.71-6.546,10.864-9.282,19.221-9.282c8.356,0,12.51,2.736,19.222,9.282c6.431,6.271,9.783,8.358,16.957,8.358
					s10.525-2.087,16.957-8.358c6.713-6.546,10.868-9.282,19.226-9.282c8.359,0,12.514,2.737,19.228,9.284
					c6.43,6.271,9.781,8.357,16.951,8.357c7.174,0,10.526-2.087,16.958-8.36c6.711-6.545,10.865-9.281,19.221-9.281
					c8.358,0,12.514,2.736,19.227,9.282c6.432,6.271,9.784,8.358,16.957,8.358c7.176,0,10.528-2.087,16.962-8.359
					c6.714-6.545,10.869-9.282,19.229-9.282c8.359,0,12.514,2.736,19.227,9.282c6.432,6.271,9.784,8.358,16.957,8.358
					c7.171,0,10.522-2.087,16.954-8.358c6.711-6.546,10.865-9.282,19.225-9.282c8.355,0,12.51,2.736,19.222,9.282
					c6.431,6.271,9.783,8.358,16.957,8.358s10.526-2.087,16.959-8.36c6.71-6.545,10.863-9.281,19.22-9.281
					c8.36,0,12.517,2.737,19.231,9.283c6.432,6.271,9.784,8.357,16.956,8.357c7.178,0,10.531-2.087,16.967-8.359
					c6.716-6.545,10.872-9.282,19.234-9.282c8.36,0,12.516,2.736,19.23,9.282c6.434,6.272,9.786,8.359,16.962,8.359
					c7.182,0,10.537-2.087,16.976-8.36c6.718-6.544,10.876-9.28,19.238-9.28c8.366,0,12.524,2.737,19.244,9.283
					c6.437,6.271,9.791,8.357,16.97,8.357h1.5V75.721z"/>
			</g>
			<g>
				<path id="Stroke-7_1_" fill="#1379D9" d="M0,84.532c7.496,0,11.238,2.19,18,8.785c6.804,6.636,10.597,8.856,18.174,8.856
					c7.573,0,11.365-2.22,18.165-8.854c6.76-6.596,10.503-8.786,17.997-8.786c7.493,0,11.235,2.19,17.994,8.783
					c6.804,6.637,10.598,8.857,18.176,8.857c7.575,0,11.368-2.22,18.17-8.856c6.76-6.595,10.502-8.785,17.996-8.785
					c7.498,0,11.242,2.191,18.004,8.785c6.805,6.636,10.599,8.856,18.175,8.856c7.574,0,11.367-2.22,18.169-8.854
					c6.762-6.596,10.505-8.786,18.001-8.786c7.495,0,11.238,2.19,17.999,8.783c6.806,6.637,10.601,8.857,18.18,8.857
					c7.579,0,11.373-2.22,18.179-8.856c6.763-6.595,10.507-8.785,18.004-8.785c7.497,0,11.242,2.191,18.004,8.785
					c6.805,6.636,10.599,8.856,18.175,8.856c7.579,0,11.374-2.22,18.178-8.856c6.762-6.595,10.506-8.785,18-8.785
					c7.497,0,11.241,2.19,18.004,8.785c6.806,6.636,10.6,8.856,18.179,8.856c7.581,0,11.376-2.22,18.183-8.856
					c6.765-6.595,10.509-8.785,18.009-8.785c7.497,0,11.241,2.19,18.004,8.785c6.806,6.636,10.6,8.856,18.179,8.856
					c7.576,0,11.37-2.22,18.173-8.854c6.764-6.596,10.508-8.786,18.005-8.786c7.495,0,11.238,2.19,17.999,8.783
					c6.806,6.637,10.601,8.857,18.18,8.857c7.579,0,11.374-2.22,18.178-8.856c6.762-6.595,10.506-8.785,18-8.785
					c7.499,0,11.245,2.191,18.008,8.785c6.807,6.636,10.601,8.856,18.179,8.856c7.583,0,11.379-2.22,18.188-8.856
					c6.766-6.595,10.512-8.785,18.013-8.785c7.499,0,11.244,2.19,18.009,8.785c6.807,6.636,10.603,8.856,18.183,8.856
					c7.586,0,11.385-2.22,18.196-8.856c6.769-6.595,10.516-8.785,18.018-8.785c7.505,0,11.253,2.191,18.021,8.785
					c6.812,6.636,10.609,8.856,18.193,8.856v-0.25c-7.502,0-11.249-2.19-18.016-8.783c-6.813-6.637-10.611-8.857-18.198-8.857
					c-7.584,0-11.381,2.22-18.191,8.854c-6.77,6.596-10.518,8.786-18.023,8.786c-7.499,0-11.244-2.19-18.009-8.785
					c-6.807-6.636-10.602-8.856-18.183-8.856c-7.583,0-11.379,2.22-18.188,8.856c-6.766,6.595-10.512,8.785-18.013,8.785
					c-7.497,0-11.241-2.19-18.003-8.783c-6.808-6.637-10.604-8.857-18.184-8.857c-7.576,0-11.37,2.22-18.173,8.854
					c-6.764,6.596-10.508,8.786-18.005,8.786c-7.498,0-11.242-2.191-18.004-8.785c-6.805-6.636-10.599-8.856-18.175-8.856
					c-7.579,0-11.374,2.22-18.178,8.856c-6.762,6.595-10.506,8.785-18,8.785c-7.497,0-11.241-2.19-18.004-8.785
					c-6.806-6.636-10.6-8.856-18.179-8.856c-7.581,0-11.376,2.22-18.183,8.856c-6.765,6.595-10.509,8.785-18.009,8.785
					c-7.497,0-11.241-2.19-18.004-8.785c-6.806-6.636-10.6-8.856-18.179-8.856c-7.576,0-11.37,2.22-18.173,8.854
					c-6.764,6.596-10.508,8.786-18.005,8.786c-7.495,0-11.238-2.19-17.999-8.783c-6.806-6.637-10.601-8.857-18.18-8.857
					c-7.579,0-11.373,2.22-18.179,8.856c-6.763,6.595-10.507,8.785-18.004,8.785c-7.498,0-11.242-2.191-18.004-8.785
					c-6.805-6.636-10.599-8.856-18.175-8.856c-7.577,0-11.371,2.22-18.174,8.856c-6.761,6.595-10.503,8.785-17.996,8.785
					c-7.495,0-11.238-2.19-17.999-8.783c-6.806-6.637-10.601-8.857-18.18-8.857c-7.575,0-11.368,2.22-18.17,8.856
					c-6.76,6.595-10.502,8.785-17.995,8.785c-7.496,0-11.239-2.191-17.999-8.785c-6.803-6.636-10.596-8.856-18.171-8.856
					c-7.575,0-11.368,2.22-18.17,8.856c-6.759,6.595-10.501,8.785-17.992,8.785c-7.496,0-11.238-2.19-18-8.785
					C11.371,86.502,7.577,84.282,0,84.282V84.532z"/>
				<path fill="#1379D9" d="M761.343,103.672h-1.5c-8.362,0-12.521-2.736-19.239-9.281c-6.438-6.272-9.794-8.359-16.975-8.359
					c-7.178,0-10.533,2.087-16.972,8.359c-6.718,6.545-10.876,9.281-19.242,9.281c-8.359,0-12.516-2.736-19.23-9.281
					c-6.434-6.272-9.787-8.359-16.962-8.359c-7.177,0-10.531,2.087-16.967,8.359c-6.716,6.545-10.872,9.281-19.234,9.281
					c-8.356,0-12.512-2.736-19.226-9.281c-6.434-6.272-9.786-8.359-16.962-8.359c-7.171,0-10.522,2.087-16.953,8.359
					c-6.712,6.545-10.867,9.282-19.226,9.282s-12.514-2.737-19.227-9.284c-6.431-6.27-9.782-8.357-16.952-8.357
					c-7.174,0-10.525,2.087-16.958,8.36c-6.711,6.544-10.865,9.28-19.221,9.28c-8.358,0-12.513-2.736-19.226-9.282
					c-6.433-6.272-9.785-8.359-16.958-8.359c-7.174,0-10.527,2.087-16.962,8.359c-6.714,6.545-10.869,9.281-19.229,9.281
					c-8.357,0-12.513-2.736-19.226-9.282c-6.433-6.272-9.785-8.359-16.958-8.359c-7.17,0-10.521,2.087-16.953,8.359
					c-6.712,6.545-10.867,9.282-19.226,9.282c-8.356,0-12.51-2.736-19.222-9.282c-6.431-6.272-9.783-8.359-16.957-8.359
					c-7.173,0-10.525,2.087-16.957,8.359c-6.713,6.545-10.868,9.282-19.226,9.282c-8.359,0-12.514-2.737-19.228-9.284
					c-6.43-6.27-9.781-8.357-16.951-8.357c-7.171,0-10.523,2.087-16.954,8.36c-6.709,6.544-10.863,9.28-19.216,9.28
					c-8.355,0-12.51-2.736-19.223-9.282c-6.431-6.272-9.783-8.359-16.957-8.359c-7.168,0-10.519,2.087-16.948,8.359
					c-6.709,6.545-10.863,9.282-19.218,9.282c-8.357,0-12.511-2.737-19.223-9.284c-6.429-6.271-9.779-8.357-16.947-8.357
					c-7.169,0-10.52,2.087-16.949,8.36c-6.708,6.544-10.859,9.28-19.212,9.28c-8.356,0-12.511-2.736-19.222-9.282
					C10.522,88.119,7.17,86.032,0,86.032h-1.5v-3.25H0c8.356,0,12.51,2.736,19.222,9.282c6.43,6.271,9.782,8.358,16.953,8.358
					c7.167,0,10.517-2.087,16.944-8.358c6.709-6.546,10.862-9.282,19.217-9.282c8.354,0,12.508,2.736,19.218,9.282
					c6.429,6.271,9.78,8.358,16.952,8.358c7.169,0,10.52-2.087,16.948-8.358c6.71-6.546,10.863-9.282,19.217-9.282
					c8.359,0,12.514,2.737,19.228,9.284c6.43,6.271,9.781,8.357,16.952,8.357c7.168,0,10.519-2.087,16.949-8.358
					c6.71-6.546,10.864-9.282,19.221-9.282c8.356,0,12.51,2.736,19.222,9.282c6.431,6.271,9.783,8.358,16.957,8.358
					s10.525-2.087,16.957-8.358c6.713-6.546,10.869-9.282,19.226-9.282c8.359,0,12.514,2.737,19.228,9.284
					c6.43,6.271,9.781,8.357,16.951,8.357c7.174,0,10.526-2.087,16.958-8.36c6.711-6.545,10.865-9.281,19.221-9.281
					c8.358,0,12.513,2.736,19.227,9.282c6.432,6.272,9.784,8.359,16.957,8.359c7.176,0,10.528-2.087,16.962-8.359
					c6.714-6.545,10.869-9.282,19.229-9.282c8.358,0,12.514,2.736,19.227,9.282c6.432,6.272,9.784,8.359,16.957,8.359
					c7.171,0,10.522-2.087,16.954-8.358c6.711-6.546,10.865-9.282,19.225-9.282c8.355,0,12.51,2.736,19.222,9.282
					c6.431,6.271,9.783,8.358,16.957,8.358s10.526-2.087,16.959-8.36c6.71-6.545,10.863-9.281,19.22-9.281
					c8.36,0,12.517,2.737,19.231,9.283c6.432,6.271,9.784,8.357,16.956,8.357c7.178,0,10.531-2.087,16.967-8.359
					c6.716-6.545,10.872-9.282,19.234-9.282c8.36,0,12.516,2.736,19.23,9.282c6.434,6.272,9.786,8.359,16.962,8.359
					c7.182,0,10.537-2.087,16.976-8.36c6.718-6.544,10.876-9.28,19.238-9.28c8.366,0,12.524,2.737,19.244,9.283
					c6.437,6.271,9.791,8.357,16.97,8.357h1.5V103.672z"/>
			</g>
			<g>
				<path id="Stroke-9_1_" fill="#1379D9" d="M0,112.484c7.496,0,11.238,2.19,18,8.785c6.804,6.636,10.597,8.856,18.174,8.856
					c7.573,0,11.365-2.22,18.165-8.854c6.76-6.596,10.503-8.786,17.997-8.786c7.493,0,11.235,2.19,17.994,8.783
					c6.804,6.637,10.598,8.857,18.176,8.857c7.575,0,11.368-2.22,18.17-8.856c6.76-6.595,10.502-8.785,17.996-8.785
					c7.498,0,11.242,2.191,18.004,8.785c6.805,6.636,10.599,8.856,18.175,8.856c7.574,0,11.367-2.22,18.169-8.854
					c6.762-6.596,10.505-8.786,18.001-8.786c7.495,0,11.238,2.19,17.999,8.783c6.806,6.637,10.601,8.857,18.18,8.857
					c7.579,0,11.373-2.22,18.179-8.856c6.763-6.595,10.507-8.785,18.004-8.785c7.497,0,11.242,2.191,18.004,8.785
					c6.805,6.636,10.599,8.856,18.175,8.856c7.579,0,11.374-2.22,18.178-8.856c6.762-6.595,10.506-8.785,18-8.785
					c7.497,0,11.241,2.19,18.004,8.785c6.806,6.636,10.6,8.856,18.179,8.856c7.581,0,11.376-2.22,18.183-8.856
					c6.765-6.595,10.509-8.785,18.009-8.785c7.497,0,11.241,2.19,18.004,8.785c6.806,6.636,10.6,8.856,18.179,8.856
					c7.576,0,11.37-2.22,18.173-8.854c6.764-6.596,10.508-8.786,18.005-8.786c7.495,0,11.238,2.19,17.999,8.783
					c6.806,6.637,10.601,8.857,18.18,8.857c7.579,0,11.374-2.22,18.178-8.856c6.762-6.595,10.506-8.785,18-8.785
					c7.499,0,11.245,2.191,18.008,8.785c6.807,6.636,10.601,8.856,18.179,8.856c7.583,0,11.379-2.22,18.188-8.856
					c6.766-6.595,10.512-8.785,18.013-8.785c7.499,0,11.244,2.19,18.009,8.785c6.807,6.636,10.603,8.856,18.183,8.856
					c7.586,0,11.385-2.22,18.196-8.856c6.769-6.595,10.516-8.785,18.018-8.785c7.505,0,11.253,2.191,18.021,8.785
					c6.812,6.636,10.609,8.856,18.193,8.856v-0.25c-7.502,0-11.249-2.19-18.016-8.783c-6.813-6.637-10.611-8.857-18.198-8.857
					c-7.584,0-11.381,2.22-18.191,8.854c-6.77,6.596-10.518,8.786-18.023,8.786c-7.499,0-11.244-2.19-18.009-8.785
					c-6.807-6.636-10.602-8.856-18.183-8.856c-7.583,0-11.379,2.22-18.188,8.856c-6.766,6.595-10.512,8.785-18.013,8.785
					c-7.497,0-11.241-2.19-18.003-8.783c-6.808-6.637-10.604-8.857-18.184-8.857c-7.576,0-11.37,2.22-18.173,8.854
					c-6.764,6.596-10.508,8.786-18.005,8.786c-7.498,0-11.242-2.191-18.004-8.785c-6.805-6.636-10.599-8.856-18.175-8.856
					c-7.579,0-11.374,2.22-18.178,8.856c-6.762,6.595-10.506,8.785-18,8.785c-7.497,0-11.241-2.19-18.004-8.785
					c-6.806-6.636-10.6-8.856-18.179-8.856c-7.581,0-11.376,2.22-18.183,8.856c-6.765,6.595-10.509,8.785-18.009,8.785
					c-7.497,0-11.241-2.19-18.004-8.785c-6.806-6.636-10.6-8.856-18.179-8.856c-7.576,0-11.37,2.22-18.173,8.854
					c-6.764,6.596-10.508,8.786-18.005,8.786c-7.495,0-11.238-2.19-17.999-8.783c-6.806-6.637-10.601-8.857-18.18-8.857
					c-7.579,0-11.373,2.22-18.179,8.856c-6.763,6.595-10.507,8.785-18.004,8.785c-7.498,0-11.242-2.191-18.004-8.785
					c-6.805-6.636-10.599-8.856-18.175-8.856c-7.577,0-11.371,2.22-18.174,8.856c-6.761,6.595-10.503,8.785-17.996,8.785
					c-7.495,0-11.238-2.19-17.999-8.783c-6.806-6.637-10.601-8.857-18.18-8.857c-7.575,0-11.368,2.22-18.17,8.856
					c-6.76,6.595-10.502,8.785-17.995,8.785c-7.496,0-11.239-2.191-17.999-8.785c-6.803-6.636-10.596-8.856-18.171-8.856
					c-7.575,0-11.368,2.22-18.17,8.856c-6.759,6.595-10.501,8.785-17.992,8.785c-7.496,0-11.238-2.19-18-8.785
					c-6.804-6.636-10.597-8.856-18.174-8.856V112.484z"/>
				<path fill="#1379D9" d="M761.343,131.624h-1.5c-8.362,0-12.521-2.736-19.239-9.281c-6.438-6.272-9.794-8.359-16.975-8.359
					c-7.178,0-10.533,2.087-16.972,8.359c-6.718,6.545-10.876,9.281-19.242,9.281c-8.359,0-12.516-2.736-19.23-9.281
					c-6.434-6.272-9.787-8.359-16.962-8.359c-7.177,0-10.531,2.087-16.967,8.359c-6.716,6.545-10.872,9.281-19.234,9.281
					c-8.356,0-12.512-2.736-19.226-9.281c-6.434-6.272-9.786-8.359-16.962-8.359c-7.171,0-10.522,2.087-16.953,8.359
					c-6.712,6.545-10.867,9.282-19.226,9.282s-12.514-2.737-19.227-9.284c-6.431-6.27-9.782-8.357-16.952-8.357
					c-7.174,0-10.525,2.087-16.958,8.36c-6.711,6.544-10.865,9.28-19.221,9.28c-8.358,0-12.513-2.736-19.226-9.282
					c-6.433-6.272-9.785-8.359-16.958-8.359c-7.174,0-10.527,2.087-16.962,8.359c-6.714,6.545-10.869,9.281-19.229,9.281
					c-8.357,0-12.513-2.736-19.226-9.282c-6.433-6.272-9.785-8.359-16.958-8.359c-7.17,0-10.521,2.087-16.953,8.359
					c-6.712,6.545-10.867,9.282-19.226,9.282c-8.356,0-12.51-2.736-19.222-9.282c-6.431-6.272-9.783-8.359-16.957-8.359
					c-7.173,0-10.525,2.087-16.957,8.359c-6.713,6.545-10.868,9.282-19.226,9.282c-8.359,0-12.514-2.737-19.228-9.284
					c-6.43-6.27-9.781-8.357-16.951-8.357c-7.171,0-10.523,2.087-16.954,8.36c-6.709,6.544-10.863,9.28-19.216,9.28
					c-8.355,0-12.51-2.736-19.223-9.282c-6.431-6.272-9.783-8.359-16.957-8.359c-7.168,0-10.519,2.087-16.948,8.359
					c-6.709,6.545-10.863,9.282-19.218,9.282c-8.357,0-12.511-2.737-19.223-9.284c-6.429-6.271-9.779-8.357-16.947-8.357
					c-7.169,0-10.52,2.087-16.949,8.36c-6.708,6.544-10.859,9.28-19.212,9.28c-8.356,0-12.511-2.736-19.222-9.282
					C10.522,116.07,7.17,113.983,0,113.983h-1.5v-3.25H0c8.356,0,12.51,2.736,19.222,9.282c6.43,6.271,9.782,8.358,16.953,8.358
					c7.167,0,10.517-2.087,16.944-8.358c6.709-6.546,10.862-9.282,19.217-9.282c8.354,0,12.508,2.736,19.218,9.282
					c6.429,6.271,9.78,8.358,16.952,8.358c7.169,0,10.52-2.087,16.948-8.358c6.71-6.546,10.863-9.282,19.217-9.282
					c8.359,0,12.514,2.737,19.228,9.284c6.43,6.271,9.781,8.357,16.952,8.357c7.168,0,10.519-2.087,16.949-8.358
					c6.71-6.546,10.864-9.282,19.221-9.282c8.356,0,12.51,2.736,19.222,9.282c6.431,6.271,9.783,8.358,16.957,8.358
					s10.525-2.087,16.957-8.358c6.713-6.546,10.869-9.282,19.226-9.282c8.359,0,12.514,2.737,19.228,9.284
					c6.43,6.271,9.781,8.357,16.951,8.357c7.174,0,10.526-2.087,16.958-8.36c6.711-6.545,10.865-9.281,19.221-9.281
					c8.358,0,12.513,2.736,19.227,9.282c6.432,6.272,9.784,8.359,16.957,8.359c7.176,0,10.528-2.087,16.962-8.359
					c6.714-6.545,10.87-9.282,19.229-9.282c8.358,0,12.514,2.736,19.227,9.282c6.432,6.272,9.784,8.359,16.957,8.359
					c7.171,0,10.522-2.087,16.954-8.358c6.711-6.546,10.865-9.282,19.225-9.282c8.355,0,12.51,2.736,19.222,9.282
					c6.431,6.271,9.783,8.358,16.957,8.358s10.526-2.087,16.959-8.36c6.71-6.545,10.863-9.281,19.22-9.281
					c8.36,0,12.517,2.737,19.231,9.283c6.432,6.271,9.784,8.357,16.956,8.357c7.178,0,10.531-2.087,16.967-8.359
					c6.716-6.545,10.873-9.282,19.234-9.282c8.359,0,12.516,2.736,19.23,9.282c6.434,6.272,9.786,8.359,16.962,8.359
					c7.182,0,10.537-2.087,16.976-8.36c6.718-6.544,10.876-9.28,19.238-9.28c8.366,0,12.524,2.737,19.244,9.283
					c6.437,6.271,9.791,8.357,16.97,8.357h1.5V131.624z"/>
			</g>
			<g>
				<path id="Stroke-11_1_" fill="#1379D9" d="M0,140.436c7.496,0,11.238,2.19,18,8.785c6.804,6.636,10.597,8.856,18.174,8.856
					c7.573,0,11.365-2.22,18.165-8.854c6.76-6.596,10.503-8.786,17.997-8.786c7.493,0,11.235,2.19,17.994,8.783
					c6.804,6.637,10.598,8.857,18.176,8.857c7.575,0,11.368-2.22,18.17-8.856c6.76-6.595,10.502-8.785,17.996-8.785
					c7.498,0,11.242,2.191,18.004,8.785c6.805,6.636,10.599,8.856,18.175,8.856c7.574,0,11.367-2.22,18.169-8.854
					c6.762-6.596,10.505-8.786,18.001-8.786c7.495,0,11.238,2.19,17.999,8.783c6.806,6.637,10.601,8.857,18.18,8.857
					c7.579,0,11.373-2.22,18.179-8.856c6.763-6.595,10.507-8.785,18.004-8.785c7.497,0,11.242,2.191,18.004,8.785
					c6.805,6.636,10.599,8.856,18.175,8.856c7.579,0,11.374-2.22,18.178-8.856c6.762-6.595,10.506-8.785,18-8.785
					c7.497,0,11.241,2.19,18.004,8.785c6.806,6.636,10.6,8.856,18.179,8.856c7.581,0,11.376-2.22,18.183-8.856
					c6.765-6.595,10.509-8.785,18.009-8.785c7.497,0,11.241,2.19,18.004,8.785c6.806,6.636,10.6,8.856,18.179,8.856
					c7.576,0,11.37-2.22,18.173-8.854c6.764-6.596,10.508-8.786,18.005-8.786c7.495,0,11.238,2.19,17.999,8.783
					c6.806,6.637,10.601,8.857,18.18,8.857c7.579,0,11.374-2.22,18.178-8.856c6.762-6.595,10.506-8.785,18-8.785
					c7.499,0,11.245,2.191,18.008,8.785c6.807,6.636,10.601,8.856,18.179,8.856c7.583,0,11.379-2.22,18.188-8.856
					c6.766-6.595,10.512-8.785,18.013-8.785c7.499,0,11.244,2.19,18.009,8.785c6.807,6.636,10.603,8.856,18.183,8.856
					c7.586,0,11.385-2.22,18.196-8.856c6.769-6.595,10.516-8.785,18.018-8.785c7.505,0,11.253,2.191,18.021,8.785
					c6.812,6.636,10.609,8.856,18.193,8.856v-0.25c-7.502,0-11.249-2.19-18.016-8.783c-6.813-6.637-10.611-8.857-18.198-8.857
					c-7.584,0-11.381,2.22-18.191,8.854c-6.77,6.596-10.518,8.786-18.023,8.786c-7.499,0-11.244-2.19-18.009-8.785
					c-6.807-6.636-10.602-8.856-18.183-8.856c-7.583,0-11.379,2.22-18.188,8.856c-6.766,6.595-10.512,8.785-18.013,8.785
					c-7.497,0-11.241-2.19-18.003-8.783c-6.808-6.637-10.604-8.857-18.184-8.857c-7.576,0-11.37,2.22-18.173,8.854
					c-6.764,6.596-10.508,8.786-18.005,8.786c-7.498,0-11.242-2.191-18.004-8.785c-6.805-6.636-10.599-8.856-18.175-8.856
					c-7.579,0-11.374,2.22-18.178,8.856c-6.762,6.595-10.506,8.785-18,8.785c-7.497,0-11.241-2.19-18.004-8.785
					c-6.806-6.636-10.6-8.856-18.179-8.856c-7.581,0-11.376,2.22-18.183,8.856c-6.765,6.595-10.509,8.785-18.009,8.785
					c-7.497,0-11.241-2.19-18.004-8.785c-6.806-6.636-10.6-8.856-18.179-8.856c-7.576,0-11.37,2.22-18.173,8.854
					c-6.764,6.596-10.508,8.786-18.005,8.786c-7.495,0-11.238-2.19-17.999-8.783c-6.806-6.637-10.601-8.857-18.18-8.857
					c-7.579,0-11.373,2.22-18.179,8.856c-6.763,6.595-10.507,8.785-18.004,8.785c-7.498,0-11.242-2.191-18.004-8.785
					c-6.805-6.636-10.599-8.856-18.175-8.856c-7.577,0-11.371,2.22-18.174,8.856c-6.761,6.595-10.503,8.785-17.996,8.785
					c-7.495,0-11.238-2.19-17.999-8.783c-6.806-6.637-10.601-8.857-18.18-8.857c-7.575,0-11.368,2.22-18.17,8.856
					c-6.76,6.595-10.502,8.785-17.995,8.785c-7.496,0-11.239-2.191-17.999-8.785c-6.803-6.636-10.596-8.856-18.171-8.856
					c-7.575,0-11.368,2.22-18.17,8.856c-6.759,6.595-10.501,8.785-17.992,8.785c-7.496,0-11.238-2.19-18-8.785
					c-6.804-6.636-10.597-8.856-18.174-8.856V140.436z"/>
				<path fill="#1379D9" d="M761.343,159.576h-1.5c-8.362,0-12.521-2.736-19.239-9.281c-6.438-6.272-9.794-8.359-16.975-8.359
					c-7.178,0-10.533,2.087-16.972,8.359c-6.718,6.545-10.876,9.281-19.242,9.281c-8.359,0-12.516-2.736-19.23-9.281
					c-6.434-6.272-9.787-8.359-16.962-8.359c-7.177,0-10.531,2.087-16.967,8.359c-6.716,6.545-10.872,9.281-19.234,9.281
					c-8.356,0-12.512-2.736-19.226-9.281c-6.434-6.272-9.786-8.359-16.962-8.359c-7.171,0-10.522,2.087-16.953,8.359
					c-6.712,6.545-10.866,9.281-19.226,9.281s-12.515-2.736-19.227-9.283c-6.431-6.271-9.782-8.357-16.952-8.357
					c-7.174,0-10.525,2.087-16.958,8.36c-6.711,6.545-10.865,9.28-19.221,9.28c-8.358,0-12.513-2.736-19.226-9.281
					c-6.433-6.272-9.785-8.359-16.958-8.359c-7.174,0-10.527,2.087-16.962,8.359c-6.714,6.545-10.869,9.281-19.229,9.281
					c-8.357,0-12.513-2.736-19.226-9.281c-6.433-6.272-9.785-8.359-16.958-8.359c-7.17,0-10.521,2.087-16.953,8.359
					c-6.711,6.545-10.866,9.281-19.226,9.281c-8.356,0-12.51-2.736-19.222-9.281c-6.431-6.272-9.783-8.359-16.957-8.359
					c-7.173,0-10.525,2.087-16.957,8.359c-6.713,6.545-10.868,9.281-19.226,9.281c-8.359,0-12.515-2.736-19.228-9.283
					c-6.43-6.271-9.781-8.357-16.951-8.357c-7.171,0-10.523,2.087-16.954,8.36c-6.709,6.545-10.863,9.28-19.216,9.28
					c-8.355,0-12.51-2.736-19.223-9.281c-6.431-6.272-9.783-8.359-16.957-8.359c-7.168,0-10.519,2.087-16.948,8.358
					c-6.709,6.546-10.863,9.282-19.218,9.282c-8.357,0-12.512-2.736-19.223-9.284c-6.429-6.27-9.779-8.356-16.947-8.356
					c-7.169,0-10.52,2.087-16.949,8.36c-6.708,6.545-10.859,9.28-19.212,9.28c-8.356,0-12.511-2.736-19.222-9.281
					c-6.431-6.272-9.782-8.359-16.953-8.359h-1.5v-3.25H0c8.356,0,12.51,2.736,19.222,9.282c6.431,6.271,9.782,8.358,16.953,8.358
					c7.167,0,10.517-2.087,16.944-8.358c6.709-6.546,10.862-9.282,19.217-9.282c8.354,0,12.508,2.736,19.218,9.282
					c6.429,6.271,9.78,8.358,16.952,8.358c7.169,0,10.52-2.087,16.948-8.358c6.71-6.546,10.863-9.282,19.217-9.282
					c8.359,0,12.514,2.737,19.228,9.284c6.429,6.27,9.78,8.357,16.952,8.357c7.169,0,10.52-2.087,16.949-8.358
					c6.71-6.546,10.864-9.282,19.221-9.282c8.356,0,12.51,2.736,19.222,9.282c6.431,6.271,9.783,8.358,16.957,8.358
					c7.173,0,10.525-2.087,16.957-8.359c6.713-6.545,10.869-9.282,19.226-9.282c8.359,0,12.514,2.737,19.228,9.284
					c6.429,6.27,9.78,8.357,16.951,8.357c7.174,0,10.526-2.088,16.958-8.36c6.711-6.545,10.865-9.281,19.221-9.281
					c8.358,0,12.513,2.736,19.227,9.282c6.432,6.272,9.784,8.359,16.957,8.359c7.175,0,10.528-2.087,16.962-8.359
					c6.714-6.545,10.87-9.282,19.229-9.282c8.358,0,12.514,2.736,19.227,9.282c6.433,6.272,9.784,8.359,16.957,8.359
					c7.171,0,10.522-2.087,16.954-8.358c6.711-6.546,10.865-9.282,19.225-9.282c8.355,0,12.51,2.736,19.222,9.282
					c6.431,6.271,9.783,8.358,16.957,8.358s10.526-2.088,16.959-8.36c6.71-6.545,10.863-9.281,19.22-9.281
					c8.36,0,12.517,2.737,19.231,9.283c6.433,6.271,9.784,8.357,16.956,8.357c7.177,0,10.531-2.087,16.967-8.359
					c6.716-6.545,10.873-9.282,19.234-9.282c8.359,0,12.516,2.736,19.23,9.282c6.434,6.272,9.787,8.359,16.962,8.359
					c7.182,0,10.537-2.088,16.976-8.36c6.718-6.544,10.876-9.28,19.238-9.28c8.366,0,12.524,2.737,19.244,9.283
					c6.437,6.271,9.792,8.357,16.97,8.357h1.5V159.576z"/>
			</g>
			<g>
				<path id="Stroke-13_1_" fill="#1379D9" d="M0,168.387c7.496,0,11.238,2.19,18,8.785c6.804,6.636,10.597,8.856,18.174,8.856
					c7.573,0,11.365-2.22,18.165-8.854c6.76-6.596,10.503-8.786,17.997-8.786c7.493,0,11.235,2.19,17.994,8.783
					c6.804,6.637,10.598,8.857,18.176,8.857c7.575,0,11.368-2.22,18.17-8.856c6.76-6.595,10.502-8.785,17.996-8.785
					c7.498,0,11.242,2.191,18.004,8.785c6.805,6.636,10.599,8.856,18.175,8.856c7.574,0,11.367-2.22,18.169-8.854
					c6.762-6.596,10.505-8.786,18.001-8.786c7.495,0,11.238,2.19,17.999,8.783c6.806,6.637,10.601,8.857,18.18,8.857
					c7.579,0,11.373-2.22,18.179-8.856c6.763-6.595,10.507-8.785,18.004-8.785c7.497,0,11.242,2.191,18.004,8.785
					c6.805,6.636,10.599,8.856,18.175,8.856c7.579,0,11.374-2.22,18.178-8.856c6.762-6.595,10.506-8.785,18-8.785
					c7.497,0,11.241,2.19,18.004,8.785c6.806,6.636,10.6,8.856,18.179,8.856c7.581,0,11.376-2.22,18.183-8.856
					c6.765-6.595,10.509-8.785,18.009-8.785c7.497,0,11.241,2.19,18.004,8.785c6.806,6.636,10.6,8.856,18.179,8.856
					c7.576,0,11.37-2.22,18.173-8.854c6.764-6.596,10.508-8.786,18.005-8.786c7.495,0,11.238,2.19,17.999,8.783
					c6.806,6.637,10.601,8.857,18.18,8.857c7.579,0,11.374-2.22,18.178-8.856c6.762-6.595,10.506-8.785,18-8.785
					c7.499,0,11.245,2.191,18.008,8.785c6.807,6.636,10.601,8.856,18.179,8.856c7.583,0,11.379-2.22,18.188-8.856
					c6.766-6.595,10.512-8.785,18.013-8.785c7.499,0,11.244,2.19,18.009,8.785c6.807,6.636,10.603,8.856,18.183,8.856
					c7.586,0,11.385-2.22,18.196-8.856c6.769-6.595,10.516-8.785,18.018-8.785c7.505,0,11.253,2.191,18.021,8.785
					c6.812,6.636,10.609,8.856,18.193,8.856v-0.25c-7.502,0-11.249-2.19-18.016-8.783c-6.813-6.637-10.611-8.857-18.198-8.857
					c-7.584,0-11.381,2.22-18.191,8.854c-6.77,6.596-10.518,8.786-18.023,8.786c-7.499,0-11.244-2.19-18.009-8.785
					c-6.807-6.636-10.602-8.856-18.183-8.856c-7.583,0-11.379,2.22-18.188,8.856c-6.766,6.595-10.512,8.785-18.013,8.785
					c-7.497,0-11.241-2.19-18.003-8.783c-6.808-6.637-10.604-8.857-18.184-8.857c-7.576,0-11.37,2.22-18.173,8.854
					c-6.764,6.596-10.508,8.786-18.005,8.786c-7.498,0-11.242-2.191-18.004-8.785c-6.805-6.636-10.599-8.856-18.175-8.856
					c-7.579,0-11.374,2.22-18.178,8.856c-6.762,6.595-10.506,8.785-18,8.785c-7.497,0-11.241-2.19-18.004-8.785
					c-6.806-6.636-10.6-8.856-18.179-8.856c-7.581,0-11.376,2.22-18.183,8.856c-6.765,6.595-10.509,8.785-18.009,8.785
					c-7.497,0-11.241-2.19-18.004-8.785c-6.806-6.636-10.6-8.856-18.179-8.856c-7.576,0-11.37,2.22-18.173,8.854
					c-6.764,6.596-10.508,8.786-18.005,8.786c-7.495,0-11.238-2.19-17.999-8.783c-6.806-6.637-10.601-8.857-18.18-8.857
					c-7.579,0-11.373,2.22-18.179,8.856c-6.763,6.595-10.507,8.785-18.004,8.785c-7.498,0-11.242-2.191-18.004-8.785
					c-6.805-6.636-10.599-8.856-18.175-8.856c-7.577,0-11.371,2.22-18.174,8.856c-6.761,6.595-10.503,8.785-17.996,8.785
					c-7.495,0-11.238-2.19-17.999-8.783c-6.806-6.637-10.601-8.857-18.18-8.857c-7.575,0-11.368,2.22-18.17,8.856
					c-6.76,6.595-10.502,8.785-17.995,8.785c-7.496,0-11.239-2.191-17.999-8.785c-6.803-6.636-10.596-8.856-18.171-8.856
					c-7.575,0-11.368,2.22-18.17,8.856c-6.759,6.595-10.501,8.785-17.992,8.785c-7.496,0-11.238-2.19-18-8.785
					c-6.804-6.636-10.597-8.856-18.174-8.856V168.387z"/>
				<path fill="#1379D9" d="M761.343,187.528h-1.5c-8.363,0-12.521-2.736-19.239-9.282c-6.438-6.271-9.793-8.358-16.975-8.358
					c-7.179,0-10.534,2.087-16.972,8.358c-6.719,6.546-10.877,9.282-19.242,9.282c-8.36,0-12.517-2.736-19.23-9.282
					c-6.434-6.271-9.787-8.358-16.962-8.358c-7.177,0-10.531,2.087-16.967,8.358c-6.715,6.546-10.872,9.282-19.234,9.282
					c-8.357,0-12.513-2.736-19.226-9.282c-6.434-6.271-9.786-8.358-16.962-8.358c-7.172,0-10.522,2.087-16.953,8.358
					c-6.712,6.546-10.867,9.282-19.226,9.282s-12.514-2.736-19.227-9.283c-6.43-6.271-9.78-8.357-16.952-8.357
					c-7.174,0-10.526,2.088-16.958,8.36c-6.711,6.544-10.865,9.28-19.221,9.28c-8.358,0-12.514-2.736-19.226-9.282
					c-6.433-6.271-9.785-8.358-16.958-8.358c-7.174,0-10.527,2.087-16.962,8.358c-6.713,6.546-10.869,9.282-19.229,9.282
					c-8.358,0-12.514-2.736-19.227-9.282c-6.432-6.271-9.785-8.358-16.957-8.358c-7.171,0-10.522,2.087-16.953,8.358
					c-6.712,6.546-10.867,9.282-19.226,9.282c-8.356,0-12.51-2.736-19.222-9.282c-6.431-6.271-9.783-8.358-16.957-8.358
					c-7.172,0-10.525,2.087-16.957,8.358c-6.713,6.546-10.868,9.282-19.226,9.282c-8.358,0-12.514-2.736-19.228-9.283
					c-6.429-6.271-9.78-8.357-16.951-8.357c-7.172,0-10.523,2.087-16.954,8.36c-6.709,6.544-10.862,9.28-19.216,9.28
					c-8.356,0-12.51-2.736-19.223-9.282c-6.431-6.271-9.783-8.358-16.957-8.358c-7.168,0-10.519,2.087-16.948,8.358
					c-6.709,6.546-10.863,9.282-19.218,9.282c-8.356,0-12.511-2.736-19.223-9.283c-6.428-6.271-9.778-8.357-16.947-8.357
					s-10.52,2.087-16.949,8.359c-6.708,6.545-10.859,9.281-19.212,9.281c-8.357,0-12.511-2.736-19.222-9.282
					c-6.431-6.271-9.782-8.358-16.953-8.358h-1.5v-3.25H0c8.356,0,12.511,2.736,19.222,9.281c6.431,6.272,9.782,8.359,16.953,8.359
					c7.166,0,10.516-2.087,16.944-8.358c6.708-6.546,10.861-9.282,19.217-9.282c8.354,0,12.508,2.736,19.218,9.281
					c6.429,6.272,9.78,8.359,16.952,8.359c7.169,0,10.52-2.087,16.948-8.358c6.709-6.546,10.863-9.282,19.217-9.282
					c8.359,0,12.515,2.736,19.228,9.283c6.43,6.271,9.781,8.357,16.952,8.357c7.168,0,10.519-2.087,16.949-8.359
					c6.709-6.545,10.863-9.281,19.221-9.281c8.356,0,12.51,2.736,19.222,9.281c6.432,6.272,9.784,8.359,16.957,8.359
					c7.173,0,10.525-2.087,16.957-8.359c6.713-6.545,10.868-9.281,19.226-9.281c8.359,0,12.515,2.736,19.228,9.283
					c6.43,6.271,9.781,8.357,16.951,8.357c7.173,0,10.525-2.088,16.958-8.361c6.711-6.544,10.865-9.279,19.221-9.279
					c8.358,0,12.514,2.736,19.227,9.281c6.432,6.272,9.784,8.359,16.957,8.359c7.175,0,10.528-2.087,16.962-8.359
					c6.714-6.545,10.869-9.281,19.229-9.281c8.358,0,12.514,2.736,19.227,9.281c6.432,6.272,9.784,8.359,16.957,8.359
					c7.17,0,10.522-2.087,16.954-8.359c6.711-6.545,10.865-9.281,19.225-9.281c8.355,0,12.51,2.736,19.222,9.281
					c6.432,6.272,9.784,8.359,16.957,8.359s10.525-2.088,16.959-8.361c6.71-6.544,10.864-9.279,19.22-9.279
					c8.361,0,12.518,2.736,19.231,9.283c6.433,6.271,9.784,8.357,16.956,8.357c7.177,0,10.531-2.087,16.967-8.359
					c6.716-6.545,10.872-9.281,19.234-9.281c8.359,0,12.516,2.736,19.23,9.281c6.434,6.272,9.787,8.359,16.962,8.359
					c7.181,0,10.537-2.088,16.976-8.361c6.718-6.544,10.876-9.279,19.238-9.279c8.366,0,12.525,2.736,19.244,9.283
					c6.437,6.271,9.792,8.357,16.97,8.357h1.5V187.528z"/>
			</g>
			<g>
				<path id="Stroke-15_1_" fill="#1379D9" d="M0,196.339c7.496,0,11.238,2.19,18,8.785c6.804,6.636,10.597,8.856,18.174,8.856
					c7.573,0,11.365-2.22,18.165-8.854c6.76-6.596,10.503-8.786,17.997-8.786c7.493,0,11.235,2.19,17.994,8.783
					c6.804,6.637,10.598,8.857,18.176,8.857c7.575,0,11.368-2.22,18.17-8.856c6.76-6.595,10.502-8.785,17.996-8.785
					c7.498,0,11.242,2.191,18.004,8.785c6.805,6.636,10.599,8.856,18.175,8.856c7.574,0,11.367-2.22,18.169-8.854
					c6.762-6.596,10.505-8.786,18.001-8.786c7.495,0,11.238,2.19,17.999,8.783c6.806,6.637,10.601,8.857,18.18,8.857
					c7.579,0,11.373-2.22,18.179-8.856c6.763-6.595,10.507-8.785,18.004-8.785c7.497,0,11.242,2.191,18.004,8.785
					c6.805,6.636,10.599,8.856,18.175,8.856c7.579,0,11.374-2.22,18.178-8.856c6.762-6.595,10.506-8.785,18-8.785
					c7.497,0,11.241,2.19,18.004,8.785c6.806,6.636,10.6,8.856,18.179,8.856c7.581,0,11.376-2.22,18.183-8.856
					c6.765-6.595,10.509-8.785,18.009-8.785c7.497,0,11.241,2.19,18.004,8.785c6.806,6.636,10.6,8.856,18.179,8.856
					c7.576,0,11.37-2.22,18.173-8.854c6.764-6.596,10.508-8.786,18.005-8.786c7.495,0,11.238,2.19,17.999,8.783
					c6.806,6.637,10.601,8.857,18.18,8.857c7.579,0,11.374-2.22,18.178-8.856c6.762-6.595,10.506-8.785,18-8.785
					c7.499,0,11.245,2.191,18.008,8.785c6.807,6.636,10.601,8.856,18.179,8.856c7.583,0,11.379-2.22,18.188-8.856
					c6.766-6.595,10.512-8.785,18.013-8.785c7.499,0,11.244,2.19,18.009,8.785c6.807,6.636,10.603,8.856,18.183,8.856
					c7.586,0,11.385-2.22,18.196-8.856c6.769-6.595,10.516-8.785,18.018-8.785c7.505,0,11.253,2.191,18.021,8.785
					c6.812,6.636,10.609,8.856,18.193,8.856v-0.25c-7.502,0-11.249-2.19-18.016-8.783c-6.813-6.637-10.611-8.857-18.198-8.857
					c-7.584,0-11.381,2.22-18.191,8.854c-6.77,6.596-10.518,8.786-18.023,8.786c-7.499,0-11.244-2.19-18.009-8.785
					c-6.807-6.636-10.602-8.856-18.183-8.856c-7.583,0-11.379,2.22-18.188,8.856c-6.766,6.595-10.512,8.785-18.013,8.785
					c-7.497,0-11.241-2.19-18.003-8.783c-6.808-6.637-10.604-8.857-18.184-8.857c-7.576,0-11.37,2.22-18.173,8.854
					c-6.764,6.596-10.508,8.786-18.005,8.786c-7.498,0-11.242-2.191-18.004-8.785c-6.805-6.636-10.599-8.856-18.175-8.856
					c-7.579,0-11.374,2.22-18.178,8.856c-6.762,6.595-10.506,8.785-18,8.785c-7.497,0-11.241-2.19-18.004-8.785
					c-6.806-6.636-10.6-8.856-18.179-8.856c-7.581,0-11.376,2.22-18.183,8.856c-6.765,6.595-10.509,8.785-18.009,8.785
					c-7.497,0-11.241-2.19-18.004-8.785c-6.806-6.636-10.6-8.856-18.179-8.856c-7.576,0-11.37,2.22-18.173,8.854
					c-6.764,6.596-10.508,8.786-18.005,8.786c-7.495,0-11.238-2.19-17.999-8.783c-6.806-6.637-10.601-8.857-18.18-8.857
					c-7.579,0-11.373,2.22-18.179,8.856c-6.763,6.595-10.507,8.785-18.004,8.785c-7.498,0-11.242-2.191-18.004-8.785
					c-6.805-6.636-10.599-8.856-18.175-8.856c-7.577,0-11.371,2.22-18.174,8.856c-6.761,6.595-10.503,8.785-17.996,8.785
					c-7.495,0-11.238-2.19-17.999-8.783c-6.806-6.637-10.601-8.857-18.18-8.857c-7.575,0-11.368,2.22-18.17,8.856
					c-6.76,6.595-10.502,8.785-17.995,8.785c-7.496,0-11.239-2.191-17.999-8.785c-6.803-6.636-10.596-8.856-18.171-8.856
					c-7.575,0-11.368,2.22-18.17,8.856c-6.759,6.595-10.501,8.785-17.992,8.785c-7.496,0-11.238-2.19-18-8.785
					c-6.804-6.636-10.597-8.856-18.174-8.856V196.339z"/>
				<path fill="#1379D9" d="M761.343,215.479h-1.5c-8.362,0-12.521-2.736-19.239-9.281c-6.438-6.272-9.794-8.359-16.975-8.359
					c-7.178,0-10.533,2.087-16.972,8.359c-6.718,6.545-10.876,9.281-19.242,9.281c-8.359,0-12.516-2.736-19.23-9.281
					c-6.434-6.272-9.787-8.359-16.962-8.359c-7.177,0-10.531,2.087-16.967,8.359c-6.716,6.545-10.872,9.281-19.234,9.281
					c-8.356,0-12.512-2.736-19.226-9.281c-6.433-6.272-9.786-8.359-16.962-8.359c-7.171,0-10.522,2.087-16.953,8.359
					c-6.712,6.545-10.866,9.281-19.226,9.281s-12.515-2.736-19.227-9.283c-6.431-6.271-9.782-8.357-16.952-8.357
					c-7.174,0-10.526,2.088-16.957,8.361c-6.712,6.544-10.866,9.279-19.222,9.279c-8.358,0-12.513-2.736-19.226-9.281
					c-6.433-6.272-9.785-8.359-16.958-8.359c-7.174,0-10.527,2.087-16.962,8.359c-6.714,6.545-10.869,9.281-19.229,9.281
					c-8.357,0-12.513-2.736-19.226-9.281c-6.433-6.272-9.785-8.359-16.958-8.359c-7.17,0-10.521,2.087-16.953,8.359
					c-6.711,6.545-10.866,9.281-19.226,9.281c-8.356,0-12.51-2.736-19.222-9.281c-6.431-6.272-9.783-8.359-16.957-8.359
					c-7.173,0-10.525,2.087-16.957,8.359c-6.713,6.545-10.868,9.281-19.226,9.281c-8.359,0-12.515-2.736-19.228-9.283
					c-6.43-6.271-9.781-8.357-16.951-8.357c-7.172,0-10.523,2.088-16.954,8.36c-6.71,6.545-10.863,9.28-19.216,9.28
					c-8.355,0-12.51-2.736-19.223-9.281c-6.431-6.272-9.783-8.359-16.957-8.359c-7.168,0-10.519,2.087-16.948,8.358
					c-6.709,6.546-10.863,9.282-19.218,9.282c-8.357,0-12.512-2.736-19.223-9.284c-6.429-6.27-9.779-8.356-16.947-8.356
					c-7.169,0-10.521,2.088-16.949,8.36c-6.708,6.545-10.86,9.28-19.212,9.28c-8.356,0-12.511-2.736-19.222-9.281
					c-6.431-6.272-9.782-8.359-16.953-8.359h-1.5v-3.25H0c8.357,0,12.511,2.736,19.222,9.282c6.431,6.271,9.782,8.358,16.953,8.358
					c7.167,0,10.517-2.087,16.944-8.357c6.709-6.547,10.862-9.283,19.217-9.283s12.508,2.736,19.218,9.282
					c6.429,6.271,9.781,8.358,16.952,8.358c7.168,0,10.519-2.087,16.948-8.358c6.709-6.546,10.862-9.282,19.217-9.282
					c8.358,0,12.514,2.736,19.228,9.283c6.429,6.271,9.78,8.357,16.952,8.357c7.168,0,10.52-2.087,16.949-8.358
					c6.71-6.546,10.864-9.282,19.221-9.282c8.356,0,12.51,2.736,19.222,9.282c6.431,6.271,9.783,8.358,16.957,8.358
					c7.172,0,10.525-2.087,16.957-8.358c6.713-6.546,10.868-9.282,19.226-9.282c8.358,0,12.514,2.736,19.228,9.283
					c6.429,6.271,9.78,8.357,16.951,8.357c7.174,0,10.526-2.088,16.958-8.36c6.711-6.544,10.865-9.28,19.221-9.28
					c8.359,0,12.514,2.736,19.227,9.282c6.433,6.271,9.784,8.358,16.957,8.358c7.175,0,10.528-2.087,16.962-8.358
					c6.713-6.546,10.869-9.282,19.229-9.282c8.359,0,12.515,2.736,19.227,9.282c6.433,6.271,9.784,8.358,16.957,8.358
					c7.171,0,10.522-2.087,16.954-8.358c6.712-6.546,10.866-9.282,19.225-9.282c8.356,0,12.511,2.736,19.222,9.282
					c6.432,6.271,9.783,8.358,16.957,8.358s10.526-2.088,16.959-8.36c6.71-6.544,10.863-9.28,19.22-9.28
					c8.36,0,12.517,2.736,19.231,9.283c6.432,6.271,9.783,8.357,16.956,8.357c7.177,0,10.531-2.087,16.967-8.358
					c6.715-6.546,10.872-9.282,19.234-9.282c8.36,0,12.517,2.736,19.23,9.282c6.434,6.271,9.787,8.358,16.962,8.358
					c7.182,0,10.537-2.088,16.976-8.36c6.718-6.545,10.876-9.28,19.238-9.28c8.365,0,12.524,2.736,19.244,9.283
					c6.437,6.271,9.791,8.357,16.97,8.357h1.5V215.479z"/>
			</g>
			<g>
				<path id="Stroke-17_1_" fill="#1379D9" d="M0,224.291c7.496,0,11.238,2.19,18,8.785c6.804,6.636,10.597,8.856,18.174,8.856
					c7.573,0,11.365-2.22,18.165-8.854c6.76-6.596,10.503-8.786,17.997-8.786c7.493,0,11.235,2.19,17.994,8.783
					c6.804,6.637,10.598,8.857,18.176,8.857c7.575,0,11.368-2.22,18.17-8.856c6.76-6.595,10.502-8.785,17.996-8.785
					c7.498,0,11.242,2.191,18.004,8.785c6.805,6.636,10.599,8.856,18.175,8.856c7.574,0,11.367-2.22,18.169-8.854
					c6.762-6.596,10.505-8.786,18.001-8.786c7.495,0,11.238,2.19,17.999,8.783c6.806,6.637,10.601,8.857,18.18,8.857
					c7.579,0,11.373-2.22,18.179-8.856c6.763-6.595,10.507-8.785,18.004-8.785c7.497,0,11.242,2.191,18.004,8.785
					c6.805,6.636,10.599,8.856,18.175,8.856c7.579,0,11.374-2.22,18.178-8.856c6.762-6.595,10.506-8.785,18-8.785
					c7.497,0,11.241,2.19,18.004,8.785c6.806,6.636,10.6,8.856,18.179,8.856c7.581,0,11.376-2.22,18.183-8.856
					c6.765-6.595,10.509-8.785,18.009-8.785c7.497,0,11.241,2.19,18.004,8.785c6.806,6.636,10.6,8.856,18.179,8.856
					c7.576,0,11.37-2.22,18.173-8.854c6.764-6.596,10.508-8.786,18.005-8.786c7.495,0,11.238,2.19,17.999,8.783
					c6.806,6.637,10.601,8.857,18.18,8.857c7.579,0,11.374-2.22,18.178-8.856c6.762-6.595,10.506-8.785,18-8.785
					c7.499,0,11.245,2.191,18.008,8.785c6.807,6.636,10.601,8.856,18.179,8.856c7.583,0,11.379-2.22,18.188-8.856
					c6.766-6.595,10.512-8.785,18.013-8.785c7.499,0,11.244,2.19,18.009,8.785c6.807,6.636,10.603,8.856,18.183,8.856
					c7.586,0,11.385-2.22,18.196-8.856c6.769-6.595,10.516-8.785,18.018-8.785c7.505,0,11.253,2.191,18.021,8.785
					c6.812,6.636,10.609,8.856,18.193,8.856v-0.25c-7.502,0-11.249-2.19-18.016-8.783c-6.813-6.637-10.611-8.857-18.198-8.857
					c-7.584,0-11.381,2.22-18.191,8.854c-6.77,6.596-10.518,8.786-18.023,8.786c-7.499,0-11.244-2.19-18.009-8.785
					c-6.807-6.636-10.602-8.856-18.183-8.856c-7.583,0-11.379,2.22-18.188,8.856c-6.766,6.595-10.512,8.785-18.013,8.785
					c-7.497,0-11.241-2.19-18.003-8.783c-6.808-6.637-10.604-8.857-18.184-8.857c-7.576,0-11.37,2.22-18.173,8.854
					c-6.764,6.596-10.508,8.786-18.005,8.786c-7.498,0-11.242-2.191-18.004-8.785c-6.805-6.636-10.599-8.856-18.175-8.856
					c-7.579,0-11.374,2.22-18.178,8.856c-6.762,6.595-10.506,8.785-18,8.785c-7.497,0-11.241-2.19-18.004-8.785
					c-6.806-6.636-10.6-8.856-18.179-8.856c-7.581,0-11.376,2.22-18.183,8.856c-6.765,6.595-10.509,8.785-18.009,8.785
					c-7.497,0-11.241-2.19-18.004-8.785c-6.806-6.636-10.6-8.856-18.179-8.856c-7.576,0-11.37,2.22-18.173,8.854
					c-6.764,6.596-10.508,8.786-18.005,8.786c-7.495,0-11.238-2.19-17.999-8.783c-6.806-6.637-10.601-8.857-18.18-8.857
					c-7.579,0-11.373,2.22-18.179,8.856c-6.763,6.595-10.507,8.785-18.004,8.785c-7.498,0-11.242-2.191-18.004-8.785
					c-6.805-6.636-10.599-8.856-18.175-8.856c-7.577,0-11.371,2.22-18.174,8.856c-6.761,6.595-10.503,8.785-17.996,8.785
					c-7.495,0-11.238-2.19-17.999-8.783c-6.806-6.637-10.601-8.857-18.18-8.857c-7.575,0-11.368,2.22-18.17,8.856
					c-6.76,6.595-10.502,8.785-17.995,8.785c-7.496,0-11.239-2.191-17.999-8.785c-6.803-6.636-10.596-8.856-18.171-8.856
					c-7.575,0-11.368,2.22-18.17,8.856c-6.759,6.595-10.501,8.785-17.992,8.785c-7.496,0-11.238-2.19-18-8.785
					c-6.804-6.636-10.597-8.856-18.174-8.856V224.291z"/>
				<path fill="#1379D9" d="M761.343,243.432h-1.5c-8.362,0-12.521-2.736-19.239-9.281c-6.438-6.272-9.793-8.359-16.975-8.359
					c-7.178,0-10.533,2.087-16.972,8.359c-6.719,6.545-10.877,9.281-19.242,9.281c-8.36,0-12.517-2.736-19.23-9.282
					c-6.434-6.271-9.787-8.358-16.962-8.358c-7.177,0-10.531,2.087-16.967,8.358c-6.715,6.546-10.872,9.282-19.234,9.282
					c-8.357,0-12.513-2.736-19.226-9.282c-6.434-6.271-9.786-8.358-16.962-8.358c-7.172,0-10.522,2.087-16.953,8.358
					c-6.712,6.546-10.867,9.282-19.226,9.282s-12.514-2.736-19.227-9.283c-6.43-6.271-9.78-8.357-16.952-8.357
					c-7.174,0-10.526,2.088-16.958,8.36c-6.711,6.544-10.865,9.28-19.221,9.28c-8.358,0-12.514-2.736-19.226-9.282
					c-6.433-6.271-9.785-8.358-16.958-8.358c-7.174,0-10.527,2.087-16.962,8.358c-6.713,6.546-10.869,9.282-19.229,9.282
					c-8.358,0-12.514-2.736-19.227-9.282c-6.432-6.271-9.785-8.358-16.957-8.358c-7.171,0-10.522,2.087-16.953,8.358
					c-6.712,6.546-10.867,9.282-19.226,9.282c-8.356,0-12.51-2.736-19.222-9.282c-6.431-6.271-9.783-8.358-16.957-8.358
					c-7.172,0-10.525,2.087-16.957,8.358c-6.713,6.546-10.868,9.282-19.226,9.282c-8.358,0-12.514-2.736-19.228-9.283
					c-6.429-6.271-9.78-8.357-16.951-8.357c-7.172,0-10.523,2.087-16.954,8.36c-6.709,6.544-10.862,9.28-19.216,9.28
					c-8.356,0-12.51-2.736-19.223-9.282c-6.431-6.271-9.783-8.358-16.957-8.358c-7.168,0-10.519,2.087-16.948,8.358
					c-6.709,6.546-10.863,9.282-19.218,9.282c-8.356,0-12.511-2.736-19.223-9.283c-6.428-6.271-9.778-8.357-16.947-8.357
					s-10.52,2.087-16.949,8.359c-6.708,6.545-10.859,9.281-19.212,9.281c-8.357,0-12.511-2.736-19.222-9.282
					c-6.431-6.271-9.782-8.358-16.953-8.358h-1.5v-3.25H0c8.356,0,12.511,2.736,19.222,9.281c6.431,6.272,9.782,8.359,16.953,8.359
					c7.166,0,10.516-2.087,16.944-8.358c6.708-6.546,10.861-9.282,19.217-9.282c8.354,0,12.508,2.736,19.218,9.281
					c6.429,6.272,9.78,8.359,16.952,8.359c7.169,0,10.52-2.087,16.948-8.358c6.709-6.546,10.863-9.282,19.217-9.282
					c8.359,0,12.515,2.736,19.228,9.283c6.43,6.271,9.781,8.357,16.952,8.357c7.168,0,10.519-2.087,16.949-8.359
					c6.709-6.545,10.863-9.281,19.221-9.281c8.356,0,12.51,2.736,19.222,9.281c6.431,6.272,9.783,8.359,16.957,8.359
					c7.173,0,10.525-2.087,16.957-8.359c6.713-6.545,10.868-9.281,19.226-9.281c8.359,0,12.515,2.736,19.228,9.283
					c6.43,6.271,9.781,8.357,16.951,8.357c7.174,0,10.526-2.088,16.958-8.36c6.711-6.544,10.865-9.28,19.221-9.28
					c8.358,0,12.514,2.736,19.227,9.281c6.432,6.272,9.784,8.359,16.957,8.359c7.175,0,10.528-2.087,16.962-8.359
					c6.714-6.545,10.869-9.281,19.229-9.281c8.358,0,12.514,2.736,19.227,9.281c6.432,6.272,9.784,8.359,16.957,8.359
					c7.17,0,10.522-2.087,16.954-8.359c6.711-6.545,10.865-9.281,19.225-9.281c8.355,0,12.51,2.736,19.222,9.281
					c6.431,6.272,9.783,8.359,16.957,8.359s10.526-2.088,16.959-8.36c6.71-6.544,10.863-9.28,19.22-9.28
					c8.361,0,12.518,2.736,19.231,9.283c6.433,6.271,9.784,8.357,16.956,8.357c7.177,0,10.531-2.087,16.967-8.359
					c6.716-6.545,10.872-9.281,19.234-9.281c8.359,0,12.516,2.736,19.23,9.281c6.434,6.272,9.787,8.359,16.962,8.359
					c7.182,0,10.537-2.088,16.976-8.361c6.718-6.544,10.876-9.279,19.238-9.279c8.366,0,12.525,2.736,19.244,9.283
					c6.437,6.271,9.792,8.357,16.97,8.357h1.5V243.432z"/>
			</g>
			<g>
				<path id="Stroke-19_1_" fill="#1379D9" d="M0,252.243c7.496,0,11.238,2.19,18,8.785c6.804,6.636,10.597,8.856,18.174,8.856
					c7.573,0,11.365-2.22,18.165-8.854c6.76-6.596,10.503-8.786,17.997-8.786c7.493,0,11.235,2.19,17.994,8.783
					c6.804,6.637,10.598,8.857,18.176,8.857c7.575,0,11.368-2.22,18.17-8.856c6.76-6.595,10.502-8.785,17.996-8.785
					c7.498,0,11.242,2.191,18.004,8.785c6.805,6.636,10.599,8.856,18.175,8.856c7.574,0,11.367-2.22,18.169-8.854
					c6.762-6.596,10.505-8.786,18.001-8.786c7.495,0,11.238,2.19,17.999,8.783c6.806,6.637,10.601,8.857,18.18,8.857
					c7.579,0,11.373-2.22,18.179-8.856c6.763-6.595,10.507-8.785,18.004-8.785c7.497,0,11.242,2.191,18.004,8.785
					c6.805,6.636,10.599,8.856,18.175,8.856c7.579,0,11.374-2.22,18.178-8.856c6.762-6.595,10.506-8.785,18-8.785
					c7.497,0,11.241,2.19,18.004,8.785c6.806,6.636,10.6,8.856,18.179,8.856c7.581,0,11.376-2.22,18.183-8.856
					c6.765-6.595,10.509-8.785,18.009-8.785c7.497,0,11.241,2.19,18.004,8.785c6.806,6.636,10.6,8.856,18.179,8.856
					c7.576,0,11.37-2.22,18.173-8.854c6.764-6.596,10.508-8.786,18.005-8.786c7.495,0,11.238,2.19,17.999,8.783
					c6.806,6.637,10.601,8.857,18.18,8.857c7.579,0,11.374-2.22,18.178-8.856c6.762-6.595,10.506-8.785,18-8.785
					c7.499,0,11.245,2.191,18.008,8.785c6.807,6.636,10.601,8.856,18.179,8.856c7.583,0,11.379-2.22,18.188-8.856
					c6.766-6.595,10.512-8.785,18.013-8.785c7.499,0,11.244,2.19,18.009,8.785c6.807,6.636,10.603,8.856,18.183,8.856
					c7.586,0,11.385-2.22,18.196-8.856c6.769-6.595,10.516-8.785,18.018-8.785c7.505,0,11.253,2.191,18.021,8.785
					c6.812,6.636,10.609,8.856,18.193,8.856v-0.25c-7.502,0-11.249-2.19-18.016-8.783c-6.813-6.637-10.611-8.857-18.198-8.857
					c-7.584,0-11.381,2.22-18.191,8.854c-6.77,6.596-10.518,8.786-18.023,8.786c-7.499,0-11.244-2.19-18.009-8.785
					c-6.807-6.636-10.602-8.856-18.183-8.856c-7.583,0-11.379,2.22-18.188,8.856c-6.766,6.595-10.512,8.785-18.013,8.785
					c-7.497,0-11.241-2.19-18.003-8.783c-6.808-6.637-10.604-8.857-18.184-8.857c-7.576,0-11.37,2.22-18.173,8.854
					c-6.764,6.596-10.508,8.786-18.005,8.786c-7.498,0-11.242-2.191-18.004-8.785c-6.805-6.636-10.599-8.856-18.175-8.856
					c-7.579,0-11.374,2.22-18.178,8.856c-6.762,6.595-10.506,8.785-18,8.785c-7.497,0-11.241-2.19-18.004-8.785
					c-6.806-6.636-10.6-8.856-18.179-8.856c-7.581,0-11.376,2.22-18.183,8.856c-6.765,6.595-10.509,8.785-18.009,8.785
					c-7.497,0-11.241-2.19-18.004-8.785c-6.806-6.636-10.6-8.856-18.179-8.856c-7.576,0-11.37,2.22-18.173,8.854
					c-6.764,6.596-10.508,8.786-18.005,8.786c-7.495,0-11.238-2.19-17.999-8.783c-6.806-6.637-10.601-8.857-18.18-8.857
					c-7.579,0-11.373,2.22-18.179,8.856c-6.763,6.595-10.507,8.785-18.004,8.785c-7.498,0-11.242-2.191-18.004-8.785
					c-6.805-6.636-10.599-8.856-18.175-8.856c-7.577,0-11.371,2.22-18.174,8.856c-6.761,6.595-10.503,8.785-17.996,8.785
					c-7.495,0-11.238-2.19-17.999-8.783c-6.806-6.637-10.601-8.857-18.18-8.857c-7.575,0-11.368,2.22-18.17,8.856
					c-6.76,6.595-10.502,8.785-17.995,8.785c-7.496,0-11.239-2.191-17.999-8.785c-6.803-6.636-10.596-8.856-18.171-8.856
					c-7.575,0-11.368,2.22-18.17,8.856c-6.759,6.595-10.501,8.785-17.992,8.785c-7.496,0-11.238-2.19-18-8.785
					c-6.804-6.636-10.597-8.856-18.174-8.856V252.243z"/>
				<path fill="#1379D9" d="M761.343,271.384h-1.5c-8.363,0-12.521-2.736-19.239-9.282c-6.438-6.271-9.793-8.358-16.975-8.358
					c-7.178,0-10.533,2.087-16.972,8.358c-6.719,6.546-10.877,9.282-19.242,9.282c-8.36,0-12.517-2.736-19.23-9.282
					c-6.434-6.271-9.787-8.358-16.962-8.358c-7.177,0-10.531,2.087-16.967,8.358c-6.715,6.546-10.872,9.282-19.234,9.282
					c-8.357,0-12.513-2.736-19.226-9.282c-6.434-6.271-9.786-8.358-16.962-8.358c-7.172,0-10.522,2.087-16.953,8.358
					c-6.712,6.546-10.867,9.282-19.226,9.282s-12.514-2.736-19.227-9.283c-6.43-6.271-9.78-8.357-16.952-8.357
					c-7.174,0-10.526,2.088-16.958,8.36c-6.711,6.544-10.865,9.28-19.221,9.28c-8.358,0-12.514-2.736-19.226-9.282
					c-6.433-6.271-9.785-8.358-16.958-8.358c-7.174,0-10.527,2.087-16.962,8.358c-6.713,6.546-10.869,9.282-19.229,9.282
					c-8.358,0-12.514-2.736-19.227-9.282c-6.432-6.271-9.785-8.358-16.957-8.358c-7.171,0-10.522,2.087-16.953,8.358
					c-6.712,6.546-10.867,9.282-19.226,9.282c-8.356,0-12.51-2.736-19.222-9.282c-6.431-6.271-9.783-8.358-16.957-8.358
					c-7.172,0-10.525,2.087-16.957,8.358c-6.713,6.546-10.868,9.282-19.226,9.282c-8.358,0-12.514-2.736-19.228-9.283
					c-6.429-6.271-9.78-8.357-16.951-8.357c-7.172,0-10.523,2.087-16.954,8.36c-6.709,6.544-10.862,9.28-19.216,9.28
					c-8.356,0-12.51-2.736-19.223-9.282c-6.431-6.271-9.783-8.358-16.957-8.358c-7.168,0-10.519,2.087-16.948,8.358
					c-6.709,6.546-10.863,9.282-19.218,9.282c-8.356,0-12.511-2.736-19.223-9.283c-6.428-6.271-9.778-8.357-16.947-8.357
					s-10.52,2.087-16.949,8.359c-6.708,6.545-10.859,9.281-19.212,9.281c-8.357,0-12.511-2.736-19.222-9.282
					C10.522,255.83,7.17,253.743,0,253.743h-1.5v-3.25H0c8.356,0,12.511,2.736,19.222,9.281c6.431,6.272,9.782,8.359,16.953,8.359
					c7.166,0,10.516-2.087,16.944-8.358c6.708-6.546,10.861-9.282,19.217-9.282c8.354,0,12.508,2.736,19.218,9.281
					c6.429,6.272,9.78,8.359,16.952,8.359c7.169,0,10.52-2.087,16.948-8.358c6.709-6.546,10.863-9.282,19.217-9.282
					c8.359,0,12.515,2.736,19.228,9.283c6.43,6.271,9.781,8.357,16.952,8.357c7.168,0,10.519-2.087,16.949-8.359
					c6.709-6.545,10.863-9.281,19.221-9.281c8.356,0,12.51,2.736,19.222,9.281c6.431,6.272,9.783,8.359,16.957,8.359
					c7.173,0,10.525-2.087,16.957-8.359c6.713-6.545,10.868-9.281,19.226-9.281c8.359,0,12.515,2.736,19.228,9.283
					c6.43,6.271,9.781,8.357,16.951,8.357c7.174,0,10.526-2.088,16.958-8.36c6.711-6.544,10.865-9.28,19.221-9.28
					c8.358,0,12.514,2.736,19.227,9.281c6.432,6.272,9.784,8.359,16.957,8.359c7.175,0,10.528-2.087,16.962-8.359
					c6.714-6.545,10.869-9.281,19.229-9.281c8.358,0,12.514,2.736,19.227,9.281c6.432,6.272,9.784,8.359,16.957,8.359
					c7.17,0,10.522-2.087,16.954-8.359c6.711-6.545,10.865-9.281,19.225-9.281c8.355,0,12.51,2.736,19.222,9.281
					c6.431,6.272,9.783,8.359,16.957,8.359s10.526-2.088,16.959-8.36c6.71-6.544,10.863-9.28,19.22-9.28
					c8.361,0,12.518,2.736,19.231,9.283c6.433,6.271,9.784,8.357,16.956,8.357c7.177,0,10.531-2.087,16.967-8.359
					c6.716-6.545,10.872-9.281,19.234-9.281c8.359,0,12.516,2.736,19.23,9.281c6.434,6.272,9.787,8.359,16.962,8.359
					c7.182,0,10.537-2.088,16.976-8.361c6.718-6.544,10.876-9.279,19.238-9.279c8.366,0,12.525,2.736,19.244,9.283
					c6.437,6.271,9.792,8.357,16.97,8.357h1.5V271.384z"/>
			</g>
			<g>
				<path id="Stroke-21_1_" fill="#1379D9" d="M0,280.195c7.496,0,11.238,2.19,18,8.785c6.804,6.636,10.597,8.856,18.174,8.856
					c7.573,0,11.365-2.22,18.165-8.854c6.76-6.596,10.503-8.786,17.997-8.786c7.493,0,11.235,2.19,17.994,8.783
					c6.804,6.637,10.598,8.857,18.176,8.857c7.575,0,11.368-2.22,18.17-8.856c6.76-6.595,10.502-8.785,17.996-8.785
					c7.498,0,11.242,2.191,18.004,8.785c6.805,6.636,10.599,8.856,18.175,8.856c7.574,0,11.367-2.22,18.169-8.854
					c6.762-6.596,10.505-8.786,18.001-8.786c7.495,0,11.238,2.19,17.999,8.783c6.806,6.637,10.601,8.857,18.18,8.857
					c7.579,0,11.373-2.22,18.179-8.856c6.763-6.595,10.507-8.785,18.004-8.785c7.497,0,11.242,2.191,18.004,8.785
					c6.805,6.636,10.599,8.856,18.175,8.856c7.579,0,11.374-2.22,18.178-8.856c6.762-6.595,10.506-8.785,18-8.785
					c7.497,0,11.241,2.19,18.004,8.785c6.806,6.636,10.6,8.856,18.179,8.856c7.581,0,11.376-2.22,18.183-8.856
					c6.765-6.595,10.509-8.785,18.009-8.785c7.497,0,11.241,2.19,18.004,8.785c6.806,6.636,10.6,8.856,18.179,8.856
					c7.576,0,11.37-2.22,18.173-8.854c6.764-6.596,10.508-8.786,18.005-8.786c7.495,0,11.238,2.19,17.999,8.783
					c6.806,6.637,10.601,8.857,18.18,8.857c7.579,0,11.374-2.22,18.178-8.856c6.762-6.595,10.506-8.785,18-8.785
					c7.499,0,11.245,2.191,18.008,8.785c6.807,6.636,10.601,8.856,18.179,8.856c7.583,0,11.379-2.22,18.188-8.856
					c6.766-6.595,10.512-8.785,18.013-8.785c7.499,0,11.244,2.19,18.009,8.785c6.807,6.636,10.603,8.856,18.183,8.856
					c7.586,0,11.385-2.22,18.196-8.856c6.769-6.595,10.516-8.785,18.018-8.785c7.505,0,11.253,2.191,18.021,8.785
					c6.812,6.636,10.609,8.856,18.193,8.856v-0.25c-7.502,0-11.249-2.19-18.016-8.783c-6.813-6.637-10.611-8.857-18.198-8.857
					c-7.584,0-11.381,2.22-18.191,8.854c-6.77,6.596-10.518,8.786-18.023,8.786c-7.499,0-11.244-2.19-18.009-8.785
					c-6.807-6.636-10.602-8.856-18.183-8.856c-7.583,0-11.379,2.22-18.188,8.856c-6.766,6.595-10.512,8.785-18.013,8.785
					c-7.497,0-11.241-2.19-18.003-8.783c-6.808-6.637-10.604-8.857-18.184-8.857c-7.576,0-11.37,2.22-18.173,8.854
					c-6.764,6.596-10.508,8.786-18.005,8.786c-7.498,0-11.242-2.191-18.004-8.785c-6.805-6.636-10.599-8.856-18.175-8.856
					c-7.579,0-11.374,2.22-18.178,8.856c-6.762,6.595-10.506,8.785-18,8.785c-7.497,0-11.241-2.19-18.004-8.785
					c-6.806-6.636-10.6-8.856-18.179-8.856c-7.581,0-11.376,2.22-18.183,8.856c-6.765,6.595-10.509,8.785-18.009,8.785
					c-7.497,0-11.241-2.19-18.004-8.785c-6.806-6.636-10.6-8.856-18.179-8.856c-7.576,0-11.37,2.22-18.173,8.854
					c-6.764,6.596-10.508,8.786-18.005,8.786c-7.495,0-11.238-2.19-17.999-8.783c-6.806-6.637-10.601-8.857-18.18-8.857
					c-7.579,0-11.373,2.22-18.179,8.856c-6.763,6.595-10.507,8.785-18.004,8.785c-7.498,0-11.242-2.191-18.004-8.785
					c-6.805-6.636-10.599-8.856-18.175-8.856c-7.577,0-11.371,2.22-18.174,8.856c-6.761,6.595-10.503,8.785-17.996,8.785
					c-7.495,0-11.238-2.19-17.999-8.783c-6.806-6.637-10.601-8.857-18.18-8.857c-7.575,0-11.368,2.22-18.17,8.856
					c-6.76,6.595-10.502,8.785-17.995,8.785c-7.496,0-11.239-2.191-17.999-8.785c-6.803-6.636-10.596-8.856-18.171-8.856
					c-7.575,0-11.368,2.22-18.17,8.856c-6.759,6.595-10.501,8.785-17.992,8.785c-7.496,0-11.238-2.19-18-8.785
					c-6.804-6.636-10.597-8.856-18.174-8.856V280.195z"/>
				<path fill="#1379D9" d="M761.343,299.335h-1.5c-8.362,0-12.521-2.736-19.239-9.281c-6.438-6.272-9.794-8.359-16.975-8.359
					c-7.178,0-10.533,2.087-16.972,8.359c-6.718,6.545-10.876,9.281-19.242,9.281c-8.359,0-12.516-2.736-19.23-9.281
					c-6.434-6.272-9.787-8.359-16.962-8.359c-7.177,0-10.531,2.087-16.967,8.359c-6.716,6.545-10.872,9.281-19.234,9.281
					c-8.356,0-12.512-2.736-19.226-9.281c-6.434-6.272-9.787-8.359-16.962-8.359c-7.171,0-10.522,2.087-16.953,8.359
					c-6.712,6.545-10.866,9.281-19.226,9.281s-12.515-2.736-19.227-9.283c-6.431-6.271-9.782-8.357-16.952-8.357
					c-7.173,0-10.525,2.088-16.958,8.361c-6.711,6.544-10.865,9.279-19.221,9.279c-8.358,0-12.513-2.736-19.226-9.281
					c-6.433-6.272-9.785-8.359-16.958-8.359c-7.174,0-10.527,2.087-16.962,8.359c-6.714,6.545-10.869,9.281-19.229,9.281
					c-8.357,0-12.513-2.736-19.226-9.281c-6.433-6.272-9.785-8.359-16.958-8.359c-7.17,0-10.521,2.087-16.953,8.359
					c-6.711,6.545-10.866,9.281-19.226,9.281c-8.356,0-12.51-2.736-19.222-9.281c-6.432-6.272-9.784-8.359-16.957-8.359
					s-10.525,2.087-16.957,8.359c-6.713,6.545-10.868,9.281-19.226,9.281c-8.359,0-12.515-2.736-19.228-9.283
					c-6.43-6.271-9.781-8.357-16.951-8.357c-7.171,0-10.522,2.088-16.954,8.361c-6.71,6.544-10.863,9.279-19.216,9.279
					c-8.355,0-12.51-2.736-19.223-9.281c-6.432-6.272-9.784-8.359-16.957-8.359c-7.168,0-10.519,2.087-16.948,8.358
					c-6.709,6.546-10.863,9.282-19.218,9.282c-8.357,0-12.512-2.736-19.223-9.284c-6.429-6.27-9.779-8.356-16.947-8.356
					c-7.168,0-10.52,2.088-16.949,8.36c-6.708,6.545-10.86,9.28-19.212,9.28c-8.356,0-12.511-2.736-19.222-9.281
					c-6.431-6.272-9.782-8.359-16.953-8.359h-1.5v-3.25H0c8.357,0,12.511,2.736,19.222,9.282c6.43,6.271,9.781,8.358,16.953,8.358
					c7.167,0,10.517-2.087,16.944-8.357c6.709-6.547,10.862-9.283,19.217-9.283s12.508,2.736,19.218,9.282
					c6.429,6.271,9.781,8.358,16.952,8.358c7.17,0,10.52-2.087,16.948-8.358c6.709-6.546,10.862-9.282,19.217-9.282
					c8.358,0,12.514,2.736,19.228,9.283c6.429,6.271,9.78,8.357,16.952,8.357c7.168,0,10.52-2.087,16.949-8.358
					c6.71-6.546,10.864-9.282,19.221-9.282c8.356,0,12.51,2.736,19.222,9.282c6.431,6.271,9.783,8.358,16.957,8.358
					c7.174,0,10.526-2.087,16.957-8.358c6.713-6.546,10.868-9.282,19.226-9.282c8.358,0,12.514,2.736,19.228,9.283
					c6.429,6.271,9.78,8.357,16.951,8.357c7.174,0,10.526-2.088,16.958-8.36c6.711-6.544,10.865-9.28,19.221-9.28
					c8.359,0,12.514,2.736,19.227,9.282c6.432,6.271,9.783,8.358,16.957,8.358c7.176,0,10.529-2.087,16.962-8.358
					c6.713-6.546,10.869-9.282,19.229-9.282c8.359,0,12.515,2.736,19.227,9.282c6.432,6.271,9.783,8.358,16.957,8.358
					c7.171,0,10.522-2.087,16.954-8.358c6.712-6.546,10.866-9.282,19.225-9.282c8.356,0,12.511,2.736,19.222,9.282
					c6.432,6.271,9.783,8.358,16.957,8.358s10.526-2.088,16.959-8.36c6.71-6.544,10.863-9.28,19.22-9.28
					c8.36,0,12.517,2.736,19.231,9.283c6.432,6.271,9.783,8.357,16.956,8.357c7.178,0,10.532-2.087,16.967-8.358
					c6.715-6.546,10.872-9.282,19.234-9.282c8.36,0,12.517,2.736,19.23,9.282c6.433,6.271,9.786,8.358,16.962,8.358
					c7.182,0,10.537-2.088,16.976-8.36c6.718-6.545,10.876-9.28,19.238-9.28c8.365,0,12.524,2.736,19.244,9.283
					c6.437,6.271,9.791,8.357,16.97,8.357h1.5V299.335z"/>
			</g>
		</g>
	</g>
</g>
</svg>
