<?xml version="1.0" encoding="UTF-8"?>
<svg width="71px" height="59px" viewBox="0 0 71 59" version="1.1" xmlns="http://www.w3.org/2000/svg" xmlns:xlink="http://www.w3.org/1999/xlink">
    <!-- Generator: Sketch 43.2 (39069) - http://www.bohemiancoding.com/sketch -->
    <title>Group 4</title>
    <desc>Created with Sketch.</desc>
    <defs></defs>
    <g id="Page-1" stroke="none" stroke-width="1" fill="none" fill-rule="evenodd">
        <g id="CCT_office" transform="translate(-915.000000, -3398.000000)" fill="#F37F51">
            <g id="Group-4" transform="translate(915.500000, 3398.000000)">
                <path d="M61.25,34.7882353 L8.75,34.7882353 C5.852,34.7882353 3.5,35.9457059 3.5,37.3687647 L3.5,52.0823529 L6.125,52.0823529 L63.875,52.0823529 L66.5,52.0823529 L66.5,37.3687647 C66.5,35.9457059 64.14275,34.7882353 61.25,34.7882353" id="Fill-65"></path>
                <path d="M55.4166667,20.9529412 L14.5833333,20.9529412 C12.3293333,20.9529412 10.5,22.5734 10.5,24.5656824 L10.5,45.1647059 L12.5416667,45.1647059 L57.4583333,45.1647059 L59.5,45.1647059 L59.5,24.5656824 C59.5,22.5734 57.6665833,20.9529412 55.4166667,20.9529412" id="Fill-65-Copy"></path>
                <rect id="Rectangle-11" x="0" y="55.5411765" width="70" height="3.45882353"></rect>
                <g id="Group-3" transform="translate(32.706897, 10.576471)">
                    <rect id="Rectangle-12-Copy-2" x="0.293103448" y="0" width="4" height="10.3764706"></rect>
                </g>
                <path d="M36.2747548,0.647006071 C36.2747548,0.647006071 29.9544877,5.75361499 33.7106544,7.28911947 C37.466821,8.82462395 36.2747548,0.647006071 36.2747548,0.647006071 Z" id="Path-8" transform="translate(34.486492, 4.064076) rotate(-19.000000) translate(-34.486492, -4.064076) "></path>
            </g>
        </g>
    </g>
</svg>