<?xml version="1.0" encoding="UTF-8"?>
<svg width="36px" height="59px" viewBox="0 0 36 59" version="1.1" xmlns="http://www.w3.org/2000/svg" xmlns:xlink="http://www.w3.org/1999/xlink">
    <!-- Generator: Sketch 43.2 (39069) - http://www.bohemiancoding.com/sketch -->
    <title>Fill 263 + Fill 264</title>
    <desc>Created with Sketch.</desc>
    <defs></defs>
    <g id="Page-1" stroke="none" stroke-width="1" fill="none" fill-rule="evenodd">
        <g id="CCT_office" transform="translate(-554.000000, -3405.000000)" fill="#F37F51">
            <g id="Group-5" transform="translate(470.000000, 3374.000000)">
                <g id="Fill-263-+-Fill-264" transform="translate(84.000000, 31.000000)">
                    <path d="M35.3898305,36.342439 C35.3605424,20.9765854 32.7465763,4.74243902 28.6999322,0.869268293 C28.2508475,0.342439024 27.5918644,0.000975609756 26.8474576,0.000975609756 C25.4977627,0.000975609756 24.4067797,1.09365854 24.4067797,2.44 L24.4067797,56.1009756 C24.4067797,57.444878 25.4977627,58.54 26.8474576,58.54 C28.1947119,58.54 29.2881356,57.444878 29.2881356,56.1009756 L29.2881356,37.8082927 L34.1694915,37.8082927 L34.1938983,37.8082927 C34.8675254,37.8082927 35.4142373,37.2595122 35.4142373,36.5887805 C35.4142373,36.5034146 35.4044746,36.4204878 35.3898305,36.342439" id="Fill-263"></path>
                    <path d="M17.0847458,0 C15.7350508,0 14.6440678,1.09268293 14.6440678,2.43902439 L14.6440678,13.4146341 C14.6440678,15.2121951 13.6555932,16.7682927 12.2033898,17.6170732 L12.2033898,2.43902439 C12.2033898,1.09268293 11.1099661,0 9.76271186,0 C8.41301695,0 7.3220339,1.09268293 7.3220339,2.43902439 L7.3220339,17.6170732 C5.86738983,16.7682927 4.88135593,15.2121951 4.88135593,13.4146341 L4.88135593,2.43902439 C4.88135593,1.09268293 3.7879322,0 2.44067797,0 C1.09098305,0 0,1.09268293 0,2.43902439 L0,13.4146341 C0,17.9512195 3.11674576,21.7634146 7.3220339,22.8512195 L7.3220339,56.1 C7.3220339,57.4463415 8.41301695,58.5390244 9.76271186,58.5390244 C11.1099661,58.5390244 12.2033898,57.4463415 12.2033898,56.1 L12.2033898,22.8512195 C16.4062373,21.7634146 19.5254237,17.9512195 19.5254237,13.4146341 L19.5254237,2.43902439 C19.5254237,1.09268293 18.432,0 17.0847458,0" id="Fill-264"></path>
                </g>
            </g>
        </g>
    </g>
</svg>