<?xml version="1.0" encoding="UTF-8"?>
<svg width="64px" height="59px" viewBox="0 0 64 59" version="1.1" xmlns="http://www.w3.org/2000/svg" xmlns:xlink="http://www.w3.org/1999/xlink">
    <!-- Generator: Sketch 43.2 (39069) - http://www.bohemiancoding.com/sketch -->
    <title>Fill 254</title>
    <desc>Created with Sketch.</desc>
    <defs></defs>
    <g id="Page-1" stroke="none" stroke-width="1" fill="none" fill-rule="evenodd">
        <g id="CCT_office" transform="translate(-1305.000000, -3405.000000)" fill="#F37F51">
            <g id="Fill-254" transform="translate(1305.000000, 3405.000000)">
                <path d="M54.6666667,16.0909091 C54.0346667,16.0909091 53.4106667,16.0024091 52.8133333,15.8280909 L55.6106667,13.0148636 C55.9893333,12.6340455 56.104,12.0574545 55.8986667,11.5559545 C55.6933333,11.0544545 55.2053333,10.7272727 54.6666667,10.7272727 L48.1466667,10.7272727 C48.056,10.2928182 48,9.84495455 48,9.38636364 C48,5.69081818 50.9893333,2.68181818 54.6666667,2.68181818 C58.3413333,2.68181818 61.3333333,5.69081818 61.3333333,9.38636364 C61.3333333,13.0845909 58.3413333,16.0909091 54.6666667,16.0909091 M54.6666667,0 C49.52,0 45.3333333,4.21045455 45.3333333,9.38636364 C45.3333333,9.84227273 45.3813333,10.2874545 45.4426667,10.7272727 L20.6053333,10.7272727 L11.272,0 L0,0 L0,2.68181818 L10.0613333,2.68181818 L17.0613333,10.7272727 L12,10.7272727 C11.4613333,10.7272727 10.9733333,11.0544545 10.768,11.5559545 C10.56,12.0574545 10.6746667,12.6340455 11.056,13.0148636 L32,34.0805455 L32,56.3181818 L22.6666667,56.3181818 C21.9306667,56.3181818 21.3333333,56.9215909 21.3333333,57.6590909 C21.3333333,58.3992727 21.9306667,59 22.6666667,59 L44,59 C44.736,59 45.3333333,58.3992727 45.3333333,57.6590909 C45.3333333,56.9215909 44.736,56.3181818 44,56.3181818 L34.6666667,56.3181818 L34.6666667,34.0805455 L50.752,17.9011364 C51.9733333,18.467 53.3066667,18.7727273 54.6666667,18.7727273 C59.8133333,18.7727273 64,14.5649545 64,9.38636364 C64,4.21045455 59.8133333,0 54.6666667,0"></path>
            </g>
        </g>
    </g>
</svg>