<?xml version="1.0" encoding="UTF-8"?>
<svg width="17px" height="24px" viewBox="0 0 17 24" version="1.1" xmlns="http://www.w3.org/2000/svg" xmlns:xlink="http://www.w3.org/1999/xlink">
    <!-- Generator: Sketch 43.2 (39069) - http://www.bohemiancoding.com/sketch -->
    <title>Fill 217</title>
    <desc>Created with Sketch.</desc>
    <defs></defs>
    <g id="Page-1" stroke="none" stroke-width="1" fill="none" fill-rule="evenodd">
        <g id="CCT_commutemode" transform="translate(-450.000000, -1448.000000)" fill="#F26D38">
            <g id="Fill-217" transform="translate(450.000000, 1448.000000)">
                <path d="M8.5,11.5 C6.57,11.5 5,9.93 5,8 C5,6.07 6.57,4.5 8.5,4.5 C10.43,4.5 12,6.07 12,8 C12,9.93 10.43,11.5 8.5,11.5 M8.5,0 C4.089,0 0.5,3.588 0.5,8 C0.5,12.244 7.773,23.307 8.083,23.775 C8.175,23.915 8.332,24 8.5,24 C8.668,24 8.824,23.915 8.917,23.775 C9.227,23.307 16.5,12.244 16.5,8 C16.5,3.588 12.911,0 8.5,0"></path>
            </g>
        </g>
    </g>
</svg>