<?xml version="1.0" encoding="utf-8"?>
<!-- Generator: Adobe Illustrator 17.0.0, SVG Export Plug-In . SVG Version: 6.00 Build 0)  -->
<!DOCTYPE svg PUBLIC "-//W3C//DTD SVG 1.1//EN" "http://www.w3.org/Graphics/SVG/1.1/DTD/svg11.dtd">
<svg version="1.1" id="圖層_1" xmlns="http://www.w3.org/2000/svg" xmlns:xlink="http://www.w3.org/1999/xlink" x="0px" y="0px"
	 width="960px" height="270px" viewBox="0 0 960 270" enable-background="new 0 0 960 270" xml:space="preserve">
<g id="XMLID_37_">
	<g id="XMLID_1_">
		<g id="XMLID_2_">
			<path id="XMLID_3_" fill="#A8A8A8" d="M641,188.9c0,20.262-7.669,32.483-26,32.483c-18.01,0-26-12.221-26-32.483v-1.743v-6.497
				V157.56v-6.497V108h-25v43.062v6.497v23.101v6.497v0.457c0,34.091,16.543,56.295,50.955,56.295
				c34.734,0,51.277-22.909,51.277-56.909H641V188.9z"/>
			<path id="XMLID_16_" fill="#A8A8A8" d="M589,69.909c0-20.26,7.99-32.481,26-32.481c18.331,0,26,12.221,26,32.481V71h25.232
				c0-34-16.543-56.504-51.277-56.504C580.543,14.496,564,37.105,564,71.195V71h25V69.909z"/>
			<path id="XMLID_17_" fill="#A8A8A8" d="M596.088,78h-6.497h-24.545h-6.497h-1.444c-28.395,0-51.496,22.605-51.496,51
				c0,28.395,23.101,51,51.496,51H557v-23h0.105c-15.657,0-28.395-12.343-28.395-28s12.738-28,28.395-28h1.444h6.497h24.545h6.497
				H665V78H596.088z"/>
			<rect id="XMLID_18_" x="595" y="157" fill="#A8A8A8" width="70" height="23"/>
		</g>
		<g id="XMLID_4_">
			<path id="XMLID_5_" fill="#009EFF" d="M74.145,143.816v15.443c0,18.599-9.3,29.227-27.234,29.227s-27.234-10.628-27.234-29.227
				V98.813c0-18.599,9.299-29.227,27.234-29.227s27.234,10.628,27.234,29.227v11.292H56.875V97.651
				c0-8.304-3.653-11.458-9.465-11.458c-5.812,0-9.466,3.155-9.466,11.458v62.771c0,8.304,3.653,11.293,9.466,11.293
				c5.812,0,9.465-2.989,9.465-11.293v-16.605H74.145z"/>
			<path id="XMLID_7_" fill="#009EFF" d="M123.462,187.158c-0.996-2.989-1.661-4.815-1.661-14.281V154.61
				c0-10.794-3.653-14.779-11.956-14.779h-6.311v47.327H85.269V70.915h27.566c18.931,0,27.068,8.801,27.068,26.736v9.133
				c0,11.957-3.82,19.762-11.957,23.581c9.133,3.819,12.123,12.621,12.123,24.743v17.935c0,5.646,0.166,9.798,1.993,14.115H123.462z
				 M103.535,87.521v35.703h7.141c6.809,0,10.96-2.989,10.96-12.289V99.477c0-8.303-2.823-11.956-9.299-11.956H103.535z"/>
			<path id="XMLID_10_" fill="#009EFF" d="M170.291,119.903h25.075v16.606h-25.075v34.042h31.552v16.606h-49.818V70.915h49.818
				v16.606h-31.552V119.903z"/>
			<path id="XMLID_12_" fill="#009EFF" d="M272.251,187.158h-18.433l-3.155-21.09h-22.418l-3.155,21.09h-16.772l18.599-116.243
				h26.736L272.251,187.158z M230.57,150.292h17.603l-8.801-58.786L230.57,150.292z"/>
			<path id="XMLID_15_" fill="#009EFF" d="M275.406,70.915h56.461v16.606H312.77v99.637h-18.267V87.521h-19.097V70.915z"/>
			<path id="XMLID_20_" fill="#009EFF" d="M339.836,70.915h18.267v116.243h-18.267V70.915z"/>
			<path id="XMLID_22_" fill="#009EFF" d="M398.951,165.736L412.9,70.915h16.772l-17.935,116.243h-27.234L366.569,70.915h18.433
				L398.951,165.736z"/>
			<path id="XMLID_24_" fill="#009EFF" d="M456.406,119.903h25.075v16.606h-25.075v34.042h31.552v16.606H438.14V70.915h49.818
				v16.606h-31.552V119.903z"/>
		</g>
		<g id="XMLID_26_">
			<path id="XMLID_27_" fill="#009EFF" d="M742.551,143.816v15.443c0,18.599-9.3,29.227-27.234,29.227s-27.234-10.628-27.234-29.227
				V98.813c0-18.599,9.3-29.227,27.234-29.227s27.234,10.628,27.234,29.227v11.292h-17.271V97.651
				c0-8.304-3.653-11.458-9.466-11.458s-9.466,3.155-9.466,11.458v62.771c0,8.304,3.653,11.293,9.466,11.293
				s9.466-2.989,9.466-11.293v-16.605H742.551z"/>
			<path id="XMLID_29_" fill="#009EFF" d="M752.18,98.813c0-18.599,9.797-29.227,27.732-29.227
				c17.935,0,27.731,10.628,27.731,29.227v60.446c0,18.599-9.797,29.227-27.731,29.227c-17.936,0-27.732-10.628-27.732-29.227
				V98.813z M770.447,160.421c0,8.304,3.653,11.459,9.466,11.459c5.812,0,9.465-3.155,9.465-11.459V97.651
				c0-8.304-3.653-11.458-9.465-11.458c-5.812,0-9.466,3.155-9.466,11.458V160.421z"/>
			<path id="XMLID_32_" fill="#009EFF" d="M819.434,70.915h28.895c18.267,0,27.234,10.13,27.234,28.729v58.786
				c0,18.599-8.968,28.729-27.234,28.729h-28.895V70.915z M837.701,87.521v83.03h10.296c5.812,0,9.3-2.989,9.3-11.292V98.813
				c0-8.303-3.487-11.292-9.3-11.292H837.701z"/>
			<path id="XMLID_35_" fill="#009EFF" d="M905.452,119.903h25.075v16.606h-25.075v34.042h31.552v16.606h-49.818V70.915h49.818
				v16.606h-31.552V119.903z"/>
		</g>
		<g id="XMLID_38_">
			<polygon id="XMLID_39_" fill="#A8A8A8" points="688,209 695,209 695,244 700,244 700,209 708,209 708,205 688,205 			"/>
			<polygon id="XMLID_109_" fill="#A8A8A8" points="714,244 731,244 731,240 719,240 719,226 729,226 729,222 719,222 719,209 
				731,209 731,205 714,205 			"/>
			<path id="XMLID_110_" fill="#A8A8A8" d="M748,205.053c-5.773,0-9,3.818-9,10.477v19.187c0,6.659,3.227,10.478,9,10.478
				s9-3.819,9-10.478V229h-5v5.877c0,4.001-1.389,6.029-4.5,6.029s-4.5-2.028-4.5-6.029v-19.508c0-4.036,1.389-6.083,4.5-6.083
				s4.5,2.047,4.5,6.083V219h5v-3.47C757,208.871,753.773,205.053,748,205.053z"/>
			<polygon id="XMLID_111_" fill="#A8A8A8" points="777,222 769,222 769,205 764,205 764,244 769,244 769,227 777,227 777,244 
				781,244 781,205 777,205 			"/>
			<polygon id="XMLID_112_" fill="#A8A8A8" points="803,232.289 795.525,205 793.134,205 791,204.62 791,205 789,205 789,244 
				793,244 793,216.257 804.895,244 808,244 808,205 803,205 			"/>
			<path id="XMLID_115_" fill="#A8A8A8" d="M824.446,205.053c-5.755,0-9.446,3.917-9.446,10.477v19.187
				c0,6.561,3.691,10.478,9.446,10.478c5.822,0,9.554-3.917,9.554-10.478V215.53C834,208.97,830.268,205.053,824.446,205.053z
				 M829,215.369v19.508c0,4.037-1.335,6.084-4.554,6.084c-3.147,0-4.446-2.047-4.446-6.084v-19.508
				c0-4.036,1.299-6.083,4.446-6.083C827.665,209.286,829,211.333,829,215.369z"/>
			<polygon id="XMLID_116_" fill="#A8A8A8" points="846,205 841,205 841,244 858,244 858,240 846,240 			"/>
			<path id="XMLID_119_" fill="#A8A8A8" d="M873.946,205.053c-5.755,0-8.946,3.917-8.946,10.477v19.187
				c0,6.561,3.191,10.478,8.946,10.478c5.822,0,9.054-3.917,9.054-10.478V215.53C883,208.97,879.768,205.053,873.946,205.053z
				 M879,215.369v19.508c0,4.037-1.835,6.084-5.053,6.084c-3.147,0-4.947-2.047-4.947-6.084v-19.508
				c0-4.036,1.799-6.083,4.947-6.083C877.165,209.286,879,211.333,879,215.369z"/>
			<path id="XMLID_120_" fill="#A8A8A8" d="M900.001,205.053c-5.774,0-9.001,3.818-9.001,10.477v19.187
				c0,6.659,3.227,10.478,9.001,10.478c5.772,0,8.999-3.819,8.999-10.478V223h-9v4h5v7.877c0,4.001-1.888,6.029-5,6.029
				c-3.112,0-5-2.028-5-6.029v-19.508c0-4.036,1.888-6.083,5-6.083c3.111,0,5,2.047,5,6.083V219h4v-3.47
				C909,208.871,905.773,205.053,900.001,205.053z"/>
			<polygon id="XMLID_121_" fill="#A8A8A8" points="933.058,205 926.569,222.817 920.082,205 915.399,205 924,229.64 924,244 
				928,244 928,229.641 937.581,205 			"/>
		</g>
	</g>
	<g id="XMLID_40_">
		<path id="XMLID_41_" fill="#A8A8A8" d="M46.461,218.295l-2.799,3.113c-0.194-0.283-0.5-0.679-0.918-1.188
			c-0.075,8.257-0.534,12.975-1.378,14.154c-0.843,1.18-3.333,1.657-7.469,1.433l-1.007-3.762l4.435-0.045
			c0.611,0,1.003-0.705,1.176-2.117c0.171-1.411,0.258-3.684,0.258-6.819H27.783v16.191c0,0.268,0.052,0.504,0.157,0.705
			c0.105,0.202,0.251,0.34,0.437,0.414c0.187,0.075,1.064,0.146,2.632,0.213c1.567,0.067,3.03,0.101,4.389,0.101
			c2.986,0,4.621-0.082,4.905-0.247c0.283-0.163,0.522-0.448,0.716-0.851c0.194-0.403,0.388-1.634,0.582-3.695l3.941,1.343
			c-0.418,3.181-1.019,5.151-1.803,5.912c-0.784,0.762-2.004,1.142-3.662,1.142l-12.607-0.045c-2.419,0-3.628-1.344-3.628-4.031
			v-20.088c-0.717,0.568-1.299,0.993-1.747,1.277l-2.418-3.202c5.344-3.688,9.607-8.443,12.787-14.266l3.718,1.411
			c-0.314,0.597-0.635,1.135-0.964,1.613C40.265,211.384,44.012,215.16,46.461,218.295z M41.914,219.258
			c-2.194-2.762-5.098-5.755-8.711-8.98c-2.031,2.926-4.785,5.92-8.264,8.98H41.914z M51.007,236.368h-4.009v-28.62h4.009V236.368z
			 M59.025,240.87c0,1.165-0.418,2.101-1.254,2.81c-0.837,0.709-2.457,1.064-4.861,1.064h-3.606l-1.097-4.03
			c3.956,0,6.091-0.049,6.405-0.146c0.313-0.097,0.47-0.399,0.47-0.907v-35.115h3.942V240.87z"/>
		<path id="XMLID_46_" fill="#A8A8A8" d="M75.258,232.181c-1.463,3.971-2.949,7.032-4.456,9.181l-3.293-2.485
			c1.583-2.254,2.986-5.047,4.211-8.376L75.258,232.181z M88.92,229.291h-8.578v15.318h-4.03v-15.318h-8.443v-3.808h8.443v-3.606
			h-7.973v-3.672h4.501c-0.433-1.509-1.075-3.255-1.926-5.241l2.732-1.411h-5.218v-3.673h7.346
			c-0.283-0.866-0.747-1.799-1.389-2.799l4.367-0.963c0.806,1.567,1.374,2.821,1.702,3.762h7.704v3.673h-4.971l2.844,1.567
			c-0.717,1.836-1.493,3.531-2.329,5.084h4.501v3.672h-7.861v3.606h8.578V229.291z M82.178,211.555H74.72
			c1.015,2.269,1.822,4.486,2.419,6.651h2.442C80.611,216.146,81.477,213.928,82.178,211.555z M88.113,236.592l-3.315,1.881
			c-0.701-2.404-1.679-4.695-2.933-6.875l3.403-1.568C86.657,232.419,87.605,234.606,88.113,236.592z M107.731,222.103h-4.165
			v22.417h-3.987v-22.417h-4.636c-0.089,10.451-1.836,17.937-5.24,22.461l-3.337-2.732c2.986-4.016,4.479-10.167,4.479-18.454
			v-15.721c5.121-0.702,9.436-1.836,12.944-3.404l2.799,3.404c-3.329,1.448-7.211,2.605-11.646,3.471v7.032h12.788V222.103z"/>
		<path id="XMLID_52_" fill="#A8A8A8" d="M124.1,229.448c-1.389,5.405-3.128,10.4-5.218,14.983l-3.538-2.509
			c2.06-4.598,3.755-9.599,5.083-15.005L124.1,229.448z M125.242,221.229l-2.643,3.449c-1.911-2.031-4.3-3.852-7.166-5.465
			l2.486-3.404C120.263,217.019,122.704,218.825,125.242,221.229z M125.533,210.502l-2.844,3.202
			c-1.673-2.195-3.949-4.337-6.831-6.428l2.979-3.068C121.449,206.18,123.682,208.277,125.533,210.502z M155.341,208.934h-9.988
			c-0.344,1.03-0.806,2.226-1.389,3.584h10.01v16.93h-8.442v11.914c0,1.075-0.392,1.862-1.176,2.362
			c-0.784,0.5-2.071,0.751-3.863,0.751c-0.821,0-1.59-0.03-2.307-0.09l-1.657-4.121c1.075,0.075,2.098,0.112,3.069,0.112
			c0.895,0,1.425-0.074,1.59-0.224c0.163-0.149,0.246-0.387,0.246-0.716v-9.988h-8.375v-16.93h6.091
			c0.403-0.836,0.859-2.031,1.366-3.584h-9.853v15.587c0,8.017-1.516,14.781-4.547,20.29l-3.471-2.307
			c2.627-5.314,3.941-11.444,3.941-18.386v-18.99h28.755V208.934z M139.195,232.964c-1.777,3.882-3.867,7.174-6.271,9.876
			l-3.359-2.754c2.284-2.478,4.21-5.554,5.778-9.227L139.195,232.964z M149.966,219.169v-3.158h-12.877v3.158H149.966z
			 M149.966,225.865v-3.27h-12.877v3.27H149.966z M155.99,240.264l-3.583,2.621c-0.777-2.643-2.307-5.995-4.591-10.056l3.494-2.016
			C153.221,233.77,154.781,236.92,155.99,240.264z"/>
		<path id="XMLID_62_" fill="#A8A8A8" d="M178.226,209.808h-5.465c-0.597,3.166-1.516,6.45-2.755,9.854h7.211v22.843h-3.717v-2.06
			h-3.494v3.158h-3.762v-16.236c-0.299,0.552-0.694,1.179-1.187,1.881l-2.419-3.897c2.449-3.15,4.494-8.331,6.136-15.542h-5.129
			v-3.897h14.58V209.808z M173.501,236.547v-13.078h-3.494v13.078H173.501z M195.874,235.271h-17.379v-3.763h17.379V235.271z
			 M202.525,222.505c-0.224,5.196-0.515,9.567-0.874,13.113c-0.359,3.546-0.631,5.644-0.817,6.293
			c-0.187,0.65-0.542,1.205-1.064,1.669c-0.523,0.463-1.142,0.784-1.859,0.963c-0.716,0.179-1.993,0.268-3.829,0.268h-2.732
			l-1.142-4.053c0.866,0.104,2.867,0.156,6.002,0.156c0.328,0,0.574-0.138,0.739-0.414c0.164-0.276,0.384-1.911,0.661-4.905
			c0.276-2.992,0.511-6.132,0.705-9.417h-18.386l1.971-15.184l3.986,0.65l-1.411,10.861h9.898l1.321-12.966h-15.676v-3.717h20.088
			l-1.747,16.683H202.525z"/>
		<path id="XMLID_67_" fill="#A8A8A8" d="M229.777,207.614c-2.091,0.701-4.352,1.246-6.786,1.634v5.934h5.778v3.852h-5.778v1.277
			c2.404,2.508,4.449,5.106,6.136,7.793l-2.844,3.023c-1.091-2.18-2.188-4.038-3.293-5.577v18.969h-3.986v-18.162
			c-2.136,4.166-4.203,7.211-6.204,9.138l-2.329-3.628c3.194-3.225,5.964-7.502,8.309-12.832h-7.861v-3.852h8.085v-5.284
			c-1.941,0.298-3.979,0.515-6.115,0.649l-1.724-3.717c5.837-0.283,11.383-1.172,16.639-2.665L229.777,207.614z M250.873,232.964
			l-4.254,0.65v10.996h-4.054v-10.481l-13.795,1.858l-0.359-4.031l14.154-1.926v-25.395h4.054v24.857l4.121-0.515L250.873,232.964z
			 M240.549,224.812l-2.755,3.069c-1.927-2.463-4.785-5.091-8.578-7.884l2.665-2.979
			C235.585,219.751,238.473,222.349,240.549,224.812z M241.198,213.704l-2.755,2.979c-2.567-2.896-5.271-5.404-8.106-7.524
			l2.844-2.889C236.242,208.644,238.914,211.122,241.198,213.704z"/>
		<path id="XMLID_72_" fill="#A8A8A8" d="M273.446,224.991c-1.732,0.806-3.322,1.478-4.77,2.016v13.303
			c0,1.313-0.321,2.329-0.963,3.045c-0.642,0.717-1.717,1.087-3.225,1.109c-1.508,0.022-2.806,0.011-3.897-0.034l-1.276-3.987
			c1.613,0.06,3,0.09,4.165,0.09c0.283,0,0.556-0.131,0.817-0.392c0.261-0.26,0.392-0.556,0.392-0.885V228.53
			c-1.688,0.597-3.434,1.128-5.241,1.591l-1.097-3.763c2.867-0.866,4.978-1.567,6.337-2.105v-8.488h-5.822v-3.897h5.822v-7.435
			h3.986v7.435h4.211v3.897h-4.211v6.898c1.195-0.388,2.509-0.941,3.941-1.657L273.446,224.991z M298.998,241.541l-2.352,3.449
			c-4.33-1.896-7.905-4.009-10.727-6.337c-3.285,2.463-7.211,4.575-11.779,6.337l-2.262-3.673c4.42-1.493,8.137-3.299,11.153-5.419
			c-2.554-2.807-4.726-6.748-6.518-11.825h-1.567v-3.852h9.092v-5.957h-9.719v-3.851h9.719v-5.823h4.121v5.823h9.63v3.851h-9.63
			v5.957h8.488v3.852c-2.136,5.136-4.688,9.108-7.659,11.914C291.511,238.078,294.847,239.929,298.998,241.541z M292.146,224.073
			h-11.265c1.134,3.419,2.889,6.48,5.263,9.182C288.636,230.747,290.637,227.687,292.146,224.073z"/>
		<path id="XMLID_76_" fill="#A8A8A8" d="M346.227,212.742h-22.283c-0.597,1.209-1.396,2.523-2.396,3.941h21.521v24.59
			c0,1.015-0.272,1.799-0.817,2.352c-0.545,0.552-1.37,0.843-2.474,0.874c-1.105,0.03-2.195,0.045-3.27,0.045
			c-1.718,0-3.128-0.023-4.233-0.067l-1.769-4.076c1.94,0.089,4.426,0.135,7.457,0.135c0.642,0,0.964-0.351,0.964-1.053v-4.21
			H318.48c-0.777,3.239-2.367,6.323-4.77,9.249l-3.897-2.195c3.299-3.612,4.949-6.994,4.949-10.144v-7.369
			c-2.031,2.121-4.03,3.816-6.002,5.083l-2.934-3.112c5.48-3.703,9.899-8.383,13.258-14.042h-12.765v-3.986h14.914
			c0.971-1.718,1.672-3.233,2.106-4.547l4.233,0.694c-0.388,1.164-0.926,2.449-1.613,3.852h20.267V212.742z M338.926,224.208v-3.628
			H318.95v3.628H338.926z M338.926,231.508v-3.583H318.95v3.583H338.926z"/>
		<path id="XMLID_80_" fill="#A8A8A8" d="M365.35,218.475c2.553,3.688,3.829,7.174,3.829,10.458c0,4.285-2.105,6.428-6.316,6.428
			c-0.448,0-0.933-0.015-1.455-0.045l-1.142-4.099c0.582,0.105,1.261,0.158,2.038,0.158c1.075,0,1.807-0.15,2.195-0.449
			c0.388-0.298,0.582-0.895,0.582-1.791c0-3.374-1.359-6.786-4.076-10.235c0.866-2.135,1.918-5.314,3.158-9.54h-5.039v35.25h-3.941
			v-39.348h13.234v4.098C367.433,212.705,366.41,215.743,365.35,218.475z M391.686,224.521h-16.415v14.736
			c2.105-0.642,4.351-1.53,6.741-2.665l0.224,4.277c-4.135,1.792-7.591,3.023-10.369,3.695l-1.478-3.426
			c0.582-0.372,0.874-0.97,0.874-1.792v-33.95h20.424V224.521z M387.588,213.167v-4.099h-12.317v4.099H387.588z M387.588,220.871
			v-4.098h-12.317v4.098H387.588z M394.239,241.497l-2.33,3.359c-6.51-3.941-10.772-9.756-12.787-17.445l3.695-1.142
			c0.552,1.956,1.232,3.688,2.038,5.195c1.986-1.433,3.926-3.27,5.823-5.509l2.934,2.666c-2.27,2.747-4.487,4.904-6.651,6.472
			C388.887,237.585,391.312,239.72,394.239,241.497z"/>
		<path id="XMLID_86_" fill="#A8A8A8" d="M418.693,205.687c-2.985,8.078-7.891,14.863-14.713,20.357l-2.62-3.494
			c6.136-4.614,10.555-10.698,13.258-18.252L418.693,205.687z M439.139,242.325l-3.65,2.531c-0.851-2.001-1.71-3.717-2.575-5.151
			c-7.061,1.657-15.699,3.173-25.91,4.547l-1.188-3.494c3.926-2.837,8.525-10.615,13.795-23.336l4.166,1.232
			c-3.717,8.704-7.54,15.646-11.466,20.827c6.882-0.791,13.063-1.873,18.543-3.247c-0.926-1.598-2.516-3.912-4.77-6.943l3.382-2.195
			C433.272,231.875,436.497,236.95,439.139,242.325z M442.14,222.752l-2.441,3.606c-5.674-4.016-9.906-9.869-12.699-17.557h-3.717
			v-3.897h6.651C432.279,212.727,436.348,218.676,442.14,222.752z"/>
		<path id="XMLID_90_" fill="#A8A8A8" d="M487.958,239.212c0,3.568-1.747,5.352-5.241,5.352c-3.09,0-5.352-0.03-6.785-0.089
			l-1.187-4.121c3.403,0.074,5.77,0.112,7.099,0.112c1.313,0,1.97-0.388,1.97-1.165v-30.188h-34.309v-3.762h38.452V239.212z
			 M480.053,216.773h-29.584v-3.718h29.584V216.773z M477.119,236.502h-23.985V221.05h23.985V236.502z M472.954,232.696v-7.884
			H457.21v7.884H472.954z"/>
	</g>
</g>
</svg>
