<?xml version="1.0" encoding="utf-8"?>
<!-- Generator: Adobe Illustrator 17.0.0, SVG Export Plug-In . SVG Version: 6.00 Build 0)  -->
<!DOCTYPE svg PUBLIC "-//W3C//DTD SVG 1.1//EN" "http://www.w3.org/Graphics/SVG/1.1/DTD/svg11.dtd">
<svg version="1.1" xmlns="http://www.w3.org/2000/svg" xmlns:xlink="http://www.w3.org/1999/xlink" x="0px" y="0px" width="899.5px"
	 height="100px" viewBox="0 0 899.5 100" enable-background="new 0 0 899.5 100" xml:space="preserve">
<g id="圖層_1">
</g>
<g id="圖層_3" display="none">
</g>
<g id="圖層_5" display="none">
	<rect x="-1" y="0.5" display="inline" fill="none" stroke="#63534D" stroke-miterlimit="10" width="100" height="100"/>
	<rect x="99" y="0.5" display="inline" fill="none" stroke="#63534D" stroke-miterlimit="10" width="100" height="100"/>
	<rect x="199" y="0.5" display="inline" fill="none" stroke="#63534D" stroke-miterlimit="10" width="100" height="100"/>
	<rect x="299" y="0.5" display="inline" fill="none" stroke="#63534D" stroke-miterlimit="10" width="100" height="100"/>
	<rect x="399" y="0.5" display="inline" fill="none" stroke="#63534D" stroke-miterlimit="10" width="100" height="100"/>
	<rect x="499" y="0.5" display="inline" fill="none" stroke="#63534D" stroke-miterlimit="10" width="100" height="100"/>
	<rect x="599" y="0.5" display="inline" fill="none" stroke="#63534D" stroke-miterlimit="10" width="100" height="100"/>
	<rect x="699" y="0.5" display="inline" fill="none" stroke="#63534D" stroke-miterlimit="10" width="100" height="100"/>
	<rect x="799" y="0.5" display="inline" fill="none" stroke="#63534D" stroke-miterlimit="10" width="100" height="100"/>
	<rect x="99" y="0.5" display="inline" fill="none" stroke="#63534D" stroke-miterlimit="10" width="100" height="100"/>
	<rect x="199" y="0.5" display="inline" fill="none" stroke="#63534D" stroke-miterlimit="10" width="100" height="100"/>
	<rect x="299" y="0.5" display="inline" fill="none" stroke="#63534D" stroke-miterlimit="10" width="100" height="100"/>
	<rect x="399" y="0.5" display="inline" fill="none" stroke="#63534D" stroke-miterlimit="10" width="100" height="100"/>
	<rect x="499" y="0.5" display="inline" fill="none" stroke="#63534D" stroke-miterlimit="10" width="100" height="100"/>
	<rect x="599" y="0.5" display="inline" fill="none" stroke="#63534D" stroke-miterlimit="10" width="100" height="100"/>
	<rect x="699" y="0.5" display="inline" fill="none" stroke="#63534D" stroke-miterlimit="10" width="100" height="100"/>
	<rect x="799" y="0.5" display="inline" fill="none" stroke="#63534D" stroke-miterlimit="10" width="100" height="100"/>
</g>
<g id="圖層_2">
</g>
<g id="圖層_4">
</g>
<g id="圖層_6">
	<rect x="25.5" y="26" fill="#ED9A56" width="8" height="50"/>
	<rect x="38.5" y="60" fill="#ED9A56" width="8" height="16"/>
	<rect x="50.5" y="44" fill="#ED9A56" width="8" height="32"/>
	<rect x="63.5" y="35" fill="#ED9A56" width="8" height="41"/>
	<rect x="18" y="28.5" fill="none" stroke="#63534D" stroke-linecap="round" stroke-miterlimit="10" width="62" height="45"/>
	<rect x="125.5" y="44" fill="#ED9A56" width="8" height="32"/>
	<rect x="138.5" y="35" fill="#ED9A56" width="8" height="41"/>
	<rect x="150.5" y="68" fill="#ED9A56" width="8" height="8"/>
	<rect x="163.5" y="60" fill="#ED9A56" width="8" height="16"/>
	<rect x="118" y="28.5" fill="none" stroke="#63534D" stroke-linecap="round" stroke-miterlimit="10" width="62" height="45"/>
	<rect x="225.5" y="68" fill="#ED9A56" width="8" height="8"/>
	<rect x="238.5" y="42" fill="#ED9A56" width="8" height="34"/>
	<rect x="250.5" y="60" fill="#ED9A56" width="8" height="16"/>
	<rect x="263.5" y="56" fill="#ED9A56" width="8" height="20"/>
	<rect x="218" y="28.5" fill="none" stroke="#63534D" stroke-linecap="round" stroke-miterlimit="10" width="62" height="45"/>
	<rect x="325.5" y="48" fill="#ED9A56" width="8" height="28"/>
	<rect x="338.5" y="33" fill="#ED9A56" width="8" height="43"/>
	<rect x="350.5" y="64" fill="#ED9A56" width="8" height="12"/>
	<rect x="363.5" y="50" fill="#ED9A56" width="8" height="26"/>
	<rect x="318" y="28.5" fill="none" stroke="#63534D" stroke-linecap="round" stroke-miterlimit="10" width="62" height="45"/>
	<rect x="425.5" y="60" fill="#ED9A56" width="8" height="16"/>
	<rect x="438.5" y="41" fill="#ED9A56" width="8" height="35"/>
	<rect x="450.5" y="53" fill="#ED9A56" width="8" height="23"/>
	<rect x="463.5" y="45" fill="#ED9A56" width="8" height="31"/>
	<rect x="418" y="28.5" fill="none" stroke="#63534D" stroke-linecap="round" stroke-miterlimit="10" width="62" height="45"/>
	<rect x="525.5" y="68" fill="#ED9A56" width="8" height="8"/>
	<rect x="538.5" y="35" fill="#ED9A56" width="8" height="41"/>
	<rect x="550.5" y="54" fill="#ED9A56" width="8" height="22"/>
	<rect x="563.5" y="65" fill="#ED9A56" width="8" height="11"/>
	<rect x="518" y="28.5" fill="none" stroke="#63534D" stroke-linecap="round" stroke-miterlimit="10" width="62" height="45"/>
	<rect x="625.5" y="43" fill="#ED9A56" width="8" height="33"/>
	<rect x="638.5" y="57" fill="#ED9A56" width="8" height="19"/>
	<rect x="650.5" y="65" fill="#ED9A56" width="8" height="11"/>
	<rect x="663.5" y="47" fill="#ED9A56" width="8" height="29"/>
	<rect x="618" y="28.5" fill="none" stroke="#63534D" stroke-linecap="round" stroke-miterlimit="10" width="62" height="45"/>
	<rect x="725.5" y="60" fill="#ED9A56" width="8" height="16"/>
	<rect x="738.5" y="35" fill="#ED9A56" width="8" height="41"/>
	<rect x="750.5" y="51" fill="#ED9A56" width="8" height="25"/>
	<rect x="763.5" y="23" fill="#ED9A56" width="8" height="53"/>
	<rect x="718" y="28.5" fill="none" stroke="#63534D" stroke-linecap="round" stroke-miterlimit="10" width="62" height="45"/>
	<rect x="825.5" y="26" fill="#ED9A56" width="8" height="50"/>
	<rect x="838.5" y="60" fill="#ED9A56" width="8" height="16"/>
	<rect x="850.5" y="44" fill="#ED9A56" width="8" height="32"/>
	<rect x="863.5" y="35" fill="#ED9A56" width="8" height="41"/>
	<rect x="818" y="28.5" fill="none" stroke="#63534D" stroke-linecap="round" stroke-miterlimit="10" width="62" height="45"/>
</g>
</svg>
