<?xml version="1.0" encoding="UTF-8"?>
<svg width="51px" height="55px" viewBox="0 0 51 55" version="1.1" xmlns="http://www.w3.org/2000/svg" xmlns:xlink="http://www.w3.org/1999/xlink">
    <!-- Generator: Sketch 43.2 (39069) - http://www.bohemiancoding.com/sketch -->
    <title>Fill 45 + Fill 47</title>
    <desc>Created with Sketch.</desc>
    <defs></defs>
    <g id="Page-1" stroke="none" stroke-width="1" fill="none" fill-rule="evenodd">
        <g id="CCT_index-Copy" transform="translate(-288.000000, -3643.000000)" fill="#425563">
            <g id="Group-2" transform="translate(131.000000, 3643.000000)">
                <g id="Fill-45-+-Fill-47" transform="translate(157.000000, 0.000000)">
                    <path d="M44.6138857,40.1507478 L32.8100286,35.9394435 L32.8100286,30.124313 C36.4266476,27.1637913 38.8040762,22.2337913 38.8040762,16.6531826 C38.8040762,16.4716174 38.7864095,16.2950957 38.7813619,16.1160522 C37.9964571,16.4010087 37.1206952,16.6531826 36.2802667,16.6531826 C32.1033619,16.6531826 29.2136,15.9824 26.788219,12.7344 C24.6328857,14.9989217 20.8244571,16.6531826 17.3516952,16.6531826 C15.7137429,16.6531826 13.0056952,15.6041391 11.1406,14.7669217 C11.0800286,15.3872696 11.0421714,16.0151826 11.0421714,16.6531826 C11.0421714,22.5490087 13.6997429,27.7110087 17.6671714,30.5984 L17.6671714,35.9394435 L5.86079048,40.1507478 C2.35521905,41.4015304 0.000504761905,44.7428348 0.000504761905,48.4624 L0.000504761905,54.4792696 L50.4766952,54.4792696 L50.4766952,48.4624 C50.4766952,44.7428348 48.1194571,41.4015304 44.6138857,40.1507478" id="Fill-45"></path>
                    <path d="M25.734781,9.94283478 L26.8023524,7.89770435 L27.9481619,9.89996522 C30.0202095,13.5211826 32.1932095,14.1314435 36.2792571,14.1314435 C36.9329238,14.1314435 37.8263524,13.8036174 38.5405905,13.5085739 C37.2938286,5.96857391 31.6657333,0.261878261 24.9221143,0.261878261 C18.5772571,0.261878261 13.226781,5.32048696 11.5762095,12.1947478 C13.5195429,13.1126609 16.220019,14.1314435 17.3506857,14.1314435 C20.6518286,14.1314435 24.5713048,12.1745739 25.734781,9.94283478" id="Fill-47"></path>
                </g>
            </g>
        </g>
    </g>
</svg>