<?xml version="1.0" encoding="UTF-8"?>
<svg width="58px" height="54px" viewBox="0 0 58 54" version="1.1" xmlns="http://www.w3.org/2000/svg" xmlns:xlink="http://www.w3.org/1999/xlink">
    <!-- Generator: Sketch 43.2 (39069) - http://www.bohemiancoding.com/sketch -->
    <title>Fill 61</title>
    <desc>Created with Sketch.</desc>
    <defs></defs>
    <g id="Page-1" stroke="none" stroke-width="1" fill="none" fill-rule="evenodd">
        <g id="CCT_index-Copy" transform="translate(-829.000000, -3643.000000)" fill="#425563">
            <g id="Group" transform="translate(676.000000, 3643.000000)">
                <g id="Fill-61" transform="translate(153.000000, 0.000000)">
                    <path d="M53.1666667,36.8181818 L4.83333333,36.8181818 L4.83333333,4.90909091 L53.1666667,4.90909091 L53.1666667,36.8181818 Z M29,42.9545455 C27.666,42.9545455 26.5833333,41.8549091 26.5833333,40.5 C26.5833333,39.1450909 27.666,38.0454545 29,38.0454545 C30.3315833,38.0454545 31.4166667,39.1450909 31.4166667,40.5 C31.4166667,41.8549091 30.3315833,42.9545455 29,42.9545455 L29,42.9545455 Z M53.1666667,0 L4.83333333,0 C2.16533333,0 0,2.20172727 0,4.90909091 L0,41.7272727 C0,44.4346364 2.16533333,46.6363636 4.83333333,46.6363636 L21.2835833,46.6363636 L19.6716667,51.5454545 L12.0833333,51.5454545 C11.4163333,51.5454545 10.875,52.0952727 10.875,52.7727273 C10.875,53.4501818 11.4163333,54 12.0833333,54 L20.5416667,54 L37.4583333,54 L37.4825,54 L45.9166667,54 C46.5836667,54 47.125,53.4501818 47.125,52.7727273 C47.125,52.0952727 46.5836667,51.5454545 45.9166667,51.5454545 L38.3259167,51.5454545 L36.7164167,46.6363636 L53.1666667,46.6363636 C55.8298333,46.6363636 58,44.4346364 58,41.7272727 L58,4.90909091 C58,2.20172727 55.8298333,0 53.1666667,0 L53.1666667,0 Z"></path>
                </g>
            </g>
        </g>
    </g>
</svg>