<?xml version="1.0" encoding="utf-8"?>
<!-- Generator: Adobe Illustrator 17.0.0, SVG Export Plug-In . SVG Version: 6.00 Build 0)  -->
<!DOCTYPE svg PUBLIC "-//W3C//DTD SVG 1.1//EN" "http://www.w3.org/Graphics/SVG/1.1/DTD/svg11.dtd">
<svg version="1.1" xmlns="http://www.w3.org/2000/svg" xmlns:xlink="http://www.w3.org/1999/xlink" x="0px" y="0px" width="899.5px"
	 height="100px" viewBox="0 0 899.5 100" enable-background="new 0 0 899.5 100" xml:space="preserve">
<g id="圖層_1">
</g>
<g id="圖層_3" display="none">
	<rect x="109.5" y="0.5" display="inline" fill="none" stroke="#63534D" stroke-miterlimit="10" width="100" height="100"/>
	<rect x="219.5" y="0.5" display="inline" fill="none" stroke="#63534D" stroke-miterlimit="10" width="100" height="100"/>
	<rect x="329.5" y="0.5" display="inline" fill="none" stroke="#63534D" stroke-miterlimit="10" width="100" height="100"/>
	<rect x="439.5" y="0.5" display="inline" fill="none" stroke="#63534D" stroke-miterlimit="10" width="100" height="100"/>
</g>
<g id="圖層_5" display="none">
	<rect x="-0.5" y="0.5" display="inline" fill="none" stroke="#63534D" stroke-miterlimit="10" width="100" height="100"/>
	<rect x="99.5" y="0.5" display="inline" fill="none" stroke="#63534D" stroke-miterlimit="10" width="100" height="100"/>
	<rect x="199.5" y="0.5" display="inline" fill="none" stroke="#63534D" stroke-miterlimit="10" width="100" height="100"/>
	<rect x="299.5" y="0.5" display="inline" fill="none" stroke="#63534D" stroke-miterlimit="10" width="100" height="100"/>
	<rect x="399.5" y="0.5" display="inline" fill="none" stroke="#63534D" stroke-miterlimit="10" width="100" height="100"/>
	<rect x="499.5" y="0.5" display="inline" fill="none" stroke="#63534D" stroke-miterlimit="10" width="100" height="100"/>
	<rect x="599.5" y="0.5" display="inline" fill="none" stroke="#63534D" stroke-miterlimit="10" width="100" height="100"/>
	<rect x="699.5" y="0.5" display="inline" fill="none" stroke="#63534D" stroke-miterlimit="10" width="100" height="100"/>
	<rect x="799.5" y="0.5" display="inline" fill="none" stroke="#63534D" stroke-miterlimit="10" width="100" height="100"/>
</g>
<g id="圖層_2" display="none">
	<circle display="inline" fill="#ED9A56" cx="145.44" cy="53.578" r="25.94"/>
	<path display="inline" fill="none" stroke="#63534D" stroke-linecap="round" stroke-miterlimit="10" d="M156.098,34.236
		c10.13-10.13,26.554-10.13,36.684,0s10.13,26.554,0,36.684s-26.554,10.13-36.684,0"/>
	<path display="inline" fill="none" stroke="#63534D" stroke-linecap="round" stroke-miterlimit="10" d="M166.781,70.921
		c-1.59,1.59-3.385,2.974-5.343,4.11c-3.822,2.217-8.262,3.487-12.999,3.487c-14.326,0-25.94-11.614-25.94-25.94"/>
	<path display="inline" fill="none" stroke="#63534D" stroke-linecap="round" stroke-miterlimit="10" d="M148.44,26.638
		c4.736,0,9.175,1.269,12.997,3.486c1.368,0.793,2.657,1.708,3.851,2.73"/>
	<g display="inline">
		<g>
			<path fill="none" stroke="#63534D" stroke-linecap="round" stroke-miterlimit="10" d="M156.098,70.92
				c-0.237-0.237-0.468-0.477-0.694-0.72"/>
			<path fill="none" stroke="#63534D" stroke-linecap="round" stroke-miterlimit="10" stroke-dasharray="2.0387,2.0387" d="
				M154.077,68.651c-7.646-9.661-7.43-23.507,0.647-32.932"/>
			<path fill="none" stroke="#63534D" stroke-linecap="round" stroke-miterlimit="10" d="M155.404,34.956
				c0.226-0.244,0.457-0.484,0.694-0.721"/>
		</g>
	</g>
	<path display="inline" fill="none" stroke="#63534D" stroke-linecap="round" stroke-miterlimit="10" d="M156.098,34.236
		c10.13-10.13,26.554-10.13,36.684,0s10.13,26.554,0,36.684s-26.554,10.13-36.684,0"/>
	<g display="inline">
		<polyline fill="none" stroke="#63534D" stroke-linecap="round" stroke-linejoin="round" stroke-miterlimit="10" points="174.5,53 
			174.5,37.337 170.94,41.229 		"/>
		<polyline fill="none" stroke="#63534D" stroke-linecap="round" stroke-linejoin="round" stroke-miterlimit="10" points="174.5,53 
			174.5,37.337 178.06,41.109 		"/>
	</g>
	<g display="inline">
		<polyline fill="none" stroke="#63534D" stroke-linecap="round" stroke-linejoin="round" stroke-miterlimit="10" points="174,53.5 
			174.099,73.666 177.635,68.731 		"/>
		<polyline fill="none" stroke="#63534D" stroke-linecap="round" stroke-linejoin="round" stroke-miterlimit="10" points="174,53.5 
			174.099,73.666 170.516,68.924 		"/>
	</g>
	<circle display="inline" fill="#ED9A56" cx="255.44" cy="53.578" r="25.94"/>
	<path display="inline" fill="none" stroke="#63534D" stroke-linecap="round" stroke-miterlimit="10" d="M266.098,34.236
		c10.13-10.13,26.554-10.13,36.685,0c10.13,10.13,10.13,26.554,0,36.684c-10.13,10.13-26.554,10.13-36.685,0"/>
	<path display="inline" fill="none" stroke="#63534D" stroke-linecap="round" stroke-miterlimit="10" d="M276.781,70.921
		c-1.59,1.59-3.385,2.974-5.343,4.11c-3.822,2.217-8.262,3.487-12.999,3.487c-14.326,0-25.94-11.614-25.94-25.94"/>
	<path display="inline" fill="none" stroke="#63534D" stroke-linecap="round" stroke-miterlimit="10" d="M258.44,26.638
		c4.736,0,9.175,1.269,12.997,3.486c1.368,0.793,2.657,1.708,3.851,2.73"/>
	<g display="inline">
		<g>
			<path fill="none" stroke="#63534D" stroke-linecap="round" stroke-miterlimit="10" d="M266.098,70.92
				c-0.237-0.237-0.468-0.477-0.694-0.72"/>
			<path fill="none" stroke="#63534D" stroke-linecap="round" stroke-miterlimit="10" stroke-dasharray="2.0387,2.0387" d="
				M264.077,68.651c-7.646-9.661-7.43-23.507,0.647-32.932"/>
			<path fill="none" stroke="#63534D" stroke-linecap="round" stroke-miterlimit="10" d="M265.404,34.956
				c0.226-0.244,0.457-0.484,0.694-0.721"/>
		</g>
	</g>
	<path display="inline" fill="none" stroke="#63534D" stroke-linecap="round" stroke-miterlimit="10" d="M266.098,34.236
		c10.13-10.13,26.554-10.13,36.685,0c10.13,10.13,10.13,26.554,0,36.684c-10.13,10.13-26.554,10.13-36.685,0"/>
	<g display="inline">
		<polyline fill="none" stroke="#63534D" stroke-linecap="round" stroke-linejoin="round" stroke-miterlimit="10" points="284.5,53 
			284.5,37.337 280.94,41.229 		"/>
		<polyline fill="none" stroke="#63534D" stroke-linecap="round" stroke-linejoin="round" stroke-miterlimit="10" points="284.5,53 
			284.5,37.337 288.06,41.109 		"/>
	</g>
	<g display="inline">
		<polyline fill="none" stroke="#63534D" stroke-linecap="round" stroke-linejoin="round" stroke-miterlimit="10" points="284,53.5 
			266.783,64.001 272.836,64.48 		"/>
		<polyline fill="none" stroke="#63534D" stroke-linecap="round" stroke-linejoin="round" stroke-miterlimit="10" points="284,53.5 
			266.783,64.001 268.993,58.483 		"/>
	</g>
	<circle display="inline" fill="#ED9A56" cx="365.44" cy="53.578" r="25.94"/>
	<path display="inline" fill="none" stroke="#63534D" stroke-linecap="round" stroke-miterlimit="10" d="M376.098,34.236
		c10.13-10.13,26.554-10.13,36.685,0c10.13,10.13,10.13,26.554,0,36.684c-10.13,10.13-26.554,10.13-36.685,0"/>
	<path display="inline" fill="none" stroke="#63534D" stroke-linecap="round" stroke-miterlimit="10" d="M386.781,70.921
		c-1.59,1.59-3.385,2.974-5.343,4.11c-3.822,2.217-8.262,3.487-12.999,3.487c-14.326,0-25.94-11.614-25.94-25.94"/>
	<path display="inline" fill="none" stroke="#63534D" stroke-linecap="round" stroke-miterlimit="10" d="M368.44,26.638
		c4.736,0,9.175,1.269,12.997,3.486c1.368,0.793,2.657,1.708,3.851,2.73"/>
	<g display="inline">
		<g>
			<path fill="none" stroke="#63534D" stroke-linecap="round" stroke-miterlimit="10" d="M376.098,70.92
				c-0.237-0.237-0.468-0.477-0.694-0.72"/>
			<path fill="none" stroke="#63534D" stroke-linecap="round" stroke-miterlimit="10" stroke-dasharray="2.0387,2.0387" d="
				M374.077,68.651c-7.646-9.661-7.43-23.507,0.647-32.932"/>
			<path fill="none" stroke="#63534D" stroke-linecap="round" stroke-miterlimit="10" d="M375.404,34.956
				c0.226-0.244,0.457-0.484,0.694-0.721"/>
		</g>
	</g>
	<path display="inline" fill="none" stroke="#63534D" stroke-linecap="round" stroke-miterlimit="10" d="M376.098,34.236
		c10.13-10.13,26.554-10.13,36.685,0c10.13,10.13,10.13,26.554,0,36.684c-10.13,10.13-26.554,10.13-36.685,0"/>
	<g display="inline">
		<polyline fill="none" stroke="#63534D" stroke-linecap="round" stroke-linejoin="round" stroke-miterlimit="10" points="394.5,53 
			394.5,37.337 390.94,41.229 		"/>
		<polyline fill="none" stroke="#63534D" stroke-linecap="round" stroke-linejoin="round" stroke-miterlimit="10" points="394.5,53 
			394.5,37.337 398.06,41.109 		"/>
	</g>
	<g display="inline">
		<polyline fill="none" stroke="#63534D" stroke-linecap="round" stroke-linejoin="round" stroke-miterlimit="10" points="394,53.5 
			374.913,46.989 378.418,51.946 		"/>
		<polyline fill="none" stroke="#63534D" stroke-linecap="round" stroke-linejoin="round" stroke-miterlimit="10" points="394,53.5 
			374.913,46.989 380.568,45.157 		"/>
	</g>
	<circle display="inline" fill="#ED9A56" cx="475.44" cy="53.578" r="25.94"/>
	<path display="inline" fill="none" stroke="#63534D" stroke-linecap="round" stroke-miterlimit="10" d="M486.098,34.236
		c10.13-10.13,26.554-10.13,36.685,0s10.13,26.554,0,36.684s-26.554,10.13-36.685,0"/>
	<path display="inline" fill="none" stroke="#63534D" stroke-linecap="round" stroke-miterlimit="10" d="M496.781,70.921
		c-1.59,1.59-3.385,2.974-5.343,4.11c-3.822,2.217-8.262,3.487-12.999,3.487c-14.326,0-25.94-11.614-25.94-25.94"/>
	<path display="inline" fill="none" stroke="#63534D" stroke-linecap="round" stroke-miterlimit="10" d="M478.44,26.638
		c4.736,0,9.175,1.269,12.997,3.486c1.368,0.793,2.657,1.708,3.851,2.73"/>
	<g display="inline">
		<g>
			<path fill="none" stroke="#63534D" stroke-linecap="round" stroke-miterlimit="10" d="M486.098,70.92
				c-0.237-0.237-0.468-0.477-0.694-0.72"/>
			<path fill="none" stroke="#63534D" stroke-linecap="round" stroke-miterlimit="10" stroke-dasharray="2.0387,2.0387" d="
				M484.077,68.651c-7.646-9.661-7.43-23.507,0.647-32.932"/>
			<path fill="none" stroke="#63534D" stroke-linecap="round" stroke-miterlimit="10" d="M485.404,34.956
				c0.226-0.244,0.457-0.484,0.694-0.721"/>
		</g>
	</g>
	<path display="inline" fill="none" stroke="#63534D" stroke-linecap="round" stroke-miterlimit="10" d="M486.098,34.236
		c10.13-10.13,26.554-10.13,36.685,0s10.13,26.554,0,36.684s-26.554,10.13-36.685,0"/>
	<g display="inline">
		<polyline fill="none" stroke="#63534D" stroke-linecap="round" stroke-linejoin="round" stroke-miterlimit="10" points="504.5,53 
			504.5,37.337 500.94,41.229 		"/>
		<polyline fill="none" stroke="#63534D" stroke-linecap="round" stroke-linejoin="round" stroke-miterlimit="10" points="504.5,53 
			504.5,37.337 508.06,41.109 		"/>
	</g>
	<g display="inline">
		<polyline fill="none" stroke="#63534D" stroke-linecap="round" stroke-linejoin="round" stroke-miterlimit="10" points="504,53.5 
			504.245,33.335 500.625,38.209 		"/>
		<polyline fill="none" stroke="#63534D" stroke-linecap="round" stroke-linejoin="round" stroke-miterlimit="10" points="504,53.5 
			504.245,33.335 507.747,38.138 		"/>
	</g>
</g>
<g id="圖層_4">
	<circle fill="#ED9A56" cx="35.44" cy="53.578" r="25.94"/>
	<path fill="none" stroke="#63534D" stroke-linecap="round" stroke-miterlimit="10" d="M46.098,34.236
		c10.13-10.13,26.554-10.13,36.684,0s10.13,26.554,0,36.684s-26.554,10.13-36.684,0"/>
	<path fill="none" stroke="#63534D" stroke-linecap="round" stroke-miterlimit="10" d="M56.781,70.921
		c-1.59,1.59-3.385,2.974-5.343,4.11c-3.822,2.217-8.262,3.487-12.999,3.487c-14.326,0-25.94-11.614-25.94-25.94"/>
	<path fill="none" stroke="#63534D" stroke-linecap="round" stroke-miterlimit="10" d="M38.44,26.638
		c4.736,0,9.175,1.269,12.997,3.486c1.368,0.793,2.657,1.708,3.851,2.73"/>
	<g>
		<g>
			<path fill="none" stroke="#63534D" stroke-linecap="round" stroke-miterlimit="10" d="M46.098,70.92
				c-0.237-0.237-0.468-0.477-0.694-0.72"/>
			<path fill="none" stroke="#63534D" stroke-linecap="round" stroke-miterlimit="10" stroke-dasharray="2.0387,2.0387" d="
				M44.077,68.651c-7.646-9.661-7.43-23.507,0.647-32.932"/>
			<path fill="none" stroke="#63534D" stroke-linecap="round" stroke-miterlimit="10" d="M45.404,34.956
				c0.226-0.244,0.457-0.484,0.694-0.721"/>
		</g>
	</g>
	<path fill="none" stroke="#63534D" stroke-linecap="round" stroke-miterlimit="10" d="M46.098,34.236
		c10.13-10.13,26.554-10.13,36.684,0s10.13,26.554,0,36.684s-26.554,10.13-36.684,0"/>
	<g>
		<polyline fill="none" stroke="#63534D" stroke-linecap="round" stroke-linejoin="round" stroke-miterlimit="10" points="64.5,53 
			64.5,37.337 60.94,41.229 		"/>
		<polyline fill="none" stroke="#63534D" stroke-linecap="round" stroke-linejoin="round" stroke-miterlimit="10" points="64.5,53 
			64.5,37.337 68.06,41.109 		"/>
	</g>
	<g>
		<polyline fill="none" stroke="#63534D" stroke-linecap="round" stroke-linejoin="round" stroke-miterlimit="10" points="64,53.5 
			78.786,67.214 77.601,61.259 		"/>
		<polyline fill="none" stroke="#63534D" stroke-linecap="round" stroke-linejoin="round" stroke-miterlimit="10" points="64,53.5 
			78.786,67.214 72.875,66.587 		"/>
	</g>
	<circle fill="#ED9A56" cx="135.44" cy="53.578" r="25.94"/>
	<path fill="none" stroke="#63534D" stroke-linecap="round" stroke-miterlimit="10" d="M146.098,34.236
		c10.13-10.13,26.554-10.13,36.684,0s10.13,26.554,0,36.684s-26.554,10.13-36.684,0"/>
	<path fill="none" stroke="#63534D" stroke-linecap="round" stroke-miterlimit="10" d="M156.781,70.921
		c-1.59,1.59-3.385,2.974-5.343,4.11c-3.822,2.217-8.262,3.487-12.999,3.487c-14.326,0-25.94-11.614-25.94-25.94"/>
	<path fill="none" stroke="#63534D" stroke-linecap="round" stroke-miterlimit="10" d="M138.44,26.638
		c4.736,0,9.175,1.269,12.997,3.486c1.368,0.793,2.657,1.708,3.851,2.73"/>
	<g>
		<g>
			<path fill="none" stroke="#63534D" stroke-linecap="round" stroke-miterlimit="10" d="M146.098,70.92
				c-0.237-0.237-0.468-0.477-0.694-0.72"/>
			<path fill="none" stroke="#63534D" stroke-linecap="round" stroke-miterlimit="10" stroke-dasharray="2.0387,2.0387" d="
				M144.077,68.651c-7.646-9.661-7.43-23.507,0.647-32.932"/>
			<path fill="none" stroke="#63534D" stroke-linecap="round" stroke-miterlimit="10" d="M145.404,34.956
				c0.226-0.244,0.457-0.484,0.694-0.721"/>
		</g>
	</g>
	<path fill="none" stroke="#63534D" stroke-linecap="round" stroke-miterlimit="10" d="M146.098,34.236
		c10.13-10.13,26.554-10.13,36.684,0s10.13,26.554,0,36.684s-26.554,10.13-36.684,0"/>
	<g>
		<polyline fill="none" stroke="#63534D" stroke-linecap="round" stroke-linejoin="round" stroke-miterlimit="10" points="164.5,53 
			164.5,37.337 160.94,41.229 		"/>
		<polyline fill="none" stroke="#63534D" stroke-linecap="round" stroke-linejoin="round" stroke-miterlimit="10" points="164.5,53 
			164.5,37.337 168.06,41.109 		"/>
	</g>
	<g>
		<polyline fill="none" stroke="#63534D" stroke-linecap="round" stroke-linejoin="round" stroke-miterlimit="10" points="164,53.5 
			173.872,71.085 174.569,65.054 		"/>
		<polyline fill="none" stroke="#63534D" stroke-linecap="round" stroke-linejoin="round" stroke-miterlimit="10" points="164,53.5 
			173.872,71.085 168.438,68.677 		"/>
	</g>
	<circle fill="#ED9A56" cx="235.44" cy="53.578" r="25.94"/>
	<path fill="none" stroke="#63534D" stroke-linecap="round" stroke-miterlimit="10" d="M246.098,34.236
		c10.13-10.13,26.554-10.13,36.684,0c10.13,10.13,10.13,26.554,0,36.684c-10.13,10.13-26.554,10.13-36.684,0"/>
	<path fill="none" stroke="#63534D" stroke-linecap="round" stroke-miterlimit="10" d="M256.781,70.921
		c-1.59,1.59-3.385,2.974-5.343,4.11c-3.822,2.217-8.262,3.487-12.999,3.487c-14.326,0-25.94-11.614-25.94-25.94"/>
	<path fill="none" stroke="#63534D" stroke-linecap="round" stroke-miterlimit="10" d="M238.44,26.638
		c4.736,0,9.175,1.269,12.997,3.486c1.368,0.793,2.657,1.708,3.851,2.73"/>
	<g>
		<g>
			<path fill="none" stroke="#63534D" stroke-linecap="round" stroke-miterlimit="10" d="M246.098,70.92
				c-0.237-0.237-0.468-0.477-0.694-0.72"/>
			<path fill="none" stroke="#63534D" stroke-linecap="round" stroke-miterlimit="10" stroke-dasharray="2.0387,2.0387" d="
				M244.077,68.651c-7.646-9.661-7.43-23.507,0.647-32.932"/>
			<path fill="none" stroke="#63534D" stroke-linecap="round" stroke-miterlimit="10" d="M245.404,34.956
				c0.226-0.244,0.457-0.484,0.694-0.721"/>
		</g>
	</g>
	<path fill="none" stroke="#63534D" stroke-linecap="round" stroke-miterlimit="10" d="M246.098,34.236
		c10.13-10.13,26.554-10.13,36.684,0c10.13,10.13,10.13,26.554,0,36.684c-10.13,10.13-26.554,10.13-36.684,0"/>
	<g>
		<polyline fill="none" stroke="#63534D" stroke-linecap="round" stroke-linejoin="round" stroke-miterlimit="10" points="264.5,53 
			264.5,37.337 260.94,41.229 		"/>
		<polyline fill="none" stroke="#63534D" stroke-linecap="round" stroke-linejoin="round" stroke-miterlimit="10" points="264.5,53 
			264.5,37.337 268.06,41.109 		"/>
	</g>
	<g>
		<polyline fill="none" stroke="#63534D" stroke-linecap="round" stroke-linejoin="round" stroke-miterlimit="10" points="264,53.5 
			266.705,73.484 269.573,68.134 		"/>
		<polyline fill="none" stroke="#63534D" stroke-linecap="round" stroke-linejoin="round" stroke-miterlimit="10" points="264,53.5 
			266.705,73.484 262.538,69.245 		"/>
	</g>
	<circle fill="#ED9A56" cx="335.44" cy="53.578" r="25.94"/>
	<path fill="none" stroke="#63534D" stroke-linecap="round" stroke-miterlimit="10" d="M346.098,34.236
		c10.13-10.13,26.554-10.13,36.685,0c10.13,10.13,10.13,26.554,0,36.684c-10.13,10.13-26.554,10.13-36.685,0"/>
	<path fill="none" stroke="#63534D" stroke-linecap="round" stroke-miterlimit="10" d="M356.781,70.921
		c-1.59,1.59-3.385,2.974-5.343,4.11c-3.822,2.217-8.262,3.487-12.999,3.487c-14.326,0-25.94-11.614-25.94-25.94"/>
	<path fill="none" stroke="#63534D" stroke-linecap="round" stroke-miterlimit="10" d="M338.44,26.638
		c4.736,0,9.175,1.269,12.997,3.486c1.368,0.793,2.657,1.708,3.851,2.73"/>
	<g>
		<g>
			<path fill="none" stroke="#63534D" stroke-linecap="round" stroke-miterlimit="10" d="M346.098,70.92
				c-0.237-0.237-0.468-0.477-0.694-0.72"/>
			<path fill="none" stroke="#63534D" stroke-linecap="round" stroke-miterlimit="10" stroke-dasharray="2.0387,2.0387" d="
				M344.077,68.651c-7.646-9.661-7.43-23.507,0.647-32.932"/>
			<path fill="none" stroke="#63534D" stroke-linecap="round" stroke-miterlimit="10" d="M345.404,34.956
				c0.226-0.244,0.457-0.484,0.694-0.721"/>
		</g>
	</g>
	<path fill="none" stroke="#63534D" stroke-linecap="round" stroke-miterlimit="10" d="M346.098,34.236
		c10.13-10.13,26.554-10.13,36.685,0c10.13,10.13,10.13,26.554,0,36.684c-10.13,10.13-26.554,10.13-36.685,0"/>
	<g>
		<polyline fill="none" stroke="#63534D" stroke-linecap="round" stroke-linejoin="round" stroke-miterlimit="10" points="364.5,53 
			364.5,37.337 360.94,41.229 		"/>
		<polyline fill="none" stroke="#63534D" stroke-linecap="round" stroke-linejoin="round" stroke-miterlimit="10" points="364.5,53 
			364.5,37.337 368.06,41.109 		"/>
	</g>
	<g>
		<polyline fill="none" stroke="#63534D" stroke-linecap="round" stroke-linejoin="round" stroke-miterlimit="10" points="364,53.5 
			359.319,73.116 363.923,69.159 		"/>
		<polyline fill="none" stroke="#63534D" stroke-linecap="round" stroke-linejoin="round" stroke-miterlimit="10" points="364,53.5 
			359.319,73.116 356.961,67.659 		"/>
	</g>
	<circle fill="#ED9A56" cx="435.44" cy="53.578" r="25.94"/>
	<path fill="none" stroke="#63534D" stroke-linecap="round" stroke-miterlimit="10" d="M446.098,34.236
		c10.13-10.13,26.554-10.13,36.685,0c10.13,10.13,10.13,26.554,0,36.684c-10.13,10.13-26.554,10.13-36.685,0"/>
	<path fill="none" stroke="#63534D" stroke-linecap="round" stroke-miterlimit="10" d="M456.781,70.921
		c-1.59,1.59-3.385,2.974-5.343,4.11c-3.822,2.217-8.262,3.487-12.999,3.487c-14.326,0-25.94-11.614-25.94-25.94"/>
	<path fill="none" stroke="#63534D" stroke-linecap="round" stroke-miterlimit="10" d="M438.44,26.638
		c4.736,0,9.175,1.269,12.997,3.486c1.368,0.793,2.657,1.708,3.851,2.73"/>
	<g>
		<g>
			<path fill="none" stroke="#63534D" stroke-linecap="round" stroke-miterlimit="10" d="M446.098,70.92
				c-0.237-0.237-0.468-0.477-0.694-0.72"/>
			<path fill="none" stroke="#63534D" stroke-linecap="round" stroke-miterlimit="10" stroke-dasharray="2.0387,2.0387" d="
				M444.077,68.651c-7.646-9.661-7.43-23.507,0.647-32.932"/>
			<path fill="none" stroke="#63534D" stroke-linecap="round" stroke-miterlimit="10" d="M445.404,34.956
				c0.226-0.244,0.457-0.484,0.694-0.721"/>
		</g>
	</g>
	<path fill="none" stroke="#63534D" stroke-linecap="round" stroke-miterlimit="10" d="M446.098,34.236
		c10.13-10.13,26.554-10.13,36.685,0c10.13,10.13,10.13,26.554,0,36.684c-10.13,10.13-26.554,10.13-36.685,0"/>
	<g>
		<polyline fill="none" stroke="#63534D" stroke-linecap="round" stroke-linejoin="round" stroke-miterlimit="10" points="464.5,53 
			464.5,37.337 460.94,41.229 		"/>
		<polyline fill="none" stroke="#63534D" stroke-linecap="round" stroke-linejoin="round" stroke-miterlimit="10" points="464.5,53 
			464.5,37.337 468.06,41.109 		"/>
	</g>
	<g>
		<polyline fill="none" stroke="#63534D" stroke-linecap="round" stroke-linejoin="round" stroke-miterlimit="10" points="464,53.5 
			449.547,67.564 455.554,66.686 		"/>
		<polyline fill="none" stroke="#63534D" stroke-linecap="round" stroke-linejoin="round" stroke-miterlimit="10" points="464,53.5 
			449.547,67.564 450.475,61.693 		"/>
	</g>
	<circle fill="#ED9A56" cx="535.44" cy="53.578" r="25.94"/>
	<path fill="none" stroke="#63534D" stroke-linecap="round" stroke-miterlimit="10" d="M546.098,34.236
		c10.13-10.13,26.554-10.13,36.685,0s10.13,26.554,0,36.684s-26.554,10.13-36.685,0"/>
	<path fill="none" stroke="#63534D" stroke-linecap="round" stroke-miterlimit="10" d="M556.781,70.921
		c-1.59,1.59-3.385,2.974-5.343,4.11c-3.822,2.217-8.262,3.487-12.999,3.487c-14.326,0-25.94-11.614-25.94-25.94"/>
	<path fill="none" stroke="#63534D" stroke-linecap="round" stroke-miterlimit="10" d="M538.44,26.638
		c4.736,0,9.175,1.269,12.997,3.486c1.368,0.793,2.657,1.708,3.851,2.73"/>
	<g>
		<g>
			<path fill="none" stroke="#63534D" stroke-linecap="round" stroke-miterlimit="10" d="M546.098,70.92
				c-0.237-0.237-0.468-0.477-0.694-0.72"/>
			<path fill="none" stroke="#63534D" stroke-linecap="round" stroke-miterlimit="10" stroke-dasharray="2.0387,2.0387" d="
				M544.077,68.651c-7.646-9.661-7.43-23.507,0.647-32.932"/>
			<path fill="none" stroke="#63534D" stroke-linecap="round" stroke-miterlimit="10" d="M545.404,34.956
				c0.226-0.244,0.457-0.484,0.694-0.721"/>
		</g>
	</g>
	<path fill="none" stroke="#63534D" stroke-linecap="round" stroke-miterlimit="10" d="M546.098,34.236
		c10.13-10.13,26.554-10.13,36.685,0s10.13,26.554,0,36.684s-26.554,10.13-36.685,0"/>
	<g>
		<polyline fill="none" stroke="#63534D" stroke-linecap="round" stroke-linejoin="round" stroke-miterlimit="10" points="564.5,53 
			564.5,37.337 560.94,41.229 		"/>
		<polyline fill="none" stroke="#63534D" stroke-linecap="round" stroke-linejoin="round" stroke-miterlimit="10" points="564.5,53 
			564.5,37.337 568.06,41.109 		"/>
	</g>
	<g>
		<polyline fill="none" stroke="#63534D" stroke-linecap="round" stroke-linejoin="round" stroke-miterlimit="10" points="564,53.5 
			543.883,54.912 549.038,58.119 		"/>
		<polyline fill="none" stroke="#63534D" stroke-linecap="round" stroke-linejoin="round" stroke-miterlimit="10" points="564,53.5 
			543.883,54.912 548.382,51.028 		"/>
	</g>
	<circle fill="#ED9A56" cx="635.44" cy="53.578" r="25.94"/>
	<path fill="none" stroke="#63534D" stroke-linecap="round" stroke-miterlimit="10" d="M646.098,34.236
		c10.13-10.13,26.554-10.13,36.685,0s10.13,26.554,0,36.684s-26.554,10.13-36.685,0"/>
	<path fill="none" stroke="#63534D" stroke-linecap="round" stroke-miterlimit="10" d="M656.781,70.921
		c-1.59,1.59-3.385,2.974-5.343,4.11c-3.822,2.217-8.262,3.487-12.999,3.487c-14.326,0-25.94-11.614-25.94-25.94"/>
	<path fill="none" stroke="#63534D" stroke-linecap="round" stroke-miterlimit="10" d="M638.44,26.638
		c4.736,0,9.175,1.269,12.997,3.486c1.368,0.793,2.657,1.708,3.851,2.73"/>
	<g>
		<g>
			<path fill="none" stroke="#63534D" stroke-linecap="round" stroke-miterlimit="10" d="M646.098,70.92
				c-0.237-0.237-0.468-0.477-0.694-0.72"/>
			<path fill="none" stroke="#63534D" stroke-linecap="round" stroke-miterlimit="10" stroke-dasharray="2.0387,2.0387" d="
				M644.077,68.651c-7.646-9.661-7.43-23.507,0.647-32.932"/>
			<path fill="none" stroke="#63534D" stroke-linecap="round" stroke-miterlimit="10" d="M645.404,34.956
				c0.226-0.244,0.457-0.484,0.694-0.721"/>
		</g>
	</g>
	<path fill="none" stroke="#63534D" stroke-linecap="round" stroke-miterlimit="10" d="M646.098,34.236
		c10.13-10.13,26.554-10.13,36.685,0s10.13,26.554,0,36.684s-26.554,10.13-36.685,0"/>
	<g>
		<polyline fill="none" stroke="#63534D" stroke-linecap="round" stroke-linejoin="round" stroke-miterlimit="10" points="664.5,53 
			664.5,37.337 660.94,41.229 		"/>
		<polyline fill="none" stroke="#63534D" stroke-linecap="round" stroke-linejoin="round" stroke-miterlimit="10" points="664.5,53 
			664.5,37.337 668.06,41.109 		"/>
	</g>
	<g>
		<polyline fill="none" stroke="#63534D" stroke-linecap="round" stroke-linejoin="round" stroke-miterlimit="10" points="664,53.5 
			645.054,46.59 648.454,51.62 		"/>
		<polyline fill="none" stroke="#63534D" stroke-linecap="round" stroke-linejoin="round" stroke-miterlimit="10" points="664,53.5 
			645.054,46.59 650.746,44.876 		"/>
	</g>
	<circle fill="#ED9A56" cx="735.44" cy="53.578" r="25.94"/>
	<path fill="none" stroke="#63534D" stroke-linecap="round" stroke-miterlimit="10" d="M746.098,34.236
		c10.13-10.13,26.554-10.13,36.685,0s10.13,26.554,0,36.684s-26.554,10.13-36.685,0"/>
	<path fill="none" stroke="#63534D" stroke-linecap="round" stroke-miterlimit="10" d="M756.781,70.921
		c-1.59,1.59-3.385,2.974-5.343,4.11c-3.822,2.217-8.262,3.487-12.999,3.487c-14.326,0-25.94-11.614-25.94-25.94"/>
	<path fill="none" stroke="#63534D" stroke-linecap="round" stroke-miterlimit="10" d="M738.44,26.638
		c4.736,0,9.175,1.269,12.997,3.486c1.368,0.793,2.657,1.708,3.851,2.73"/>
	<g>
		<g>
			<path fill="none" stroke="#63534D" stroke-linecap="round" stroke-miterlimit="10" d="M746.098,70.92
				c-0.237-0.237-0.468-0.477-0.694-0.72"/>
			<path fill="none" stroke="#63534D" stroke-linecap="round" stroke-miterlimit="10" stroke-dasharray="2.0387,2.0387" d="
				M744.077,68.651c-7.646-9.661-7.43-23.507,0.647-32.932"/>
			<path fill="none" stroke="#63534D" stroke-linecap="round" stroke-miterlimit="10" d="M745.404,34.956
				c0.226-0.244,0.457-0.484,0.694-0.721"/>
		</g>
	</g>
	<path fill="none" stroke="#63534D" stroke-linecap="round" stroke-miterlimit="10" d="M746.098,34.236
		c10.13-10.13,26.554-10.13,36.685,0s10.13,26.554,0,36.684s-26.554,10.13-36.685,0"/>
	<g>
		<polyline fill="none" stroke="#63534D" stroke-linecap="round" stroke-linejoin="round" stroke-miterlimit="10" points="764.5,53 
			764.5,37.337 760.94,41.229 		"/>
		<polyline fill="none" stroke="#63534D" stroke-linecap="round" stroke-linejoin="round" stroke-miterlimit="10" points="764.5,53 
			764.5,37.337 768.06,41.109 		"/>
	</g>
	<g>
		<polyline fill="none" stroke="#63534D" stroke-linecap="round" stroke-linejoin="round" stroke-miterlimit="10" points="764,53.5 
			752.142,37.188 752.154,43.259 		"/>
		<polyline fill="none" stroke="#63534D" stroke-linecap="round" stroke-linejoin="round" stroke-miterlimit="10" points="764,53.5 
			752.142,37.188 757.82,38.945 		"/>
	</g>
	<circle fill="#ED9A56" cx="835.44" cy="53.578" r="25.94"/>
	<path fill="none" stroke="#63534D" stroke-linecap="round" stroke-miterlimit="10" d="M846.098,34.236
		c10.13-10.13,26.554-10.13,36.685,0s10.13,26.554,0,36.684s-26.554,10.13-36.685,0"/>
	<path fill="none" stroke="#63534D" stroke-linecap="round" stroke-miterlimit="10" d="M856.781,70.921
		c-1.59,1.59-3.385,2.974-5.343,4.11c-3.822,2.217-8.262,3.487-12.999,3.487c-14.326,0-25.94-11.614-25.94-25.94"/>
	<path fill="none" stroke="#63534D" stroke-linecap="round" stroke-miterlimit="10" d="M838.44,26.638
		c4.736,0,9.175,1.269,12.997,3.486c1.368,0.793,2.657,1.708,3.851,2.73"/>
	<g>
		<g>
			<path fill="none" stroke="#63534D" stroke-linecap="round" stroke-miterlimit="10" d="M846.098,70.92
				c-0.237-0.237-0.468-0.477-0.694-0.72"/>
			<path fill="none" stroke="#63534D" stroke-linecap="round" stroke-miterlimit="10" stroke-dasharray="2.0387,2.0387" d="
				M844.077,68.651c-7.646-9.661-7.43-23.507,0.647-32.932"/>
			<path fill="none" stroke="#63534D" stroke-linecap="round" stroke-miterlimit="10" d="M845.404,34.956
				c0.226-0.244,0.457-0.484,0.694-0.721"/>
		</g>
	</g>
	<path fill="none" stroke="#63534D" stroke-linecap="round" stroke-miterlimit="10" d="M846.098,34.236
		c10.13-10.13,26.554-10.13,36.685,0s10.13,26.554,0,36.684s-26.554,10.13-36.685,0"/>
	<g>
		<polyline fill="none" stroke="#63534D" stroke-linecap="round" stroke-linejoin="round" stroke-miterlimit="10" points="864.5,53 
			864.5,37.337 860.94,41.229 		"/>
		<polyline fill="none" stroke="#63534D" stroke-linecap="round" stroke-linejoin="round" stroke-miterlimit="10" points="864.5,53 
			864.5,37.337 868.06,41.109 		"/>
	</g>
	<g>
		<polyline fill="none" stroke="#63534D" stroke-linecap="round" stroke-linejoin="round" stroke-miterlimit="10" points="864,53.5 
			864.726,33.346 860.991,38.133 		"/>
		<polyline fill="none" stroke="#63534D" stroke-linecap="round" stroke-linejoin="round" stroke-miterlimit="10" points="864,53.5 
			864.726,33.346 868.112,38.231 		"/>
	</g>
</g>
</svg>
