<?xml version="1.0" encoding="utf-8"?>
<!-- Generator: Adobe Illustrator 17.0.0, SVG Export Plug-In . SVG Version: 6.00 Build 0)  -->
<!DOCTYPE svg PUBLIC "-//W3C//DTD SVG 1.1//EN" "http://www.w3.org/Graphics/SVG/1.1/DTD/svg11.dtd">
<svg version="1.1" xmlns="http://www.w3.org/2000/svg" xmlns:xlink="http://www.w3.org/1999/xlink" x="0px" y="0px" width="899.5px"
	 height="100px" viewBox="0 0 899.5 100" enable-background="new 0 0 899.5 100" xml:space="preserve">
<g id="圖層_1">
</g>
<g id="圖層_3" display="none">
</g>
<g id="圖層_5" display="none">
	<rect x="-1" y="0.5" display="inline" fill="none" stroke="#63534D" stroke-miterlimit="10" width="100" height="100"/>
	<rect x="99" y="0.5" display="inline" fill="none" stroke="#63534D" stroke-miterlimit="10" width="100" height="100"/>
	<rect x="199" y="0.5" display="inline" fill="none" stroke="#63534D" stroke-miterlimit="10" width="100" height="100"/>
	<rect x="299" y="0.5" display="inline" fill="none" stroke="#63534D" stroke-miterlimit="10" width="100" height="100"/>
	<rect x="399" y="0.5" display="inline" fill="none" stroke="#63534D" stroke-miterlimit="10" width="100" height="100"/>
	<rect x="499" y="0.5" display="inline" fill="none" stroke="#63534D" stroke-miterlimit="10" width="100" height="100"/>
	<rect x="599" y="0.5" display="inline" fill="none" stroke="#63534D" stroke-miterlimit="10" width="100" height="100"/>
	<rect x="699" y="0.5" display="inline" fill="none" stroke="#63534D" stroke-miterlimit="10" width="100" height="100"/>
	<rect x="799" y="0.5" display="inline" fill="none" stroke="#63534D" stroke-miterlimit="10" width="100" height="100"/>
</g>
<g id="圖層_2">
</g>
<g id="圖層_4">
</g>
<g id="圖層_6">
</g>
<g id="圖層_7">
	<rect x="22.5" y="33" fill="#ED9A56" width="7" height="7"/>
	<rect x="32.5" y="42" fill="#ED9A56" width="7" height="7"/>
	<rect x="23.5" y="57" fill="#ED9A56" width="7" height="7"/>
	<rect x="45.5" y="61" fill="#ED9A56" width="7" height="7"/>
	<rect x="51.5" y="38" fill="#ED9A56" width="7" height="7"/>
	<rect x="59.5" y="50" fill="#ED9A56" width="7" height="7"/>
	<rect x="67.5" y="61" fill="#ED9A56" width="7" height="7"/>
	<rect x="69.5" y="32" fill="#ED9A56" width="7" height="7"/>
	<rect x="122.5" y="46" fill="#ED9A56" width="7" height="7"/>
	<rect x="132.5" y="33" fill="#ED9A56" width="7" height="7"/>
	<rect x="123.5" y="65" fill="#ED9A56" width="7" height="7"/>
	<rect x="145.5" y="53" fill="#ED9A56" width="7" height="7"/>
	<rect x="151.5" y="43" fill="#ED9A56" width="7" height="7"/>
	<rect x="159.5" y="62" fill="#ED9A56" width="7" height="7"/>
	<rect x="167.5" y="46" fill="#ED9A56" width="7" height="7"/>
	<rect x="222.5" y="33" fill="#ED9A56" width="7" height="7"/>
	<rect x="232.5" y="42" fill="#ED9A56" width="7" height="7"/>
	<rect x="223.5" y="57" fill="#ED9A56" width="7" height="7"/>
	<rect x="245.5" y="61" fill="#ED9A56" width="7" height="7"/>
	<rect x="251.5" y="38" fill="#ED9A56" width="7" height="7"/>
	<rect x="259.5" y="50" fill="#ED9A56" width="7" height="7"/>
	<rect x="267.5" y="61" fill="#ED9A56" width="7" height="7"/>
	<rect x="332.5" y="33" fill="#ED9A56" width="7" height="7"/>
	<rect x="323.5" y="42" fill="#ED9A56" width="7" height="7"/>
	<rect x="332.5" y="57" fill="#ED9A56" width="7" height="7"/>
	<rect x="351.5" y="61" fill="#ED9A56" width="7" height="7"/>
	<rect x="345.5" y="38" fill="#ED9A56" width="7" height="7"/>
	<rect x="348.5" y="50" fill="#ED9A56" width="7" height="7"/>
	<rect x="371.5" y="61" fill="#ED9A56" width="7" height="7"/>
	<rect x="422.5" y="33" fill="#ED9A56" width="7" height="7"/>
	<rect x="432.5" y="42" fill="#ED9A56" width="7" height="7"/>
	<rect x="423.5" y="57" fill="#ED9A56" width="7" height="7"/>
	<rect x="445.5" y="61" fill="#ED9A56" width="7" height="7"/>
	<rect x="451.5" y="38" fill="#ED9A56" width="7" height="7"/>
	<rect x="459.5" y="50" fill="#ED9A56" width="7" height="7"/>
	<rect x="467.5" y="61" fill="#ED9A56" width="7" height="7"/>
	<rect x="522.5" y="28" fill="#ED9A56" width="7" height="7"/>
	<rect x="532.5" y="57" fill="#ED9A56" width="7" height="7"/>
	<rect x="523.5" y="46" fill="#ED9A56" width="7" height="7"/>
	<rect x="545.5" y="34" fill="#ED9A56" width="7" height="7"/>
	<rect x="551.5" y="47" fill="#ED9A56" width="7" height="7"/>
	<rect x="559.5" y="65" fill="#ED9A56" width="7" height="7"/>
	<rect x="567.5" y="38" fill="#ED9A56" width="7" height="7"/>
	<rect x="622.5" y="33" fill="#ED9A56" width="7" height="7"/>
	<rect x="632.5" y="42" fill="#ED9A56" width="7" height="7"/>
	<rect x="623.5" y="57" fill="#ED9A56" width="7" height="7"/>
	<rect x="645.5" y="61" fill="#ED9A56" width="7" height="7"/>
	<rect x="651.5" y="38" fill="#ED9A56" width="7" height="7"/>
	<rect x="659.5" y="50" fill="#ED9A56" width="7" height="7"/>
	<rect x="667.5" y="61" fill="#ED9A56" width="7" height="7"/>
	<rect x="722.5" y="46" fill="#ED9A56" width="7" height="7"/>
	<rect x="732.5" y="54" fill="#ED9A56" width="7" height="7"/>
	<rect x="723.5" y="65" fill="#ED9A56" width="7" height="7"/>
	<rect x="745.5" y="50" fill="#ED9A56" width="7" height="7"/>
	<rect x="751.5" y="61" fill="#ED9A56" width="7" height="7"/>
	<rect x="759.5" y="33" fill="#ED9A56" width="7" height="7"/>
	<rect x="767.5" y="49" fill="#ED9A56" width="7" height="7"/>
	<rect x="822.5" y="33" fill="#ED9A56" width="7" height="7"/>
	<rect x="832.5" y="42" fill="#ED9A56" width="7" height="7"/>
	<rect x="823.5" y="57" fill="#ED9A56" width="7" height="7"/>
	<rect x="845.5" y="61" fill="#ED9A56" width="7" height="7"/>
	<rect x="851.5" y="38" fill="#ED9A56" width="7" height="7"/>
	<rect x="859.5" y="50" fill="#ED9A56" width="7" height="7"/>
	<rect x="867.5" y="61" fill="#ED9A56" width="7" height="7"/>
</g>
<g id="圖層_8">
	<g>
		<path fill="none" stroke="#63534D" stroke-linecap="round" stroke-miterlimit="10" d="M18,40.5c3.072,0,3.072,26,6.143,26
			c3.073,0,3.073-26,6.146-26c3.074,0,3.074,26,6.149,26c3.074,0,3.074-26,6.149-26c3.074,0,3.074,26,6.149,26
			c3.075,0,3.075-26,6.151-26c3.074,0,3.074,26,6.147,26c3.076,0,3.076-26,6.153-26c3.078,0,3.078,26,6.157,26
			c3.078,0,3.078-26,6.157-26"/>
	</g>
	<g>
		<path fill="none" stroke="#63534D" stroke-linecap="round" stroke-miterlimit="10" d="M118,40.5c3.072,0,3.072,26,6.143,26
			c3.073,0,3.073-26,6.146-26c3.074,0,3.074,26,6.149,26s3.074-26,6.149-26c3.074,0,3.074,26,6.149,26c3.075,0,3.075-26,6.151-26
			c3.074,0,3.074,26,6.147,26c3.076,0,3.076-26,6.153-26c3.078,0,3.078,26,6.157,26s3.078-26,6.157-26"/>
	</g>
	<g>
		<path fill="none" stroke="#63534D" stroke-linecap="round" stroke-miterlimit="10" d="M218,40.5c3.072,0,3.072,26,6.143,26
			c3.073,0,3.073-26,6.146-26c3.074,0,3.074,26,6.149,26s3.074-26,6.149-26c3.074,0,3.074,26,6.149,26c3.075,0,3.075-26,6.151-26
			c3.074,0,3.074,26,6.147,26c3.076,0,3.076-26,6.153-26c3.078,0,3.078,26,6.157,26s3.078-26,6.157-26"/>
	</g>
	<g>
		<path fill="none" stroke="#63534D" stroke-linecap="round" stroke-miterlimit="10" d="M318,40.5c3.072,0,3.072,26,6.143,26
			c3.073,0,3.073-26,6.146-26c3.074,0,3.074,26,6.149,26s3.074-26,6.149-26c3.074,0,3.074,26,6.149,26c3.075,0,3.075-26,6.151-26
			c3.074,0,3.074,26,6.147,26c3.076,0,3.076-26,6.153-26c3.078,0,3.078,26,6.157,26s3.078-26,6.157-26"/>
	</g>
	<g>
		<path fill="none" stroke="#63534D" stroke-linecap="round" stroke-miterlimit="10" d="M418,40.5c3.072,0,3.072,26,6.143,26
			c3.073,0,3.073-26,6.146-26c3.074,0,3.074,26,6.149,26s3.074-26,6.149-26c3.074,0,3.074,26,6.149,26c3.075,0,3.075-26,6.151-26
			c3.074,0,3.074,26,6.147,26c3.076,0,3.076-26,6.153-26c3.078,0,3.078,26,6.157,26s3.078-26,6.157-26"/>
	</g>
	<g>
		<path fill="none" stroke="#63534D" stroke-linecap="round" stroke-miterlimit="10" d="M518,40.5c3.072,0,3.072,26,6.143,26
			c3.073,0,3.073-26,6.146-26c3.074,0,3.074,26,6.149,26c3.074,0,3.074-26,6.149-26s3.074,26,6.149,26c3.075,0,3.075-26,6.151-26
			c3.074,0,3.074,26,6.147,26c3.076,0,3.076-26,6.153-26c3.078,0,3.078,26,6.157,26c3.078,0,3.078-26,6.157-26"/>
	</g>
	<g>
		<path fill="none" stroke="#63534D" stroke-linecap="round" stroke-miterlimit="10" d="M618,40.5c3.072,0,3.072,26,6.143,26
			c3.073,0,3.073-26,6.146-26c3.074,0,3.074,26,6.149,26c3.074,0,3.074-26,6.149-26s3.074,26,6.149,26c3.075,0,3.075-26,6.151-26
			c3.074,0,3.074,26,6.147,26c3.076,0,3.076-26,6.153-26c3.078,0,3.078,26,6.157,26c3.078,0,3.078-26,6.157-26"/>
	</g>
	<g>
		<path fill="none" stroke="#63534D" stroke-linecap="round" stroke-miterlimit="10" d="M718,40.5c3.072,0,3.072,26,6.143,26
			c3.073,0,3.073-26,6.146-26c3.074,0,3.074,26,6.149,26c3.074,0,3.074-26,6.149-26s3.074,26,6.149,26c3.075,0,3.075-26,6.151-26
			c3.074,0,3.074,26,6.147,26c3.076,0,3.076-26,6.153-26c3.078,0,3.078,26,6.157,26c3.078,0,3.078-26,6.157-26"/>
	</g>
	<g>
		<path fill="none" stroke="#63534D" stroke-linecap="round" stroke-miterlimit="10" d="M818,40.5c3.072,0,3.072,26,6.143,26
			c3.073,0,3.073-26,6.146-26c3.074,0,3.074,26,6.149,26c3.074,0,3.074-26,6.149-26s3.074,26,6.149,26c3.075,0,3.075-26,6.151-26
			c3.074,0,3.074,26,6.147,26c3.076,0,3.076-26,6.153-26c3.078,0,3.078,26,6.157,26c3.078,0,3.078-26,6.157-26"/>
	</g>
	<rect x="18" y="28.5" fill="none" stroke="#63534D" stroke-linecap="round" stroke-miterlimit="10" width="62" height="45"/>
	<rect x="118" y="28.5" fill="none" stroke="#63534D" stroke-linecap="round" stroke-miterlimit="10" width="62" height="45"/>
	<rect x="218" y="28.5" fill="none" stroke="#63534D" stroke-linecap="round" stroke-miterlimit="10" width="62" height="45"/>
	<rect x="318" y="28.5" fill="none" stroke="#63534D" stroke-linecap="round" stroke-miterlimit="10" width="62" height="45"/>
	<rect x="418" y="28.5" fill="none" stroke="#63534D" stroke-linecap="round" stroke-miterlimit="10" width="62" height="45"/>
	<rect x="518" y="28.5" fill="none" stroke="#63534D" stroke-linecap="round" stroke-miterlimit="10" width="62" height="45"/>
	<rect x="618" y="28.5" fill="none" stroke="#63534D" stroke-linecap="round" stroke-miterlimit="10" width="62" height="45"/>
	<rect x="718" y="28.5" fill="none" stroke="#63534D" stroke-linecap="round" stroke-miterlimit="10" width="62" height="45"/>
	<rect x="818" y="28.5" fill="none" stroke="#63534D" stroke-linecap="round" stroke-miterlimit="10" width="62" height="45"/>
</g>
</svg>
