<?xml version="1.0" encoding="utf-8"?>
<!-- Generator: Adobe Illustrator 17.0.0, SVG Export Plug-In . SVG Version: 6.00 Build 0)  -->
<!DOCTYPE svg PUBLIC "-//W3C//DTD SVG 1.1//EN" "http://www.w3.org/Graphics/SVG/1.1/DTD/svg11.dtd">
<svg version="1.1" xmlns="http://www.w3.org/2000/svg" xmlns:xlink="http://www.w3.org/1999/xlink" x="0px" y="0px" width="899.5px"
	 height="100px" viewBox="0 0 899.5 100" enable-background="new 0 0 899.5 100" xml:space="preserve">
<g id="圖層_1">
</g>
<g id="圖層_3" display="none">
</g>
<g id="圖層_5" display="none">
	<rect x="-0.5" y="0.5" display="inline" fill="none" stroke="#63534D" stroke-miterlimit="10" width="100" height="100"/>
	<rect x="99.5" y="0.5" display="inline" fill="none" stroke="#63534D" stroke-miterlimit="10" width="100" height="100"/>
	<rect x="199.5" y="0.5" display="inline" fill="none" stroke="#63534D" stroke-miterlimit="10" width="100" height="100"/>
	<rect x="299.5" y="0.5" display="inline" fill="none" stroke="#63534D" stroke-miterlimit="10" width="100" height="100"/>
	<rect x="399.5" y="0.5" display="inline" fill="none" stroke="#63534D" stroke-miterlimit="10" width="100" height="100"/>
	<rect x="499.5" y="0.5" display="inline" fill="none" stroke="#63534D" stroke-miterlimit="10" width="100" height="100"/>
	<rect x="599.5" y="0.5" display="inline" fill="none" stroke="#63534D" stroke-miterlimit="10" width="100" height="100"/>
	<rect x="699.5" y="0.5" display="inline" fill="none" stroke="#63534D" stroke-miterlimit="10" width="100" height="100"/>
	<rect x="799.5" y="0.5" display="inline" fill="none" stroke="#63534D" stroke-miterlimit="10" width="100" height="100"/>
</g>
<g id="圖層_2">
</g>
<g id="圖層_4">
</g>
<g id="圖層_6">
	<circle fill="#ED9A56" cx="31.607" cy="36.241" r="11.273"/>
	
		<circle fill="none" stroke="#63534D" stroke-linecap="round" stroke-miterlimit="10" stroke-dasharray="2" cx="32.607" cy="38.241" r="11.273"/>
	
		<rect x="28.722" y="55.511" transform="matrix(0.7071 0.7071 -0.7071 0.7071 57.8637 -3.1402)" fill="#ED9A56" width="8" height="25.534"/>
	
		<rect x="29.623" y="57.61" transform="matrix(0.7071 0.7071 -0.7071 0.7071 59.6119 -3.1623)" fill="none" stroke="#63534D" stroke-linecap="round" stroke-miterlimit="10" stroke-dasharray="2" width="8" height="25.534"/>
	<polygon fill="#ED9A56" points="51.199,45 63.342,23.967 75.485,45 	"/>
	<polygon fill="none" stroke="#63534D" stroke-linecap="round" stroke-miterlimit="10" stroke-dasharray="2" points="55.199,47.5 
		67.342,26.467 79.485,47.5 	"/>
	<rect x="55" y="57" fill="#ED9A56" width="17" height="20"/>
	
		<rect x="58.5" y="59.5" fill="none" stroke="#63534D" stroke-linecap="round" stroke-miterlimit="10" stroke-dasharray="2" width="17" height="20"/>
	<circle fill="#ED9A56" cx="117.607" cy="-0.759" r="11.273"/>
	
		<circle fill="none" stroke="#63534D" stroke-linecap="round" stroke-miterlimit="10" stroke-dasharray="2" cx="118.607" cy="1.241" r="11.273"/>
	
		<rect x="107.722" y="87.511" transform="matrix(0.7071 0.7071 -0.7071 0.7071 103.6297 -49.6291)" fill="#ED9A56" width="8" height="25.534"/>
	
		<rect x="108.623" y="89.61" transform="matrix(0.7071 0.7071 -0.7071 0.7071 105.3779 -49.6511)" fill="none" stroke="#63534D" stroke-linecap="round" stroke-miterlimit="10" stroke-dasharray="2" width="8" height="25.534"/>
	<polygon fill="#ED9A56" points="168.199,9 180.342,-12.033 192.485,9 	"/>
	<polygon fill="none" stroke="#63534D" stroke-linecap="round" stroke-miterlimit="10" stroke-dasharray="2" points="172.199,11.5 
		184.342,-9.533 196.485,11.5 	"/>
	<rect x="174" y="89" fill="#ED9A56" width="17" height="20"/>
	
		<rect x="177.5" y="91.5" fill="none" stroke="#63534D" stroke-linecap="round" stroke-miterlimit="10" stroke-dasharray="2" width="17" height="20"/>
	<circle fill="#ED9A56" cx="231.607" cy="36.241" r="11.273"/>
	
		<circle fill="none" stroke="#63534D" stroke-linecap="round" stroke-miterlimit="10" stroke-dasharray="2" cx="232.607" cy="38.241" r="11.273"/>
	
		<rect x="228.722" y="55.511" transform="matrix(0.7071 0.7071 -0.7071 0.7071 116.4424 -144.5616)" fill="#ED9A56" width="8" height="25.534"/>
	
		<rect x="229.623" y="57.61" transform="matrix(0.7071 0.7071 -0.7071 0.7071 118.1906 -144.5836)" fill="none" stroke="#63534D" stroke-linecap="round" stroke-miterlimit="10" stroke-dasharray="2" width="8" height="25.534"/>
	<polygon fill="#ED9A56" points="251.199,45 263.342,23.967 275.485,45 	"/>
	<polygon fill="none" stroke="#63534D" stroke-linecap="round" stroke-miterlimit="10" stroke-dasharray="2" points="255.199,47.5 
		267.342,26.467 279.485,47.5 	"/>
	<rect x="255" y="57" fill="#ED9A56" width="17" height="20"/>
	
		<rect x="258.5" y="59.5" fill="none" stroke="#63534D" stroke-linecap="round" stroke-miterlimit="10" stroke-dasharray="2" width="17" height="20"/>
	<circle fill="#ED9A56" cx="386.607" cy="108.241" r="11.273"/>
	
		<circle fill="none" stroke="#63534D" stroke-linecap="round" stroke-miterlimit="10" stroke-dasharray="2" cx="387.607" cy="110.241" r="11.273"/>
	
		<rect x="381.722" y="-15.489" transform="matrix(0.7071 0.7071 -0.7071 0.7071 111.0505 -273.5443)" fill="#ED9A56" width="8" height="25.534"/>
	
		<rect x="382.623" y="-13.39" transform="matrix(0.7071 0.7071 -0.7071 0.7071 112.7986 -273.5664)" fill="none" stroke="#63534D" stroke-linecap="round" stroke-miterlimit="10" stroke-dasharray="2" width="8" height="25.534"/>
	<polygon fill="#ED9A56" points="302.199,111 314.342,89.967 326.485,111 	"/>
	<polygon fill="none" stroke="#63534D" stroke-linecap="round" stroke-miterlimit="10" stroke-dasharray="2" points="306.199,113.5 
		318.342,92.467 330.485,113.5 	"/>
	<rect x="308" y="-11" fill="#ED9A56" width="17" height="20"/>
	
		<rect x="311.5" y="-8.5" fill="none" stroke="#63534D" stroke-linecap="round" stroke-miterlimit="10" stroke-dasharray="2" width="17" height="20"/>
	<circle fill="#ED9A56" cx="431.607" cy="36.241" r="11.273"/>
	
		<circle fill="none" stroke="#63534D" stroke-linecap="round" stroke-miterlimit="10" stroke-dasharray="2" cx="432.607" cy="38.241" r="11.273"/>
	
		<rect x="428.722" y="55.511" transform="matrix(0.7071 0.7071 -0.7071 0.7071 175.021 -285.9829)" fill="#ED9A56" width="8" height="25.534"/>
	
		<rect x="429.623" y="57.61" transform="matrix(0.7071 0.7071 -0.7071 0.7071 176.7692 -286.005)" fill="none" stroke="#63534D" stroke-linecap="round" stroke-miterlimit="10" stroke-dasharray="2" width="8" height="25.534"/>
	<polygon fill="#ED9A56" points="451.199,45 463.342,23.967 475.485,45 	"/>
	<polygon fill="none" stroke="#63534D" stroke-linecap="round" stroke-miterlimit="10" stroke-dasharray="2" points="455.199,47.5 
		467.342,26.467 479.485,47.5 	"/>
	<rect x="455" y="57" fill="#ED9A56" width="17" height="20"/>
	
		<rect x="458.5" y="59.5" fill="none" stroke="#63534D" stroke-linecap="round" stroke-miterlimit="10" stroke-dasharray="2" width="17" height="20"/>
	<circle fill="#ED9A56" cx="531.607" cy="-9.759" r="11.273"/>
	
		<circle fill="none" stroke="#63534D" stroke-linecap="round" stroke-miterlimit="10" stroke-dasharray="2" cx="532.607" cy="-7.759" r="11.273"/>
	
		<rect x="505.722" y="94.511" transform="matrix(0.7071 0.7071 -0.7071 0.7071 225.151 -329.0073)" fill="#ED9A56" width="8" height="25.534"/>
	
		<rect x="506.623" y="96.61" transform="matrix(0.7071 0.7071 -0.7071 0.7071 226.8991 -329.0294)" fill="none" stroke="#63534D" stroke-linecap="round" stroke-miterlimit="10" stroke-dasharray="2" width="8" height="25.534"/>
	<polygon fill="#ED9A56" points="535.199,66 547.342,44.967 559.485,66 	"/>
	<polygon fill="none" stroke="#63534D" stroke-linecap="round" stroke-miterlimit="10" stroke-dasharray="2" points="539.199,68.5 
		551.342,47.467 563.485,68.5 	"/>
	<rect x="575" y="96" fill="#ED9A56" width="17" height="20"/>
	
		<rect x="578.5" y="98.5" fill="none" stroke="#63534D" stroke-linecap="round" stroke-miterlimit="10" stroke-dasharray="2" width="17" height="20"/>
	<circle fill="#ED9A56" cx="631.607" cy="36.241" r="11.273"/>
	
		<circle fill="none" stroke="#63534D" stroke-linecap="round" stroke-miterlimit="10" stroke-dasharray="2" cx="632.607" cy="38.241" r="11.273"/>
	
		<rect x="628.722" y="55.511" transform="matrix(0.7071 0.7071 -0.7071 0.7071 233.5997 -427.4043)" fill="#ED9A56" width="8" height="25.534"/>
	
		<rect x="629.623" y="57.61" transform="matrix(0.7071 0.7071 -0.7071 0.7071 235.3478 -427.4263)" fill="none" stroke="#63534D" stroke-linecap="round" stroke-miterlimit="10" stroke-dasharray="2" width="8" height="25.534"/>
	<polygon fill="#ED9A56" points="651.199,45 663.342,23.967 675.485,45 	"/>
	<polygon fill="none" stroke="#63534D" stroke-linecap="round" stroke-miterlimit="10" stroke-dasharray="2" points="655.199,47.5 
		667.342,26.467 679.485,47.5 	"/>
	<rect x="655" y="57" fill="#ED9A56" width="17" height="20"/>
	
		<rect x="658.5" y="59.5" fill="none" stroke="#63534D" stroke-linecap="round" stroke-miterlimit="10" stroke-dasharray="2" width="17" height="20"/>
	<circle fill="#ED9A56" cx="783.607" cy="-1.759" r="11.273"/>
	
		<circle fill="none" stroke="#63534D" stroke-linecap="round" stroke-miterlimit="10" stroke-dasharray="2" cx="784.607" cy="0.241" r="11.273"/>
	
		<rect x="778.722" y="86.511" transform="matrix(0.7071 0.7071 -0.7071 0.7071 299.4539 -524.3906)" fill="#ED9A56" width="8" height="25.534"/>
	
		<rect x="779.623" y="88.61" transform="matrix(0.7071 0.7071 -0.7071 0.7071 301.2021 -524.4127)" fill="none" stroke="#63534D" stroke-linecap="round" stroke-miterlimit="10" stroke-dasharray="2" width="8" height="25.534"/>
	<polygon fill="#ED9A56" points="707.199,7 719.342,-14.033 731.485,7 	"/>
	<polygon fill="none" stroke="#63534D" stroke-linecap="round" stroke-miterlimit="10" stroke-dasharray="2" points="711.199,9.5 
		723.342,-11.533 735.485,9.5 	"/>
	<rect x="703" y="89" fill="#ED9A56" width="17" height="20"/>
	
		<rect x="706.5" y="91.5" fill="none" stroke="#63534D" stroke-linecap="round" stroke-miterlimit="10" stroke-dasharray="2" width="17" height="20"/>
	<circle fill="#ED9A56" cx="831.607" cy="36.241" r="11.273"/>
	
		<circle fill="none" stroke="#63534D" stroke-linecap="round" stroke-miterlimit="10" stroke-dasharray="2" cx="832.607" cy="38.241" r="11.273"/>
	
		<rect x="828.722" y="55.511" transform="matrix(0.7071 0.7071 -0.7071 0.7071 292.1783 -568.8256)" fill="#ED9A56" width="8" height="25.534"/>
	
		<rect x="829.623" y="57.61" transform="matrix(0.7071 0.7071 -0.7071 0.7071 293.9265 -568.8477)" fill="none" stroke="#63534D" stroke-linecap="round" stroke-miterlimit="10" stroke-dasharray="2" width="8" height="25.534"/>
	<polygon fill="#ED9A56" points="851.199,45 863.342,23.967 875.485,45 	"/>
	<polygon fill="none" stroke="#63534D" stroke-linecap="round" stroke-miterlimit="10" stroke-dasharray="2" points="855.199,47.5 
		867.342,26.467 879.485,47.5 	"/>
	<rect x="855" y="57" fill="#ED9A56" width="17" height="20"/>
	
		<rect x="858.5" y="59.5" fill="none" stroke="#63534D" stroke-linecap="round" stroke-miterlimit="10" stroke-dasharray="2" width="17" height="20"/>
</g>
</svg>
