<?xml version="1.0" encoding="utf-8"?>
<!-- Generator: Adobe Illustrator 17.0.0, SVG Export Plug-In . SVG Version: 6.00 Build 0)  -->
<!DOCTYPE svg PUBLIC "-//W3C//DTD SVG 1.1//EN" "http://www.w3.org/Graphics/SVG/1.1/DTD/svg11.dtd">
<svg version="1.1" id="圖層_1" xmlns="http://www.w3.org/2000/svg" xmlns:xlink="http://www.w3.org/1999/xlink" x="0px" y="0px"
	 width="960px" height="279.028px" viewBox="0 0 960 279.028" enable-background="new 0 0 960 279.028" xml:space="preserve">
<path id="XMLID_307_" fill="#FFFFFF" stroke="#FFFFFF" stroke-miterlimit="10" d="M640.5,204.9c0,20.262-7.669,32.483-26,32.483
	c-18.01,0-26-12.221-26-32.483v-1.743v-6.497v-23.101v-6.497v-42.368h-25v42.368v6.497v23.101v6.497v0.457
	c0,34.091,16.334,56.642,50.746,56.642c34.734,0,51.068-22.562,51.068-56.562H640.5V204.9z"/>
<path id="XMLID_306_" fill="#FFFFFF" stroke="#FFFFFF" stroke-miterlimit="10" d="M588.5,85.908c0-20.26,7.99-32.481,26-32.481
	c18.331,0,26,12.221,26,32.481v1.786h24.814c0-34-16.334-56.851-51.068-56.851c-34.411,0-50.746,22.262-50.746,56.352v0.499h25
	L588.5,85.908L588.5,85.908z"/>
<path id="XMLID_305_" fill="#FFFFFF" stroke="#FFFFFF" stroke-miterlimit="10" d="M595.17,94.694h-6.497h-24.545h-6.497h-1.444
	c-28.395,0-51.496,22.605-51.496,51s23.101,51,51.496,51h0.313v-23h-0.313c-15.657,0-28.395-12.343-28.395-28s12.738-28,28.395-28
	h1.444h6.497h24.545h6.497h69.33v-23H595.17z"/>
<rect id="XMLID_304_" x="594.5" y="173.694" fill="#FFFFFF" stroke="#FFFFFF" stroke-miterlimit="10" width="70" height="23"/>
<path id="XMLID_302_" fill="#FFFFFF" stroke="#FFFFFF" stroke-miterlimit="10" d="M73.805,159.936v15.443
	c0,18.599-9.3,29.227-27.234,29.227s-27.234-10.628-27.234-29.227v-60.446c0-18.599,9.299-29.227,27.234-29.227
	s27.234,10.628,27.234,29.227v11.292h-17.27v-12.454c0-8.304-3.653-11.458-9.465-11.458s-9.466,3.155-9.466,11.458v62.771
	c0,8.304,3.653,11.293,9.466,11.293c5.812,0,9.465-2.989,9.465-11.293v-16.605L73.805,159.936L73.805,159.936z"/>
<path id="XMLID_299_" fill="#FFFFFF" stroke="#FFFFFF" stroke-miterlimit="10" d="M123.122,203.278
	c-0.996-2.989-1.661-4.815-1.661-14.281V170.73c0-10.794-3.653-14.779-11.956-14.779h-6.311v47.327H84.929V87.035h27.566
	c18.931,0,27.068,8.801,27.068,26.736v9.133c0,11.957-3.82,19.762-11.957,23.581c9.133,3.819,12.123,12.621,12.123,24.743v17.935
	c0,5.646,0.166,9.798,1.993,14.115H123.122z M103.195,103.641v35.703h7.141c6.809,0,10.96-2.989,10.96-12.289v-11.458
	c0-8.303-2.823-11.956-9.299-11.956C111.997,103.641,103.195,103.641,103.195,103.641z"/>
<path id="XMLID_297_" fill="#FFFFFF" stroke="#FFFFFF" stroke-miterlimit="10" d="M169.951,136.023h25.075v16.606h-25.075v34.042
	h31.552v16.606h-49.818V87.035h49.818v16.606h-31.552L169.951,136.023L169.951,136.023z"/>
<path id="XMLID_294_" fill="#FFFFFF" stroke="#FFFFFF" stroke-miterlimit="10" d="M271.911,203.278h-18.433l-3.155-21.09h-22.418
	l-3.155,21.09h-16.772l18.599-116.243h26.736L271.911,203.278z M230.23,166.413h17.603l-8.801-58.786L230.23,166.413z"/>
<path id="XMLID_292_" fill="#FFFFFF" stroke="#FFFFFF" stroke-miterlimit="10" d="M275.066,87.035h56.461v16.606H312.43v99.637
	h-18.267v-99.637h-19.097L275.066,87.035L275.066,87.035z"/>
<path id="XMLID_290_" fill="#FFFFFF" stroke="#FFFFFF" stroke-miterlimit="10" d="M339.495,87.035h18.267v116.243h-18.267V87.035z"
	/>
<path id="XMLID_288_" fill="#FFFFFF" stroke="#FFFFFF" stroke-miterlimit="10" d="M398.611,181.856l13.949-94.821h16.772
	l-17.935,116.243h-27.234L366.229,87.035h18.433L398.611,181.856z"/>
<path id="XMLID_286_" fill="#FFFFFF" stroke="#FFFFFF" stroke-miterlimit="10" d="M456.066,136.023h25.075v16.606h-25.075v34.042
	h31.552v16.606H437.8V87.035h49.818v16.606h-31.552L456.066,136.023L456.066,136.023z"/>
<path id="XMLID_284_" fill="#FFFFFF" stroke="#FFFFFF" stroke-miterlimit="10" d="M742.211,159.936v15.443
	c0,18.599-9.3,29.227-27.234,29.227s-27.234-10.628-27.234-29.227v-60.446c0-18.599,9.3-29.227,27.234-29.227
	s27.234,10.628,27.234,29.227v11.292H724.94v-12.454c0-8.304-3.653-11.458-9.466-11.458s-9.466,3.155-9.466,11.458v62.771
	c0,8.304,3.653,11.293,9.466,11.293s9.466-2.989,9.466-11.293v-16.605L742.211,159.936L742.211,159.936z"/>
<path id="XMLID_281_" fill="#FFFFFF" stroke="#FFFFFF" stroke-miterlimit="10" d="M751.84,114.933
	c0-18.599,9.797-29.227,27.732-29.227s27.731,10.628,27.731,29.227v60.446c0,18.599-9.797,29.227-27.731,29.227
	c-17.936,0-27.732-10.628-27.732-29.227V114.933z M770.107,176.542c0,8.304,3.653,11.459,9.466,11.459
	c5.812,0,9.465-3.155,9.465-11.459v-62.771c0-8.304-3.653-11.458-9.465-11.458s-9.466,3.155-9.466,11.458V176.542z"/>
<path id="XMLID_278_" fill="#FFFFFF" stroke="#FFFFFF" stroke-miterlimit="10" d="M819.094,87.035h28.895
	c18.267,0,27.234,10.13,27.234,28.729v58.786c0,18.599-8.968,28.729-27.234,28.729h-28.895V87.035z M837.361,103.641v83.03h10.296
	c5.812,0,9.3-2.989,9.3-11.292v-60.446c0-8.303-3.487-11.292-9.3-11.292H837.361z"/>
<path id="XMLID_276_" fill="#FFFFFF" stroke="#FFFFFF" stroke-miterlimit="10" d="M905.112,136.023h25.075v16.606h-25.075v34.042
	h31.552v16.606h-49.818V87.035h49.818v16.606h-31.552V136.023z"/>
</svg>
